<svg width="22" height="22" viewBox="0 0 22 22" fill="none" xmlns="http://www.w3.org/2000/svg">
<path d="M14.4833 6.41667H2.8811C2.34092 6.41667 1.90302 6.85457 1.90302 7.39476V20.1053C1.90302 20.6454 2.34092 21.0833 2.8811 21.0833H14.4833C15.0235 21.0833 15.4614 20.6454 15.4614 20.1053V7.39476C15.4614 6.85457 15.0235 6.41667 14.4833 6.41667Z" fill="#4AD2C1"/>
<path d="M19.1281 17.4167H6.47808C6.21868 17.4167 5.9699 17.3136 5.78647 17.1302C5.60305 16.9468 5.5 16.698 5.5 16.4386V1.89476C5.5 1.63535 5.60305 1.38657 5.78647 1.20315C5.9699 1.01972 6.21868 0.916672 6.47808 0.916672H15.7245C15.8711 0.916648 16.0159 0.949588 16.148 1.01306C16.2802 1.07652 16.3964 1.1689 16.4881 1.28334L19.8917 5.53759C20.0302 5.71123 20.1056 5.92686 20.1053 6.14901V16.4386C20.1053 16.6978 20.0023 16.9465 19.8191 17.1299C19.6359 17.3133 19.3873 17.4164 19.1281 17.4167Z" fill="#1C8AF6"/>
</svg>
