<svg width="24" height="24" viewBox="0 0 24 24" fill="none" xmlns="http://www.w3.org/2000/svg">
<path d="M21.45 1.76294V22.2371C21.45 22.5179 21.3384 22.7872 21.1399 22.9858C20.9413 23.1843 20.672 23.2959 20.3912 23.2959H3.60881C3.32799 23.2959 3.05868 23.1843 2.86011 22.9858C2.66154 22.7872 2.54999 22.5179 2.54999 22.2371V4.95353H5.74411C6.02492 4.95353 6.29424 4.84197 6.49281 4.64341C6.69137 4.44484 6.80293 4.17552 6.80293 3.89471V0.704117H20.3912C20.672 0.704117 20.9413 0.815671 21.1399 1.01424C21.3384 1.21281 21.45 1.48212 21.45 1.76294Z" fill="#E9EDF4"/>
<path d="M2.54999 4.95353H5.7441C6.02492 4.95353 6.29424 4.84197 6.49281 4.64341C6.69137 4.44484 6.80293 4.17552 6.80293 3.89471V0.704117L2.54999 4.95353Z" fill="#D2DBEA"/>
<path d="M22.5882 13.8311V18.744C22.5882 19.0248 22.4767 19.2941 22.2781 19.4927C22.0795 19.6913 21.8102 19.8028 21.5294 19.8028H2.47057C2.18975 19.8028 1.92043 19.6913 1.72187 19.4927C1.5233 19.2941 1.41174 19.0248 1.41174 18.744V13.8311C1.41174 13.5502 1.5233 13.2809 1.72187 13.0824C1.92043 12.8838 2.18975 12.7722 2.47057 12.7722H21.5294C21.8102 12.7722 22.0795 12.8838 22.2781 13.0824C22.4767 13.2809 22.5882 13.5502 22.5882 13.8311Z" fill="#F14F4A"/>
<path d="M18.541 7.94011C18.541 8.19352 18.3392 8.39541 18.0857 8.39541H5.91422C5.79347 8.39541 5.67766 8.34744 5.59228 8.26205C5.50689 8.17667 5.45892 8.06086 5.45892 7.94011C5.45892 7.81936 5.50689 7.70355 5.59228 7.61817C5.67766 7.53279 5.79347 7.48482 5.91422 7.48482H18.0857C18.3392 7.48482 18.541 7.6867 18.541 7.94011ZM18.541 10.2731C18.541 10.5265 18.3392 10.7283 18.0857 10.7283H5.91422C5.79347 10.7283 5.67766 10.6804 5.59228 10.595C5.50689 10.5096 5.45892 10.3938 5.45892 10.2731C5.45892 10.1523 5.50689 10.0365 5.59228 9.95111C5.67766 9.86573 5.79347 9.81776 5.91422 9.81776H18.0857C18.3392 9.81776 18.541 10.02 18.541 10.2731Z" fill="#D2DBEA"/>
<path d="M7.50986 17.9672C7.48885 17.9465 7.47231 17.9217 7.46126 17.8944C7.45021 17.8671 7.44489 17.8378 7.44562 17.8084V14.7734C7.44562 14.7109 7.4668 14.6569 7.50986 14.6125C7.53012 14.5907 7.55474 14.5735 7.58211 14.562C7.60948 14.5504 7.63898 14.5448 7.66868 14.5454H8.79915C9.11327 14.5454 9.36951 14.5984 9.56751 14.7042C9.76621 14.8101 9.90809 14.9456 9.99456 15.1108C10.08 15.276 10.1234 15.4546 10.1234 15.6462C10.1234 15.8379 10.08 16.0168 9.99421 16.182C9.90809 16.3472 9.76621 16.4827 9.56751 16.5886C9.36951 16.6945 9.11292 16.7474 8.79915 16.7474H7.89668V17.8084C7.89727 17.838 7.8916 17.8675 7.88005 17.8949C7.86849 17.9223 7.85131 17.9469 7.82962 17.9672C7.78515 18.0099 7.73115 18.0314 7.66833 18.0314C7.60551 18.0314 7.55256 18.0102 7.50986 17.9672ZM8.75468 16.3207C9.09174 16.3207 9.32892 16.2561 9.46586 16.1273C9.60315 15.9985 9.67162 15.8379 9.67162 15.6462C9.67162 15.4546 9.60315 15.294 9.46586 15.1652C9.32892 15.0364 9.09174 14.9718 8.75468 14.9718H7.89668V16.3207H8.75468Z" fill="white"/>
<path d="M7.66836 18.1201C7.62738 18.1205 7.58674 18.1127 7.54884 18.0972C7.51094 18.0816 7.47657 18.0585 7.44777 18.0294C7.41844 18.0006 7.3953 17.9662 7.37976 17.9282C7.36422 17.8902 7.35662 17.8495 7.35742 17.8084V14.7735C7.35742 14.6874 7.38742 14.6125 7.44671 14.5511C7.47519 14.521 7.50957 14.4972 7.54772 14.481C7.58586 14.4649 7.62694 14.4568 7.66836 14.4572H8.79918C9.12636 14.4572 9.39883 14.5141 9.60918 14.6263C9.82236 14.74 9.97801 14.8892 10.0726 15.07C10.1644 15.2475 10.2117 15.4412 10.2117 15.6463C10.2117 15.8514 10.1647 16.0451 10.0726 16.2227C9.97836 16.4034 9.82236 16.5527 9.60918 16.6667C9.39918 16.7785 9.12671 16.8354 8.79918 16.8354H7.98495V17.8084C7.98544 17.85 7.97736 17.8911 7.9612 17.9294C7.94505 17.9677 7.92117 18.0022 7.89106 18.0308C7.86167 18.0595 7.82691 18.0821 7.78875 18.0974C7.75059 18.1127 7.7098 18.1203 7.66871 18.1197L7.66836 18.1201ZM7.66836 14.6337C7.65065 14.6332 7.63303 14.6364 7.6167 14.6433C7.60037 14.6502 7.58573 14.6605 7.57377 14.6736C7.56069 14.6867 7.55041 14.7023 7.54356 14.7194C7.5367 14.7366 7.53341 14.755 7.53389 14.7735V17.8084C7.53389 17.848 7.54589 17.8787 7.57236 17.9044C7.6253 17.9574 7.71248 17.9577 7.76895 17.9034C7.78198 17.8912 7.79225 17.8765 7.79907 17.86C7.80589 17.8436 7.8091 17.8259 7.80848 17.8081V16.6589H8.79918C9.09742 16.6589 9.34201 16.6091 9.52624 16.5107C9.70765 16.414 9.83859 16.2897 9.91624 16.1411C9.99495 15.9894 10.0352 15.8228 10.0352 15.6463C10.0352 15.4698 9.99495 15.3036 9.91624 15.1515C9.83859 15.0032 9.7073 14.8787 9.52624 14.782C9.34165 14.6835 9.09706 14.6337 8.79918 14.6337H7.66836ZM8.75471 16.409H7.80848V14.8836H8.75436C9.11789 14.8836 9.37095 14.9545 9.52624 15.101C9.68154 15.2468 9.75989 15.4303 9.75989 15.6463C9.75989 15.8623 9.68154 16.0458 9.52624 16.1916C9.37095 16.3381 9.11824 16.409 8.75471 16.409ZM7.98495 16.2325H8.75436C9.06671 16.2325 9.28589 16.1754 9.40554 16.0631C9.52554 15.9502 9.58342 15.8143 9.58342 15.6463C9.58342 15.4783 9.52518 15.3421 9.40554 15.2298C9.28589 15.1169 9.06671 15.0604 8.75471 15.0604H7.98495V16.2325ZM10.8424 17.9422C10.8213 17.9216 10.8047 17.8968 10.7936 17.8695C10.7825 17.8422 10.7771 17.8129 10.7778 17.7834V14.7735C10.7778 14.711 10.7989 14.657 10.8424 14.6125C10.8626 14.5909 10.8871 14.5737 10.9144 14.5621C10.9418 14.5506 10.9712 14.5449 11.0008 14.5455H11.9975C12.3741 14.5455 12.6942 14.6291 12.9572 14.7961C13.2106 14.9529 13.4157 15.1768 13.5498 15.443C13.6818 15.7077 13.7478 15.9851 13.7478 16.276C13.7478 16.5668 13.6818 16.8445 13.5498 17.1093C13.4157 17.3755 13.2104 17.5994 12.9568 17.7562C12.6942 17.9235 12.3745 18.0068 11.9975 18.0068H11.0012C10.9717 18.0075 10.9424 18.0021 10.9151 17.991C10.8877 17.9799 10.863 17.9633 10.8424 17.9422ZM11.9432 17.5854C12.2139 17.5854 12.4518 17.53 12.6568 17.4191C12.8563 17.3139 13.0215 17.1539 13.1329 16.9578C13.2452 16.7612 13.3017 16.5343 13.3017 16.2763C13.3017 16.0183 13.2452 15.791 13.1329 15.5944C13.0214 15.3985 12.8562 15.2384 12.6568 15.1331C12.4521 15.0223 12.2139 14.9672 11.9432 14.9672H11.2288V17.5854H11.9432Z" fill="white"/>
<path d="M11.9975 18.0949H11.0012C10.9602 18.0955 10.9195 18.0878 10.8815 18.0723C10.8435 18.0567 10.8091 18.0337 10.7802 18.0046C10.7509 17.9759 10.7278 17.9415 10.7122 17.9035C10.6967 17.8655 10.6891 17.8247 10.6899 17.7836V14.7734C10.6899 14.6873 10.7199 14.6125 10.7792 14.5511C10.8077 14.5209 10.8421 14.497 10.8803 14.4809C10.9185 14.4647 10.9597 14.4566 11.0012 14.4572H11.9979C12.39 14.4572 12.7285 14.5461 13.0048 14.7215C13.2716 14.8871 13.4875 15.1231 13.6288 15.4034C13.7651 15.6741 13.8361 15.973 13.8361 16.2761C13.8361 16.5791 13.7651 16.878 13.6288 17.1487C13.4875 17.429 13.2716 17.665 13.0048 17.8306C12.7285 18.006 12.3896 18.0949 11.9975 18.0949ZM11.0008 14.6336C10.983 14.633 10.9654 14.6363 10.949 14.6432C10.9326 14.65 10.9179 14.6604 10.9059 14.6735C10.8928 14.6866 10.8825 14.7022 10.8757 14.7194C10.8688 14.7365 10.8655 14.7549 10.866 14.7734V17.7836C10.866 17.8228 10.878 17.8535 10.9048 17.8796C10.9173 17.8924 10.9322 17.9028 10.9488 17.9094C10.9653 17.916 10.983 17.9191 11.0008 17.9185H11.9975C12.3558 17.9185 12.6625 17.8387 12.9099 17.682C13.1496 17.5333 13.3436 17.3214 13.4707 17.0696C13.5949 16.8235 13.6596 16.5517 13.6596 16.2761C13.6596 16.0004 13.5949 15.7286 13.4707 15.4825C13.3436 15.2308 13.1495 15.019 12.9099 14.8705C12.6625 14.7134 12.3558 14.634 11.9975 14.634H11.0012L11.0008 14.6336ZM11.9432 17.6735H11.1406V14.8786H11.9432C12.2269 14.8786 12.4814 14.9382 12.6988 15.0551C12.9176 15.1736 13.0895 15.3402 13.2095 15.5502C13.3295 15.7602 13.3899 16.0045 13.3899 16.2762C13.3899 16.548 13.3295 16.7922 13.2095 17.0015C13.0897 17.2117 12.9126 17.3835 12.6988 17.4967C12.4818 17.6139 12.2273 17.6735 11.9432 17.6735ZM11.3171 17.4971H11.9432C12.1976 17.4971 12.4239 17.4445 12.6148 17.3418C12.804 17.2394 12.9526 17.0954 13.0563 16.914C13.1605 16.7315 13.2134 16.5169 13.2134 16.2762C13.2134 16.0355 13.1605 15.8209 13.0563 15.6381C12.9526 15.4568 12.7997 15.3086 12.6152 15.2107C12.4235 15.1076 12.1976 15.0554 11.9432 15.0554H11.3171V17.4971ZM14.5662 17.9672C14.5452 17.9465 14.5287 17.9217 14.5176 17.8944C14.5066 17.8671 14.5013 17.8378 14.502 17.8084V14.7734C14.502 14.7109 14.5232 14.6569 14.5662 14.6125C14.5865 14.5907 14.6111 14.5735 14.6385 14.562C14.6659 14.5504 14.6954 14.5448 14.7251 14.5454H16.6539C16.7132 14.5454 16.7636 14.5662 16.8049 14.6075C16.8462 14.6488 16.8671 14.6993 16.8671 14.7586C16.8671 14.8179 16.8462 14.868 16.8049 14.9075C16.7636 14.9471 16.7132 14.9668 16.6539 14.9668H14.9531V16.0627H16.4802C16.5402 16.0627 16.5903 16.0839 16.6316 16.1248C16.6729 16.1661 16.6938 16.2166 16.6938 16.2762C16.6938 16.3355 16.6729 16.3853 16.6316 16.4248C16.5903 16.4644 16.5399 16.4841 16.4802 16.4841H14.9531V17.8084C14.9536 17.8381 14.948 17.8675 14.9364 17.8949C14.9249 17.9223 14.9077 17.9469 14.886 17.9672C14.8415 18.0099 14.7875 18.0314 14.7251 18.0314C14.6626 18.0314 14.6093 18.0102 14.5662 17.9672Z" fill="white"/>
<path d="M14.7247 18.12C14.6837 18.1205 14.6431 18.1127 14.6052 18.0971C14.5673 18.0815 14.5329 18.0584 14.5041 18.0293C14.4748 18.0006 14.4516 17.9662 14.4361 17.9282C14.4206 17.8902 14.413 17.8494 14.4138 17.8084V14.7734C14.4138 14.6873 14.4438 14.6125 14.503 14.5511C14.5316 14.5209 14.566 14.497 14.6042 14.4809C14.6424 14.4647 14.6836 14.4566 14.725 14.4572H16.6539C16.6935 14.4565 16.7329 14.464 16.7696 14.479C16.8063 14.4941 16.8396 14.5164 16.8674 14.5447C16.8956 14.5726 16.918 14.606 16.9331 14.6427C16.9481 14.6795 16.9557 14.7189 16.9553 14.7586C16.9552 14.7979 16.9473 14.8368 16.9321 14.8731C16.9168 14.9093 16.8945 14.9422 16.8665 14.9698C16.8385 14.9974 16.8052 15.0191 16.7687 15.0337C16.7322 15.0484 16.6932 15.0556 16.6539 15.0551H15.0413V15.9745H16.4802C16.52 15.9738 16.5594 15.9813 16.5962 15.9964C16.633 16.0115 16.6663 16.034 16.6941 16.0624C16.7225 16.0902 16.7449 16.1235 16.76 16.1603C16.7752 16.197 16.7826 16.2365 16.782 16.2762C16.7825 16.3159 16.7749 16.3552 16.7595 16.3918C16.7442 16.4284 16.7214 16.4613 16.6927 16.4887C16.6645 16.516 16.6313 16.5374 16.5948 16.5517C16.5583 16.5661 16.5194 16.5731 16.4802 16.5724H15.0413V17.8084C15.0418 17.8499 15.0338 17.891 15.0177 17.9293C15.0016 17.9675 14.9778 18.0021 14.9478 18.0307C14.9183 18.0595 14.8835 18.0821 14.8453 18.0974C14.8071 18.1127 14.7662 18.1202 14.725 18.1196L14.7247 18.12ZM14.7247 14.6336C14.707 14.6331 14.6894 14.6363 14.673 14.6432C14.6567 14.6501 14.6421 14.6605 14.6301 14.6735C14.617 14.6866 14.6067 14.7022 14.5999 14.7194C14.593 14.7365 14.5897 14.7549 14.5902 14.7734V17.8084C14.5902 17.8479 14.6022 17.8786 14.629 17.9044C14.682 17.9573 14.7688 17.9576 14.8253 17.9033C14.8383 17.8912 14.8486 17.8764 14.8554 17.8599C14.8622 17.8435 14.8654 17.8258 14.8648 17.808V16.3962H16.4802C16.4969 16.3968 16.5135 16.394 16.5291 16.3879C16.5446 16.3819 16.5587 16.3727 16.5706 16.3609C16.5821 16.3502 16.5912 16.337 16.5973 16.3224C16.6033 16.3078 16.6061 16.292 16.6055 16.2762C16.6055 16.2402 16.5942 16.212 16.5692 16.1873C16.5441 16.1626 16.5162 16.1509 16.4802 16.1509H14.8648V14.8786H16.6542C16.6708 14.8792 16.6872 14.8764 16.7026 14.8703C16.7181 14.8643 16.7321 14.8553 16.7439 14.8436C16.7554 14.8329 16.7645 14.8197 16.7706 14.8051C16.7766 14.7905 16.7794 14.7747 16.7788 14.7589C16.7794 14.7423 16.7764 14.7258 16.7702 14.7104C16.7639 14.695 16.7545 14.6811 16.7425 14.6696C16.731 14.6579 16.7173 14.6486 16.7021 14.6424C16.6869 14.6362 16.6706 14.6332 16.6542 14.6336H14.7247Z" fill="white"/>
</svg>
