<svg width="65" height="65" viewBox="0 0 65 65" fill="none" xmlns="http://www.w3.org/2000/svg">
<circle cx="32.5" cy="32.5" r="32.5" transform="matrix(-1 0 0 1 65 0)" fill="#D6E7FE"/>
<path d="M41.2012 39.5586C38.1803 39.5586 35.7227 37.1009 35.7227 34.0801C35.7227 31.0592 38.1803 28.6016 41.2012 28.6016C44.222 28.6016 46.6797 31.0592 46.6797 34.0801C46.6797 37.1009 44.222 39.5586 41.2012 39.5586ZM41.2012 31.1797C39.6019 31.1797 38.3008 32.4808 38.3008 34.0801C38.3008 35.6794 39.6019 36.9805 41.2012 36.9805C42.8004 36.9805 44.1016 35.6794 44.1016 34.0801C44.1016 32.4808 42.8004 31.1797 41.2012 31.1797ZM30.9531 48.7109C30.9531 47.999 30.376 47.4219 29.6641 47.4219H23.733C20.8906 47.4219 18.5781 45.1094 18.5781 42.267V24.733C18.5781 21.8906 20.8906 19.5781 23.733 19.5781H35.5964C38.4388 19.5781 40.7513 21.8906 40.7513 24.733C40.7513 25.445 41.3284 26.0221 42.0403 26.0221C42.7523 26.0221 43.3294 25.445 43.3294 24.733C43.3295 20.4691 39.8604 17 35.5951 17H23.733C19.4691 17 16 20.4691 16 24.733V42.2669C16 46.5309 19.4691 50 23.733 50H29.6641C30.376 50 30.9531 49.4229 30.9531 48.7109ZM33.0801 31.6309C33.0801 30.9189 32.503 30.3418 31.791 30.3418H25.4746C24.7627 30.3418 24.1855 30.9189 24.1855 31.6309C24.1855 32.3428 24.7627 32.9199 25.4746 32.9199H31.791C32.503 32.9199 33.0801 32.3428 33.0801 31.6309ZM33.0801 41.4922C33.0801 40.7802 32.503 40.2031 31.791 40.2031H25.4746C24.7627 40.2031 24.1855 40.7802 24.1855 41.4922C24.1855 42.2041 24.7627 42.7812 25.4746 42.7812H31.791C32.503 42.7812 33.0801 42.2041 33.0801 41.4922ZM33.0801 36.5293C33.0801 35.8173 32.503 35.2402 31.791 35.2402H25.4746C24.7627 35.2402 24.1855 35.8173 24.1855 36.5293C24.1855 37.2412 24.7627 37.8184 25.4746 37.8184H31.791C32.503 37.8184 33.0801 37.2412 33.0801 36.5293Z" fill="#013E6B"/>
<path d="M47.7109 50C46.999 50 46.4219 49.4229 46.4219 48.7109C46.4219 46.1521 44.3538 44.0703 41.8119 44.0703H40.7194C38.1774 44.0703 36.1094 46.1521 36.1094 48.7109C36.1094 49.4229 35.5323 50 34.8203 50C34.1084 50 33.5312 49.4229 33.5312 48.7109C33.5312 44.7305 36.7558 41.4922 40.7194 41.4922H41.8118C45.7754 41.4922 49 44.7305 49 48.7109C49 49.4229 48.4229 50 47.7109 50ZM35.6582 26.668C35.6582 25.956 35.0811 25.3789 34.3691 25.3789H25.4746C24.7627 25.3789 24.1855 25.956 24.1855 26.668C24.1855 27.3799 24.7627 27.957 25.4746 27.957H34.3691C35.0811 27.957 35.6582 27.3799 35.6582 26.668Z" fill="#013E6B"/>
</svg>
