<svg width="22" height="22" viewBox="0 0 22 22" fill="none" xmlns="http://www.w3.org/2000/svg">
<g clip-path="url(#clip0_1_1227)">
<path d="M21.3125 18.563H11.6875C11.308 18.563 11 18.255 11 17.8755V4.12547C11 3.74597 11.308 3.43797 11.6875 3.43797H21.3125C21.692 3.43797 22 3.74597 22 4.12547V17.8755C22 18.255 21.692 18.563 21.3125 18.563Z" fill="#ECEFF1"/>
<path d="M14.4375 7.56297H11.6875C11.308 7.56297 11 7.25497 11 6.87547C11 6.49597 11.308 6.18797 11.6875 6.18797H14.4375C14.817 6.18797 15.125 6.49597 15.125 6.87547C15.125 7.25497 14.817 7.56297 14.4375 7.56297ZM14.4375 10.313H11.6875C11.308 10.313 11 10.005 11 9.62547C11 9.24597 11.308 8.93797 11.6875 8.93797H14.4375C14.817 8.93797 15.125 9.24597 15.125 9.62547C15.125 10.005 14.817 10.313 14.4375 10.313ZM14.4375 13.063H11.6875C11.308 13.063 11 12.755 11 12.3755C11 11.996 11.308 11.688 11.6875 11.688H14.4375C14.817 11.688 15.125 11.996 15.125 12.3755C15.125 12.755 14.817 13.063 14.4375 13.063ZM14.4375 15.813H11.6875C11.308 15.813 11 15.505 11 15.1255C11 14.746 11.308 14.438 11.6875 14.438H14.4375C14.817 14.438 15.125 14.746 15.125 15.1255C15.125 15.505 14.817 15.813 14.4375 15.813ZM18.5625 7.56297H17.1875C16.808 7.56297 16.5 7.25497 16.5 6.87547C16.5 6.49597 16.808 6.18797 17.1875 6.18797H18.5625C18.942 6.18797 19.25 6.49597 19.25 6.87547C19.25 7.25497 18.942 7.56297 18.5625 7.56297ZM18.5625 10.313H17.1875C16.808 10.313 16.5 10.005 16.5 9.62547C16.5 9.24597 16.808 8.93797 17.1875 8.93797H18.5625C18.942 8.93797 19.25 9.24597 19.25 9.62547C19.25 10.005 18.942 10.313 18.5625 10.313ZM18.5625 13.063H17.1875C16.808 13.063 16.5 12.755 16.5 12.3755C16.5 11.996 16.808 11.688 17.1875 11.688H18.5625C18.942 11.688 19.25 11.996 19.25 12.3755C19.25 12.755 18.942 13.063 18.5625 13.063ZM18.5625 15.813H17.1875C16.808 15.813 16.5 15.505 16.5 15.1255C16.5 14.746 16.808 14.438 17.1875 14.438H18.5625C18.942 14.438 19.25 14.746 19.25 15.1255C19.25 15.505 18.942 15.813 18.5625 15.813Z" fill="#388E3C"/>
<path d="M12.1261 0.846094C11.9694 0.715469 11.759 0.659094 11.561 0.700344L0.561001 2.76284C0.403289 2.79198 0.260785 2.8755 0.158284 2.99885C0.0557833 3.1222 -0.000226285 3.27759 6.87126e-07 3.43797V18.563C6.87126e-07 18.893 0.235126 19.1776 0.561001 19.2381L11.561 21.3006C11.6023 21.3088 11.6449 21.313 11.6875 21.313C11.847 21.313 12.0024 21.258 12.1261 21.1548C12.204 21.0903 12.2666 21.0094 12.3097 20.9179C12.3527 20.8264 12.375 20.7266 12.375 20.6255V1.37547C12.375 1.17059 12.2843 0.976719 12.1261 0.846094Z" fill="#2E7D32"/>
<path d="M9.45447 13.2981L7.2806 10.8135L9.47922 7.98646C9.71297 7.68671 9.65797 7.25496 9.3596 7.02121C9.06122 6.78746 8.62947 6.84246 8.39435 7.14084L6.35797 9.75884L4.64197 7.79809C4.39035 7.50934 3.95585 7.48321 3.6726 7.73346C3.3866 7.98371 3.35772 8.41821 3.60797 8.70284L5.4986 10.8643L3.58185 13.3283C3.3481 13.6281 3.4031 14.0598 3.70147 14.2936C3.82276 14.3873 3.97171 14.4381 4.12497 14.438C4.32985 14.438 4.53197 14.3472 4.6681 14.1726L6.42122 11.9176L8.42048 14.2015C8.48457 14.2757 8.56394 14.3353 8.65316 14.3761C8.74238 14.417 8.83936 14.438 8.93747 14.438C9.09835 14.438 9.25922 14.3816 9.38985 14.2675C9.67585 14.0172 9.70472 13.5827 9.45447 13.2981Z" fill="#FAFAFA"/>
</g>
<defs>
<clipPath id="clip0_1_1227">
<rect width="22" height="22" fill="white"/>
</clipPath>
</defs>
</svg>
