<svg width="178" height="53" viewBox="0 0 178 53" fill="none" xmlns="http://www.w3.org/2000/svg">
<g id="Group 1171275130">
<path id="Vector" d="M133.008 24.9475L128.686 26.8629C127.462 24.5224 126.813 21.9778 126.78 19.3975H131.603C131.635 21.3137 132.114 23.2034 133.008 24.9475Z" fill="white"/>
<path id="Vector_2" d="M168.039 19.3975C168.006 22.0072 167.341 24.5801 166.089 26.9414L161.776 25.0207C162.692 23.256 163.184 21.3407 163.219 19.3975H168.039Z" fill="white"/>
<path id="Vector_3" d="M133.414 12.6099C132.438 14.247 131.843 16.0419 131.664 17.8877H126.821C127.031 15.1457 127.938 12.4816 129.473 10.0952L133.414 12.6099Z" fill="white"/>
<path id="Vector_4" d="M146.009 31.8768L146.195 36.1603C143.29 36.1867 140.412 35.6659 137.751 34.6322L139.737 30.728C141.716 31.4909 143.852 31.882 146.009 31.8768Z" fill="white"/>
<path id="Vector_5" d="M133.514 26.4707C134.792 27.9372 136.391 29.1592 138.213 30.0634L136.222 33.9885C133.492 32.6951 131.129 30.8681 129.31 28.6452L133.514 26.4707Z" fill="white"/>
<path id="Vector_6" d="M139.224 7.13067C137.258 8.19327 135.573 9.62157 134.287 11.3174L130.371 8.82107C132.012 6.68939 134.139 4.88769 136.614 3.53271L139.224 7.13067Z" fill="white"/>
<path id="Vector_7" d="M161.291 12.6099C162.269 14.2465 162.864 16.0417 163.041 17.8877H167.878C167.67 15.1455 166.763 12.4811 165.227 10.0952L161.291 12.6099Z" fill="white"/>
<path id="Vector_8" d="M155.478 7.13067C157.445 8.19247 159.13 9.62093 160.416 11.3174L164.331 8.82107C162.69 6.68939 160.563 4.88769 158.088 3.53271L155.478 7.13067Z" fill="white"/>
<path id="Vector_9" d="M146.401 5.13674C144.437 5.24158 142.512 5.67482 140.729 6.41369L138.101 2.78695C140.645 1.64118 143.431 0.981544 146.28 0.850586L146.401 5.13674Z" fill="white"/>
<path id="Vector_10" d="M156.827 2.83122L154.199 6.45797C152.29 5.65256 150.218 5.19607 148.106 5.1156L147.977 0.824219C151.058 0.898324 154.082 1.58408 156.827 2.83122Z" fill="white"/>
<path id="Vector_11" d="M173.19 32.23L173.331 31.691C173.331 31.691 175.688 31.2488 176.041 29.8881C176.395 28.5274 173.26 27.991 173.26 27.991C173.26 27.991 170.609 27.2897 170.37 29.6343V30.0634L164.133 24.8457H153.121L153.085 26.5309H163.208L169.834 32.6801H163.647V31.8558H153.085V39.0099H163.921C163.921 39.0099 165.81 39.2323 164.805 40.6584L161.986 44.1098H153.085V50.28H176.148V48.5111L177.538 46.6088V37.2986L173.19 32.23ZM173.252 47.5456C173.252 47.5456 172.851 47.8543 171.46 47.8543C170.07 47.8543 165.603 47.713 165.603 47.713C165.603 47.713 167.153 44.2956 172.047 44.573C176.94 44.8504 173.252 47.5456 173.252 47.5456ZM173.387 41.3963H167.342C167.342 41.3963 165.633 41.1817 167.153 39.6143L171.325 36.8851C171.325 36.8851 174.722 35.2471 175.765 38.026C176.807 40.8049 173.387 41.3963 173.387 41.3963Z" fill="white"/>
<path id="Vector_12" d="M128.989 41.7911H141.893V37.3584H128.989C128.327 37.3584 127.692 37.5919 127.224 38.0075C126.756 38.4232 126.493 38.9869 126.493 39.5747C126.493 40.1625 126.756 40.7263 127.224 41.1419C127.692 41.5576 128.327 41.7911 128.989 41.7911Z" fill="white"/>
<path id="Vector_13" d="M119.509 48.5657H142.035V44.1356H119.509C119.174 44.1254 118.841 44.1751 118.528 44.2818C118.215 44.3885 117.93 44.55 117.689 44.7567C117.448 44.9634 117.257 45.2111 117.126 45.4849C116.995 45.7587 116.928 46.0531 116.928 46.3506C116.928 46.6481 116.995 46.9425 117.126 47.2163C117.257 47.4902 117.448 47.7378 117.689 47.9445C117.93 48.1512 118.215 48.3127 118.528 48.4194C118.841 48.5261 119.174 48.5759 119.509 48.5657Z" fill="white"/>
<path id="Vector_14" d="M151.68 12.6676V16.6555C151.262 17.3184 150.652 17.8703 149.914 18.2545C149.176 18.6387 148.336 18.8412 147.48 18.8412C146.625 18.8412 145.784 18.6387 145.046 18.2545C144.308 17.8703 143.699 17.3184 143.28 16.6555V12.4688C140.464 14.0388 139.006 16.9171 139.592 19.6411C140.308 22.9434 143.678 24.3878 144.032 24.5343V48.4169C144.083 49.2048 144.472 49.9453 145.118 50.4868C145.765 51.0284 146.62 51.33 147.508 51.33C148.397 51.33 149.251 51.0284 149.898 50.4868C150.544 49.9453 150.933 49.2048 150.985 48.4169V24.4899C151.397 24.3015 154.396 22.8675 155.109 19.7798C155.707 17.1317 154.358 14.3161 151.68 12.6676ZM148.256 47.8308C148.256 48.064 148.152 48.2876 147.966 48.4525C147.781 48.6174 147.529 48.71 147.267 48.71C147.004 48.71 146.752 48.6174 146.567 48.4525C146.381 48.2876 146.277 48.064 146.277 47.8308V24.8457C146.277 24.6135 146.382 24.3909 146.567 24.2266C146.751 24.0624 147.002 23.9698 147.264 23.9691C147.528 23.9707 147.781 24.0647 147.968 24.2308C148.061 24.3118 148.134 24.4082 148.185 24.5147C148.235 24.6211 148.262 24.7354 148.262 24.851L148.256 47.8308Z" fill="white"/>
<path id="Vector_15" d="M86.9719 11.7042H90.5338C90.7812 11.7042 90.905 11.5943 90.905 11.3745V8.54064C90.905 8.32083 90.7812 8.21094 90.5338 8.21094H86.9719C86.7244 8.21094 86.6007 8.32083 86.6007 8.54064V11.3745C86.6007 11.5943 86.7244 11.7042 86.9719 11.7042Z" fill="white"/>
<path id="Vector_16" d="M106.381 8.21094H102.816C102.569 8.21094 102.445 8.32083 102.445 8.54064V11.3745C102.445 11.5943 102.569 11.7042 102.816 11.7042H106.378C106.626 11.7042 106.749 11.5943 106.749 11.3745V8.54064C106.752 8.32083 106.629 8.21094 106.381 8.21094Z" fill="white"/>
<path id="Vector_17" d="M106.307 15.0015H102.854C102.606 15.0015 102.483 15.1114 102.483 15.3312V23.6706C102.483 24.33 102.341 24.7853 102.056 25.0391C101.77 25.293 101.319 25.4186 100.7 25.4186H98.8825C98.8501 25.4186 98.8177 25.4212 98.7883 25.4238C98.7559 25.4238 98.7293 25.4186 98.6969 25.4186H93.4263C94.3661 24.8481 95.1145 24.1154 95.6713 23.2258C96.2281 22.3361 96.505 21.3522 96.505 20.2768C96.505 18.4974 95.8363 17.0739 94.5017 16.0089C93.1671 14.9439 91.2344 14.4101 88.7125 14.4101C86.1907 14.4101 84.258 14.9439 82.9234 16.0089C81.5889 17.0739 80.9201 18.4974 80.9201 20.2768C80.9201 21.3548 81.197 22.3361 81.7538 23.2258C82.3106 24.1154 83.0472 24.8455 83.9634 25.4186H78.7311H78.1007C77.1844 25.4186 76.4626 25.2537 75.9294 24.924C75.3961 24.5943 75.0956 24.1338 75.019 23.5398C75.019 23.4089 75.0249 23.2755 75.0367 23.1447C75.0485 23.0138 75.0544 22.8699 75.0544 22.7155C75.0544 21.5956 74.913 20.5358 74.6272 19.5336C74.3414 18.534 73.8671 17.6548 73.1983 16.896C72.5296 16.1371 71.6398 15.5327 70.5262 15.0826C69.4126 14.6325 68.0279 14.4075 66.3692 14.4075C64.8343 14.4075 63.5351 14.6613 62.4715 15.1663C61.408 15.6714 60.4917 16.3098 59.7257 17.0791C59.5784 17.21 59.602 17.3644 59.7994 17.5397L61.7291 19.319C61.9029 19.4499 62.0767 19.4394 62.2476 19.285C62.7661 18.8009 63.3613 18.4163 64.03 18.1311C64.6988 17.8458 65.4412 17.7019 66.2573 17.7019C67.0969 17.7019 67.7981 17.8275 68.3549 18.0813C68.9117 18.3352 69.3625 18.6806 69.7101 19.1202C70.0548 19.5598 70.3052 20.0753 70.4525 20.6693C70.5999 21.2633 70.6765 21.9122 70.6765 22.6135C70.6765 23.142 70.6382 23.5869 70.5645 23.948C70.4908 24.3117 70.3406 24.6022 70.1196 24.822C69.8957 25.0418 69.5864 25.1961 69.1916 25.2825C68.7968 25.3715 68.2754 25.4133 67.6331 25.4133H57.7607H57.1302C56.1904 25.4133 55.448 25.238 54.903 24.8848C54.3579 24.5341 54.0751 24.0265 54.0486 23.3697C54.0486 23.2388 54.0545 23.0792 54.0663 22.8908C54.078 22.7051 54.0839 22.5009 54.0839 22.2811C54.0839 21.0958 53.916 20.0125 53.5831 19.0338C53.2502 18.0552 52.7169 17.2257 51.9863 16.5453C51.2557 15.865 50.3159 15.3364 49.1669 14.9622C48.0179 14.5881 46.6362 14.4023 45.0276 14.4023C43.5192 14.4023 42.0579 14.5828 40.6497 14.9465C39.2385 15.3103 37.954 15.742 36.7903 16.2497V15.1951C36.7903 14.9753 36.6665 14.8654 36.419 14.8654H32.9662C32.7187 14.8654 32.595 14.9753 32.595 15.1951V21.9855C32.595 22.446 32.5832 22.8856 32.5567 23.3043C32.5331 23.7229 32.4654 24.0893 32.3534 24.4085C32.2415 24.7278 32.0617 24.9737 31.8143 25.1491C31.5668 25.3244 31.2074 25.4133 30.7389 25.4133H29.0685H29.0302H25.2827C25.6039 24.9737 25.9014 24.3483 26.1725 23.5345C26.4435 22.7207 26.582 21.8965 26.582 21.0618C26.582 19.8764 26.3905 18.8585 26.0075 18.0133C25.6245 17.1681 25.0912 16.4799 24.4107 15.954C23.7301 15.4254 22.92 15.0355 21.9801 14.7843C21.0403 14.5331 20.0121 14.4049 18.8985 14.4049C17.9322 14.4049 16.9983 14.5305 16.0968 14.7843C15.1923 15.0381 14.4027 15.4489 13.7222 16.0194C13.0416 16.5898 12.4907 17.3382 12.0694 18.2619C11.6481 19.1856 11.4389 20.316 11.4389 21.6558V25.4133H7.80345H6.50421C5.88553 25.4133 5.43477 25.2877 5.149 25.0339C4.86322 24.7827 4.72181 24.3248 4.72181 23.6654V6.59143C4.72181 6.37162 4.59807 6.26172 4.3506 6.26172H0.909539C0.662065 6.26172 0.53833 6.37162 0.53833 6.59143V24.5237C0.53833 25.9524 0.871239 27.0017 1.54001 27.6715C2.20877 28.3414 3.3224 28.6764 4.8809 28.6764H7.81228H11.4478V30.5892C11.4478 31.5129 11.6275 32.2979 11.9869 32.9468C12.3463 33.5958 12.859 34.1217 13.5277 34.5299C14.1965 34.9355 14.9949 35.2338 15.92 35.4196C16.848 35.6054 17.8792 35.6996 19.0193 35.6996C21.2466 35.6996 23.0083 35.294 24.3076 34.4802C25.6068 33.6664 26.255 32.502 26.255 30.9869C26.255 30.0868 25.9957 29.3174 25.4742 28.679H29.0361H29.0744H32.1177C32.76 28.679 33.3227 28.645 33.8058 28.5795C34.289 28.5141 34.728 28.3597 35.1227 28.119C35.3702 28.2498 35.6737 28.3493 36.0331 28.4147C36.3925 28.4801 36.7696 28.5351 37.1644 28.5795C37.5592 28.624 37.9687 28.6502 38.39 28.6607C38.8113 28.6711 39.2178 28.6764 39.6156 28.6764H46.9278C48.56 28.6764 49.8769 28.5508 50.8815 28.2969C51.8832 28.0457 52.6433 27.4779 53.1648 26.5987C53.5595 27.4334 54.1605 27.9882 54.9648 28.2629C55.7691 28.5377 56.703 28.6737 57.7666 28.6737H69.2328C70.4201 28.6737 71.4277 28.5377 72.2585 28.2629C73.0864 27.9882 73.7375 27.4779 74.2059 26.7295C74.6272 27.5433 75.2253 28.0693 76.006 28.3126C76.7867 28.556 77.6941 28.6764 78.7341 28.6764H83.6688C84.3847 28.6764 85.2096 28.6423 86.1376 28.5769C87.0657 28.5115 87.9377 28.2812 88.7538 27.8835C89.4697 28.2786 90.2269 28.5089 91.0164 28.5769C91.8089 28.6423 92.6486 28.6764 93.5412 28.6764H98.6999C98.7264 28.6764 98.747 28.6711 98.7706 28.6711C98.8089 28.6711 98.8442 28.6764 98.8825 28.6764H102.335C103.894 28.6764 105.008 28.3414 105.676 27.6715C106.345 27.0017 106.678 25.9524 106.678 24.5237V15.326C106.678 15.1114 106.551 15.0015 106.307 15.0015ZM21.4115 32.01C20.9284 32.3397 20.1064 32.5046 18.9427 32.5046C16.6919 32.5046 15.5665 31.7693 15.5665 30.2961V28.5481H18.6481C19.364 28.5481 19.9532 28.5926 20.4099 28.679C20.8665 28.7653 21.2259 28.8988 21.4852 29.0741C21.7445 29.2494 21.9183 29.464 22.0037 29.7178C22.0891 29.969 22.1333 30.2621 22.1333 30.5918C22.1363 31.2067 21.8947 31.6803 21.4115 32.01ZM22.2836 22.9615C22.1599 23.4351 21.9684 23.8512 21.7091 24.2149C21.4498 24.5786 21.114 24.8743 20.7074 25.1046C20.2979 25.3348 19.8118 25.45 19.2403 25.45H15.5665V21.3287C15.5665 20.1433 15.8699 19.2405 16.4768 18.6256C17.0837 18.0107 17.9057 17.7019 18.9457 17.7019C20.0828 17.7019 20.9549 18.0212 21.5618 18.657C22.1687 19.2955 22.4721 20.2401 22.4721 21.4909C22.4692 22.0012 22.4073 22.4879 22.2836 22.9615ZM49.5234 24.016C49.3996 24.4661 49.158 24.7958 48.7986 25.0051C48.4392 25.2145 47.9325 25.3348 47.2784 25.3688C46.6214 25.4029 45.7612 25.4186 44.7006 25.4186H36.6459C36.696 25.1988 36.7313 24.9685 36.7578 24.7251C36.7814 24.4844 36.7962 24.2306 36.7962 23.9663V19.4839C37.8361 19.0443 39.0234 18.6387 40.358 18.2645C41.6926 17.8903 43.0537 17.7045 44.4413 17.7045C45.4813 17.7045 46.3327 17.804 47.0015 18.0002C47.6702 18.1991 48.2064 18.4843 48.616 18.8585C49.0255 19.2327 49.3083 19.6932 49.4703 20.2427C49.6324 20.7922 49.7119 21.4176 49.7119 22.1215C49.709 22.9327 49.6471 23.5659 49.5234 24.016ZM91.202 23.2572C90.5097 23.9506 89.6818 24.4818 88.7155 24.856C87.7256 24.4818 86.883 23.9506 86.1907 23.2572C85.4983 22.5637 85.1507 21.6584 85.1507 20.5384C85.1507 19.4839 85.5042 18.6884 86.2084 18.1494C86.9125 17.6103 87.7492 17.3408 88.7125 17.3408C89.6759 17.3408 90.5067 17.6103 91.1991 18.1494C91.8914 18.6884 92.2391 19.4839 92.2391 20.5384C92.2391 21.6584 91.8944 22.5664 91.202 23.2572Z" fill="white"/>
<path id="Vector_18" d="M17.9758 37.2773H16.7708C16.6441 37.2773 16.5822 37.3323 16.5822 37.4448V48.4716C16.5822 48.5841 16.6441 48.639 16.7708 48.639H17.9758C18.0995 48.639 18.1643 48.5841 18.1643 48.4716V37.4448C18.1643 37.3323 18.1024 37.2773 17.9758 37.2773Z" fill="white"/>
<path id="Vector_19" d="M31.4282 50.1934H30.1496C30.0229 50.1934 29.961 50.2483 29.961 50.3608V51.5802C29.961 51.6927 30.0229 51.7477 30.1496 51.7477H31.4282C31.5519 51.7477 31.6167 51.6927 31.6167 51.5802V50.3608C31.6167 50.2483 31.5519 50.1934 31.4282 50.1934Z" fill="white"/>
<path id="Vector_20" d="M23.0199 41.8042H21.815C21.6883 41.8042 21.6264 41.8592 21.6264 41.9717V49.2409C21.6264 50.1881 21.1197 50.6617 20.1033 50.6617H19.6702C19.5435 50.6617 19.4817 50.7167 19.4817 50.8292V51.7974C19.4817 51.9099 19.5435 51.9648 19.6702 51.9648H20.1769C21.1668 51.9648 21.921 51.732 22.4337 51.2636C22.9463 50.7952 23.2056 50.1096 23.2056 49.2095V41.9743C23.2056 41.8618 23.1437 41.8042 23.0199 41.8042Z" fill="white"/>
<path id="Vector_21" d="M14.0075 41.8042H12.8025C12.6759 41.8042 12.614 41.8592 12.614 41.9717V46.4488C12.614 46.7838 12.5403 47.0141 12.3989 47.1423C12.2546 47.2705 12.0189 47.3333 11.6948 47.3333H3.19231C2.88002 47.3333 2.65023 47.2705 2.50587 47.1423C2.36151 47.0141 2.2908 46.7838 2.2908 46.4488V43.0393C2.2908 42.9268 2.22893 42.8718 2.10225 42.8718H0.897291C0.770608 42.8718 0.70874 42.9268 0.70874 43.0393V46.5326C0.70874 47.2574 0.876669 47.7886 1.21547 48.1288C1.55428 48.4689 2.11698 48.639 2.90949 48.639H11.957C12.7731 48.639 13.3505 48.4689 13.6864 48.1288C14.0252 47.7886 14.1931 47.2574 14.1931 46.5326V41.9717C14.196 41.8618 14.1342 41.8042 14.0075 41.8042Z" fill="white"/>
<path id="Vector_22" d="M5.69445 41.1368H6.97306C7.09974 41.1368 7.16161 41.0819 7.16161 40.9694V39.75C7.16161 39.6375 7.09974 39.5825 6.97306 39.5825H5.69445C5.56776 39.5825 5.50589 39.6375 5.50589 39.75V40.9694C5.50589 41.0819 5.56776 41.1368 5.69445 41.1368Z" fill="white"/>
<path id="Vector_23" d="M68.7492 39.4835H70.0278C70.1545 39.4835 70.2164 39.4286 70.2164 39.316V38.0967C70.2164 37.9868 70.1545 37.9292 70.0278 37.9292H68.7492C68.6225 37.9292 68.5607 37.9842 68.5607 38.0967V39.316C68.5607 39.4259 68.6225 39.4835 68.7492 39.4835Z" fill="white"/>
<path id="Vector_24" d="M106.431 37.2777H105.226C105.099 37.2777 105.037 37.3327 105.037 37.4452V46.4518C105.037 46.7868 104.964 47.0171 104.822 47.1453C104.678 47.2735 104.448 47.3363 104.136 47.3363H102.952H102.745C102.23 47.3363 101.82 47.2421 101.514 47.0511C101.207 46.8627 101.054 46.5775 101.054 46.198C101.054 46.1091 101.057 45.9992 101.063 45.8709C101.069 45.7427 101.072 45.6067 101.072 45.4627C101.072 44.9289 101.004 44.4213 100.866 43.9424C100.727 43.4636 100.486 43.0423 100.141 42.6812C99.7963 42.3201 99.3338 42.0322 98.7593 41.8203C98.1818 41.6083 97.4541 41.5037 96.5762 41.5037C95.7866 41.5037 95.0148 41.6031 94.2635 41.8046C93.5123 42.0061 92.8287 42.2494 92.213 42.5399V41.9721C92.213 41.8622 92.1511 41.8046 92.0245 41.8046H90.8195C90.6928 41.8046 90.6309 41.8595 90.6309 41.9721V46.4492C90.6309 46.7842 90.5573 47.0144 90.4159 47.1427C90.2715 47.2709 90.0417 47.3337 89.7294 47.3337H88.5451H88.3183C87.8027 47.3337 87.3932 47.2395 87.0868 47.0485C86.7804 46.8601 86.6272 46.5748 86.6272 46.1954V41.9694C86.6272 41.8595 86.5653 41.802 86.4386 41.802H85.2337C85.107 41.802 85.0451 41.8569 85.0451 41.9694V46.4466C85.0451 46.7815 84.9715 47.0118 84.83 47.14C84.6857 47.2683 84.4559 47.331 84.1436 47.331H82.865C82.8385 47.331 82.8179 47.3337 82.7943 47.3337C82.7737 47.3337 82.756 47.331 82.7324 47.331H81.9046C81.5923 47.331 81.3625 47.2683 81.2181 47.14C81.0738 47.0118 81.0031 46.7815 81.0031 46.4466V37.4399C81.0031 37.33 80.9412 37.2725 80.8145 37.2725H79.6095C79.4829 37.2725 79.421 37.3274 79.421 37.4399V46.5303C79.421 47.2552 79.5889 47.7864 79.9277 48.1265C80.2665 48.4667 80.8292 48.6368 81.6217 48.6368H82.7324C82.756 48.6368 82.7796 48.6342 82.8031 48.6342C82.8237 48.6342 82.8444 48.6368 82.865 48.6368H84.4264C85.4163 48.6368 86.0704 48.3463 86.3827 47.768C86.5447 48.0585 86.7774 48.2757 87.0779 48.4196C87.3784 48.5635 87.729 48.6368 88.1326 48.6368H88.5451H90.0123C90.5396 48.6368 90.958 48.5635 91.2732 48.4196C91.3999 48.5635 91.612 48.6368 91.9125 48.6368H98.2319C98.8477 48.6368 99.3514 48.5583 99.7462 48.4039C100.141 48.2469 100.444 47.98 100.66 47.6032C100.798 47.9381 101.04 48.1946 101.384 48.3725C101.729 48.5504 102.121 48.6394 102.56 48.6394H102.955H104.422C105.211 48.6394 105.777 48.4693 106.116 48.1292C106.455 47.789 106.622 47.2578 106.622 46.533V37.4426C106.617 37.3327 106.555 37.2777 106.431 37.2777ZM99.3279 46.376C99.2837 46.6272 99.1983 46.8208 99.0745 46.9595C98.9478 47.0982 98.774 47.195 98.5472 47.2526C98.3203 47.3075 98.0316 47.3363 97.681 47.3363H92.1129C92.1747 47.0799 92.2071 46.8129 92.2071 46.5356V43.843C92.4841 43.72 92.7875 43.597 93.1204 43.4767C93.4533 43.3537 93.8039 43.2438 94.1751 43.1417C94.5463 43.0423 94.9234 42.9612 95.3123 42.8984C95.7012 42.8382 96.0842 42.8068 96.4584 42.8068C97.024 42.8068 97.4924 42.8643 97.8696 42.9821C98.2467 43.0998 98.5472 43.2699 98.7711 43.4924C98.9979 43.7148 99.157 43.9869 99.2513 44.3114C99.3456 44.6359 99.3927 45.0022 99.3927 45.413C99.3956 45.8029 99.3721 46.1248 99.3279 46.376Z" fill="white"/>
<path id="Vector_25" d="M7.98909 41.1368H9.2677C9.39439 41.1368 9.45625 41.0819 9.45625 40.9694V39.75C9.45625 39.6375 9.39439 39.5825 9.2677 39.5825H7.98909C7.86241 39.5825 7.80054 39.6375 7.80054 39.75V40.9694C7.80054 41.0819 7.86241 41.1368 7.98909 41.1368Z" fill="white"/>
<path id="Vector_26" d="M66.4551 39.4835H67.7337C67.8604 39.4835 67.9223 39.4286 67.9223 39.316V38.0967C67.9223 37.9868 67.8604 37.9292 67.7337 37.9292H66.4551C66.3284 37.9292 66.2665 37.9842 66.2665 38.0967V39.316C66.2665 39.4259 66.3284 39.4835 66.4551 39.4835Z" fill="white"/>
<path id="Vector_27" d="M85.0976 50.1934H83.819C83.6923 50.1934 83.6304 50.2483 83.6304 50.3608V51.5802C83.6304 51.6927 83.6923 51.7477 83.819 51.7477H85.0976C85.2213 51.7477 85.2861 51.6927 85.2861 51.5802V50.3608C85.2861 50.2483 85.2213 50.1934 85.0976 50.1934Z" fill="white"/>
<path id="Vector_28" d="M87.3928 50.1934H86.1142C85.9875 50.1934 85.9256 50.2483 85.9256 50.3608V51.5802C85.9256 51.6927 85.9875 51.7477 86.1142 51.7477H87.3928C87.5165 51.7477 87.5813 51.6927 87.5813 51.5802V50.3608C87.5813 50.2483 87.5165 50.1934 87.3928 50.1934Z" fill="white"/>
<path id="Vector_29" d="M77.008 38.5962H75.7294C75.6027 38.5962 75.5408 38.6511 75.5408 38.7637V39.9831C75.5408 40.0956 75.6027 40.1505 75.7294 40.1505H77.008C77.1347 40.1505 77.1966 40.0956 77.1966 39.9831V38.7637C77.1966 38.6538 77.1347 38.5962 77.008 38.5962Z" fill="white"/>
<path id="Vector_30" d="M53.7012 37.2774H52.4962C52.3695 37.2774 52.3077 37.3323 52.3077 37.4448V46.4515C52.3077 46.7865 52.234 47.0167 52.0926 47.1449C51.9482 47.2732 51.7185 47.336 51.4062 47.336H50.2218H50.0156C49.5 47.336 49.0905 47.2418 48.7841 47.0507C48.4777 46.8623 48.3245 46.5771 48.3245 46.1977V41.9717C48.3245 41.8618 48.2627 41.8043 48.136 41.8043H46.931C46.8043 41.8043 46.7425 41.8592 46.7425 41.9717V46.4489C46.7425 46.7838 46.6688 47.0141 46.5274 47.1423C46.383 47.2705 46.1532 47.3333 45.841 47.3333H45.4079C44.907 47.3333 44.4975 47.2444 44.1852 47.0664C43.8729 46.8885 43.7139 46.6216 43.7139 46.2657V43.4083C43.7139 43.2984 43.652 43.2408 43.5253 43.2408H42.3204C42.1937 43.2408 42.1318 43.2958 42.1318 43.4083V46.4489C42.1318 46.7838 42.0581 47.0141 41.9167 47.1423C41.7724 47.2705 41.5426 47.3333 41.2303 47.3333H40.7589C40.2581 47.3333 39.8574 47.2392 39.5539 47.0481C39.2534 46.8597 39.1032 46.5745 39.1032 46.1951V43.4057C39.1032 43.2958 39.0413 43.2382 38.9146 43.2382H37.7097C37.583 43.2382 37.5211 43.2932 37.5211 43.4057V46.4463C37.5211 46.7812 37.4475 47.0115 37.3061 47.1397C37.1617 47.2679 36.9319 47.3307 36.6196 47.3307H34.8696H34.6428C34.1272 47.3307 33.7177 47.2365 33.4113 47.0455C33.1049 46.8571 32.9517 46.5719 32.9517 46.1925V41.9665C32.9517 41.8566 32.8898 41.799 32.7632 41.799H31.5582C31.4315 41.799 31.3696 41.854 31.3696 41.9665V46.4437C31.3696 46.7786 31.296 47.0089 31.1546 47.1371C31.0102 47.2653 30.7804 47.3281 30.4681 47.3281H29.1895C29.163 47.3281 29.1424 47.3307 29.1188 47.3307C29.0982 47.3307 29.0805 47.3281 29.0569 47.3281H28.2291C27.9168 47.3281 27.687 47.2653 27.5426 47.1371C27.3983 47.0089 27.3276 46.7786 27.3276 46.4437V37.437C27.3276 37.3271 27.2657 37.2695 27.139 37.2695H25.9341C25.8074 37.2695 25.7455 37.3245 25.7455 37.437V46.5274C25.7455 47.2522 25.9134 47.7834 26.2522 48.1236C26.591 48.4638 27.1538 48.6338 27.9463 48.6338H29.0569C29.0805 48.6338 29.1041 48.6312 29.1277 48.6312C29.1483 48.6312 29.1689 48.6338 29.1895 48.6338H30.751C31.7409 48.6338 32.3949 48.3434 32.7072 47.7651C32.8692 48.0556 33.102 48.2727 33.4025 48.4167C33.703 48.5606 34.0536 48.6338 34.4572 48.6338H34.8696H36.9024C37.8923 48.6338 38.5464 48.3434 38.8587 47.7651C39.0207 48.0556 39.2534 48.2727 39.5539 48.4167C39.8545 48.5606 40.205 48.6338 40.6087 48.6338H41.5102C42.5001 48.6338 43.1541 48.3434 43.4664 47.7651C43.6284 48.0556 43.8612 48.2727 44.1617 48.4167C44.4622 48.5606 44.8128 48.6338 45.2164 48.6338H46.1179C47.1078 48.6338 47.7618 48.3434 48.0741 47.7651C48.2361 48.0556 48.4689 48.2727 48.7694 48.4167C49.0699 48.5606 49.4205 48.6338 49.8241 48.6338H50.2189H51.686C52.4756 48.6338 53.0413 48.4638 53.3801 48.1236C53.7189 47.7834 53.8868 47.2522 53.8868 46.5274V37.437C53.8897 37.3323 53.8249 37.2774 53.7012 37.2774Z" fill="white"/>
<path id="Vector_31" d="M76.969 41.8042H75.7641C75.6374 41.8042 75.5755 41.8591 75.5755 41.9717V46.4488C75.5755 46.7838 75.5019 47.014 75.3604 47.1423C75.2161 47.2705 74.9863 47.3333 74.674 47.3333H73.4897C73.4631 47.3333 73.4425 47.3359 73.4189 47.3359C73.3983 47.3359 73.3806 47.3333 73.3571 47.3333H72.5292C72.2169 47.3333 71.9871 47.2705 71.8428 47.1423C71.6984 47.014 71.6277 46.7838 71.6277 46.4488V40.7837C71.6277 40.6712 71.5658 40.6162 71.4392 40.6162H70.2342C70.1075 40.6162 70.0456 40.6712 70.0456 40.7837V41.5033H68.2014C67.7359 41.5033 67.2881 41.5608 66.855 41.6786C66.4219 41.7963 66.0419 41.9847 65.7178 42.2464C65.3908 42.5081 65.1286 42.8509 64.9282 43.2748C64.7279 43.6987 64.6277 44.222 64.6277 44.8448C64.6277 45.3681 64.7161 45.8234 64.8899 46.2055C65.0667 46.5901 65.3053 46.9068 65.6147 47.158C65.9211 47.4092 66.2864 47.5949 66.7048 47.7179C67.126 47.8409 67.5798 47.9011 68.0688 47.9011C68.4813 47.9011 68.8643 47.8514 69.2148 47.752C69.5654 47.6525 69.8659 47.5007 70.1163 47.3019C70.2283 47.7807 70.4581 48.1235 70.8028 48.3302C71.1475 48.537 71.6277 48.639 72.2405 48.639H73.3512C73.3748 48.639 73.3983 48.6364 73.4219 48.6364C73.4425 48.6364 73.4631 48.639 73.4838 48.639H74.9509C75.7405 48.639 76.3061 48.4689 76.6449 48.1288C76.9837 47.7886 77.1517 47.2574 77.1517 46.5326V41.9717C77.1576 41.8618 77.0957 41.8042 76.969 41.8042ZM70.0486 44.4785C70.0486 45.1457 69.9013 45.6664 69.6067 46.0406C69.3121 46.4148 68.8083 46.6006 68.0924 46.6006C67.4914 46.6006 67.0259 46.4541 66.6989 46.1584C66.3718 45.8627 66.2098 45.4257 66.2098 44.8474C66.2098 44.0781 66.3954 43.5469 66.7637 43.2512C67.1349 42.9555 67.6122 42.809 68.2014 42.809H70.0456V44.4785H70.0486Z" fill="white"/>
<path id="Vector_32" d="M33.7234 50.1934H32.4447C32.3181 50.1934 32.2562 50.2483 32.2562 50.3608V51.5802C32.2562 51.6927 32.3181 51.7477 32.4447 51.7477H33.7234C33.8471 51.7477 33.9119 51.6927 33.9119 51.5802V50.3608C33.9119 50.2483 33.8471 50.1934 33.7234 50.1934Z" fill="white"/>
<path id="Vector_33" d="M57.9135 37.2773H56.7086C56.5819 37.2773 56.52 37.3323 56.52 37.4448V48.4716C56.52 48.5841 56.5819 48.639 56.7086 48.639H57.9135C58.0373 48.639 58.1021 48.5841 58.1021 48.4716V37.4448C58.1021 37.3323 58.0402 37.2773 57.9135 37.2773Z" fill="white"/>
<path id="Vector_34" d="M151.509 13.5203V17.5081C150.657 18.8479 149.063 19.6852 147.337 19.6905C145.59 19.6983 143.97 18.861 143.112 17.5081V13.3267C140.293 14.9071 138.838 17.775 139.424 20.499C140.14 23.8013 143.513 25.2457 143.864 25.3896V49.2748C144.014 50.8527 145.44 52.0826 147.125 52.1715C148.96 52.2683 150.64 50.9966 150.813 49.2748V25.3425C151.229 25.1541 154.228 23.7202 154.929 20.6403C155.536 17.9844 154.187 15.1688 151.509 13.5203ZM148.085 48.6835C148.085 49.1676 147.641 49.5601 147.093 49.5601C146.547 49.5601 146.103 49.165 146.103 48.6835V25.6984C146.103 25.2143 146.547 24.8218 147.093 24.8218C147.364 24.8218 147.617 24.9212 147.797 25.0782C147.976 25.2379 148.085 25.4577 148.085 25.6984V48.6835Z" fill="white"/>
</g>
</svg>
