<svg width="153" height="140" viewBox="0 0 153 140" fill="none" xmlns="http://www.w3.org/2000/svg">
<g clip-path="url(#clip0_1_992)">
<path d="M73.2555 130.808C56.4667 130.808 40.3655 124.401 28.494 112.997C16.6225 101.592 9.95321 86.1243 9.95321 69.9958C9.95321 53.8674 16.6225 38.3995 28.494 26.9949C40.3655 15.5904 56.4667 9.18335 73.2555 9.18335C90.0443 9.18335 106.145 15.5904 118.017 26.9949C129.888 38.3995 136.558 53.8674 136.558 69.9958C136.558 86.1243 129.888 101.592 118.017 112.997C106.145 124.401 90.0443 130.808 73.2555 130.808ZM73.2555 139.496C92.4427 139.496 110.844 132.174 124.411 119.14C137.979 106.106 145.601 88.4284 145.601 69.9958C145.601 51.5633 137.979 33.8857 124.411 20.8519C110.844 7.81815 92.4427 0.49585 73.2555 0.49585C54.0683 0.49585 35.6669 7.81815 22.0995 20.8519C8.53212 33.8857 0.910034 51.5633 0.910034 69.9958C0.910034 88.4284 8.53212 106.106 22.0995 119.14C35.6669 132.174 54.0683 139.496 73.2555 139.496Z" fill="#FFE9E9"/>
<path d="M57.6198 44.4111C58.3594 44.0453 59.1897 43.8825 60.0193 43.9408C60.849 43.999 61.6459 44.276 62.3222 44.7413L93.9734 66.46C94.5595 66.8618 95.0373 67.3923 95.3669 68.0073C95.6965 68.6223 95.8685 69.3041 95.8685 69.9958C95.8685 70.6876 95.6965 71.3693 95.3669 71.9843C95.0373 72.5993 94.5595 73.1298 93.9734 73.5316L62.3222 95.2504C61.6461 95.7152 60.8496 95.992 60.0204 96.0503C59.1911 96.1085 58.3612 95.946 57.6219 95.5805C56.8826 95.2151 56.2625 94.6609 55.8297 93.9788C55.397 93.2968 55.1684 92.5133 55.1691 91.7146V48.2771C55.1682 47.4785 55.3965 46.6952 55.8288 46.0132C56.2612 45.3312 56.8808 44.7769 57.6198 44.4111Z" fill="#FFE9E9"/>
</g>
<defs>
<clipPath id="clip0_1_992">
<rect width="151.18" height="139" fill="white" transform="translate(0.910034 0.49585)"/>
</clipPath>
</defs>
</svg>
