<svg width="156" height="162" viewBox="0 0 156 162" fill="none" xmlns="http://www.w3.org/2000/svg">
<g id="Group 30">
<g id="Group 24">
<path id="Fill 1" d="M138.382 74.0333L137.86 52.5563C137.744 50.2453 138.523 47.9786 140.036 46.2277C141.549 44.4769 143.679 43.3768 145.982 43.1563L153.361 89.6103C153.45 95.4442 151.655 101.151 148.242 105.883L130.182 127.689C128.521 129.695 127.701 132.265 127.893 134.862L128.378 141.303L103.222 129.356L103.322 129.156C102.345 124.354 102.712 119.376 104.382 114.769C106.053 110.163 108.963 106.106 112.791 103.047L114.223 101.899C116.47 100.107 118.279 97.8269 119.516 95.2323L126.416 80.7703C127.475 78.5527 129.193 76.7159 131.334 75.5102C133.475 74.3045 135.937 73.7888 138.382 74.0333Z" fill="#F7CAA5"/>
<path id="Fill 3" d="M128.373 141.304L131.203 142.651L123.635 158.509L88.7529 141.934L96.3249 126.078L103.225 129.356L128.373 141.304Z" fill="#C90606"/>
<path id="Fill 5" d="M77.963 94.4013C69.7253 94.3708 61.6494 92.1103 54.5929 87.8598C47.5363 83.6093 41.7624 77.5273 37.884 70.2596C34.0056 62.9918 32.1675 54.8096 32.5648 46.5813C32.9621 38.353 35.58 30.3859 40.1406 23.5257C44.7012 16.6654 51.0343 11.1681 58.4676 7.61723C65.9008 4.06637 74.1569 2.59451 82.3593 3.3579C90.5616 4.12128 98.4043 7.09142 105.055 11.953C111.705 16.8146 116.915 23.3863 120.131 30.9703C123.06 37.921 124.223 45.4889 123.516 52.9984C122.808 60.5079 120.253 67.7255 116.077 74.0069C111.901 80.2883 106.235 85.4382 99.5844 88.9968C92.9339 92.5555 85.5058 94.4122 77.963 94.4013ZM77.963 14.2883C71.1516 14.3041 64.4977 16.3384 58.8419 20.1342C53.1862 23.9299 48.7823 29.3168 46.1867 35.6143C43.5912 41.9118 42.9204 48.8374 44.259 55.516C45.5977 62.1945 48.8858 68.3265 53.7079 73.1372C58.5301 77.9479 64.6698 81.2214 71.3516 82.5442C78.0333 83.867 84.9573 83.1797 91.2486 80.5692C97.5399 77.9586 102.916 73.542 106.699 67.8772C110.481 62.2124 112.499 55.5537 112.499 48.7423C112.479 39.5961 108.831 30.8315 102.357 24.3715C95.8821 17.9115 87.1092 14.2837 77.963 14.2843V14.2883Z" fill="#C90606"/>
<path id="Fill 7" d="M112.499 48.7433C112.515 55.5773 110.503 62.2624 106.718 67.9525C102.933 73.6425 97.5449 78.0817 91.2357 80.7081C84.9265 83.3345 77.98 84.03 71.2753 82.7065C64.5707 81.3831 58.4094 78.1003 53.5713 73.2736C48.7333 68.4469 45.436 62.2933 44.0968 55.5918C42.7577 48.8902 43.4368 41.9421 46.0484 35.6267C48.6599 29.3114 53.0864 23.9128 58.7676 20.1143C64.4488 16.3159 71.1291 14.2883 77.9632 14.2883C87.1116 14.2787 95.8892 17.9032 102.366 24.3645C108.842 30.8258 112.487 39.5949 112.499 48.7433Z" fill="white"/>
<path id="Fill 9" d="M27.5551 141.304L52.7041 129.356L59.6021 126.078L67.1741 141.934L32.2921 158.509L24.7241 142.65L27.5551 141.304Z" fill="#C90606"/>
<path id="Fill 11" d="M17.5402 74.0333C19.9853 73.7876 22.4467 74.3022 24.5887 75.5068C26.7306 76.7114 28.4489 78.5473 29.5092 80.7643L36.4092 95.2263C37.6466 97.8203 39.4563 100.1 41.7022 101.893L43.1342 103.041C46.9625 106.1 49.8723 110.156 51.5432 114.763C53.2141 119.37 53.5812 124.348 52.6042 129.15L52.7042 129.35L27.5552 141.303L28.0382 134.862C28.2305 132.265 27.4102 129.695 25.7492 127.689L7.68717 105.883C4.27212 101.152 2.47538 95.4447 2.56417 89.6103L9.94817 43.1563C12.1712 43.3697 14.2351 44.4028 15.7382 46.0545C17.2412 47.7061 18.0757 49.8581 18.0792 52.0913C18.0792 52.2423 18.0732 52.3983 18.0662 52.5523L17.5402 74.0333Z" fill="#F7CAA5"/>
<path id="Fill 13" d="M77.9639 85.7573C71.2885 85.7319 64.7445 83.8997 59.0265 80.455C53.3085 77.0104 48.6298 72.0818 45.487 66.1925C42.3442 60.3031 40.8546 53.6728 41.1763 47.0051C41.4979 40.3374 43.6189 33.8812 47.314 28.3217C51.0091 22.7623 56.1404 18.307 62.1635 15.4287C68.1865 12.5505 74.8765 11.3566 81.5233 11.974C88.1702 12.5913 94.5259 14.9968 99.9158 18.935C105.306 22.8733 109.529 28.1974 112.137 34.3423C114.512 39.9757 115.456 46.1097 114.884 52.1966C114.311 58.2835 112.24 64.134 108.856 69.2257C105.472 74.3174 100.88 78.4919 95.489 81.3766C90.0986 84.2612 84.0777 85.7663 77.9639 85.7573ZM77.9639 16.8463C71.6578 16.8605 65.4973 18.7435 60.2609 22.2574C55.0244 25.7712 50.9469 30.7583 48.5435 36.5885C46.1401 42.4187 45.5187 48.8304 46.7577 55.0137C47.9967 61.1969 51.0405 66.8742 55.5046 71.3283C59.9688 75.7824 65.6529 78.8135 71.839 80.0385C78.025 81.2635 84.4353 80.6276 90.2601 78.2111C96.0849 75.7946 101.063 71.7058 104.565 66.4615C108.067 61.2171 109.936 55.0524 109.936 48.7463C109.917 40.2791 106.541 32.1651 100.547 26.1846C94.5527 20.2041 86.4311 16.8457 77.9639 16.8463Z" fill="#083863"/>
<path id="Fill 15" d="M91.4031 49.1363H78.6041V31.5013C78.6041 30.8211 78.3339 30.1688 77.853 29.6879C77.372 29.207 76.7197 28.9368 76.0396 28.9368C75.3595 28.9368 74.7072 29.207 74.2262 29.6879C73.7453 30.1688 73.4751 30.8211 73.4751 31.5013V51.6183C73.4739 52.306 73.7419 52.9668 74.2219 53.4593C74.7019 53.9518 75.3556 54.2368 76.0431 54.2533H91.4031C91.7391 54.2533 92.0718 54.1871 92.3822 54.0585C92.6926 53.93 92.9747 53.7415 93.2122 53.5039C93.4498 53.2663 93.6383 52.9843 93.7668 52.6739C93.8954 52.3635 93.9616 52.0308 93.9616 51.6948C93.9616 51.3588 93.8954 51.0261 93.7668 50.7157C93.6383 50.4053 93.4498 50.1232 93.2122 49.8857C92.9747 49.6481 92.6926 49.4596 92.3822 49.331C92.0718 49.2025 91.7391 49.1363 91.4031 49.1363Z" fill="#083863"/>
<path id="Fill 17" d="M77.963 96.9593C68.4312 96.9373 59.1199 94.0908 51.2052 88.7793C43.2906 83.4678 37.1278 75.9296 33.4954 67.1171C29.863 58.3046 28.924 48.6133 30.7971 39.2674C32.6701 29.9215 37.2712 21.3404 44.019 14.6083C50.7667 7.87619 59.3584 3.29505 68.7086 1.44368C78.0588 -0.407692 87.748 0.553768 96.552 4.20659C105.356 7.85941 112.88 14.0397 118.173 21.9667C123.466 29.8936 126.291 39.2115 126.291 48.7433C126.261 61.5412 121.157 73.8049 112.096 82.844C103.036 91.883 90.761 96.9593 77.963 96.9593ZM77.963 5.64228C69.4429 5.66205 61.1198 8.20662 54.0452 12.9545C46.9706 17.7024 41.4619 24.4406 38.2151 32.3178C34.9683 40.195 34.129 48.8578 35.8033 57.2118C37.4776 65.5658 41.5904 73.2361 47.622 79.2538C53.6536 85.2714 61.3334 89.3664 69.6913 91.0213C78.0491 92.6762 86.71 91.8169 94.5796 88.5518C102.449 85.2868 109.175 79.7625 113.906 72.6769C118.638 65.5914 121.163 57.2624 121.163 48.7423C121.136 37.3023 116.573 26.3399 108.475 18.2599C100.376 10.1799 89.403 5.64225 77.963 5.64228Z" fill="#083863"/>
<path id="Fill 19" d="M123.633 161.068C123.252 161.068 122.877 160.983 122.533 160.818L87.6502 144.244C87.3462 144.1 87.0737 143.898 86.8481 143.648C86.6225 143.399 86.4484 143.107 86.3357 142.791C86.223 142.474 86.174 142.138 86.1914 141.802C86.2088 141.466 86.2924 141.137 86.4372 140.833L94.0092 124.977C94.2194 124.541 94.5481 124.173 94.9577 123.915C95.3673 123.658 95.8412 123.52 96.3252 123.519C96.7059 123.519 97.0817 123.604 97.4252 123.768L100.243 125.106C100.034 120.517 100.917 115.943 102.819 111.76C104.72 107.578 107.586 103.906 111.182 101.046L112.615 99.8973C114.555 98.34 116.121 96.3681 117.199 94.1263L124.099 79.6633C125.178 77.4147 126.816 75.4815 128.858 74.0496C130.9 72.6177 133.276 71.7353 135.757 71.4873L135.296 52.6433C135.151 49.6796 136.155 46.7741 138.099 44.5324C140.043 42.2907 142.777 40.8857 145.731 40.6103C145.816 40.5973 145.902 40.5973 145.987 40.5973C146.597 40.5949 147.187 40.8113 147.65 41.2071C148.114 41.6029 148.42 42.1519 148.513 42.7543L155.887 89.2113C155.907 89.3307 155.917 89.4513 155.918 89.5723C156.003 95.9536 154.04 102.194 150.318 107.378C150.278 107.432 150.245 107.478 150.213 107.512L132.153 129.32C130.907 130.814 130.294 132.736 130.445 134.676L130.818 139.632L132.306 140.339C132.61 140.483 132.882 140.686 133.107 140.935C133.333 141.185 133.506 141.476 133.619 141.793C133.731 142.109 133.78 142.445 133.763 142.781C133.745 143.116 133.662 143.445 133.517 143.748L125.95 159.607C125.74 160.044 125.411 160.412 125.002 160.671C124.592 160.929 124.118 161.067 123.633 161.068ZM97.5372 129.487L92.1722 140.723L122.423 155.097L127.787 143.859L97.5372 129.487ZM137.208 76.5323C135.438 76.5372 133.705 77.0397 132.207 77.9823C130.709 78.9249 129.506 80.2697 128.735 81.8633L121.829 96.3253C120.42 99.2634 118.369 101.848 115.829 103.889L114.399 105.035C111.062 107.692 108.492 111.19 106.956 115.17C105.42 119.15 104.972 123.467 105.659 127.677L125.487 137.097L125.332 135.052C125.079 131.795 126.109 128.567 128.202 126.058L146.209 104.318C149.232 100.094 150.838 95.0205 150.797 89.8263L143.897 46.3853C142.799 46.9509 141.888 47.821 141.272 48.8913C140.656 49.9617 140.361 51.1869 140.423 52.4203C140.425 52.4429 140.425 52.4656 140.423 52.4883L140.9 71.8973C141.77 72.1271 142.617 72.4371 143.43 72.8233C143.734 72.9673 144.006 73.1698 144.232 73.4193C144.457 73.6687 144.631 73.9602 144.743 74.2769C144.856 74.5937 144.905 74.9296 144.887 75.2653C144.87 75.601 144.786 75.9299 144.641 76.2333L133.295 100.006C133.103 100.416 132.806 100.767 132.435 101.025C132.064 101.283 131.631 101.439 131.18 101.476C131.109 101.482 131.038 101.485 130.967 101.485C130.533 101.486 130.106 101.376 129.726 101.165C129.347 100.955 129.027 100.652 128.797 100.284C128.567 99.9157 128.434 99.4952 128.411 99.0618C128.389 98.6283 128.477 98.1963 128.667 97.8063L138.756 76.6603C138.569 76.6293 138.356 76.6013 138.135 76.5773C137.828 76.5473 137.516 76.5323 137.208 76.5323Z" fill="#083863"/>
<g id="Group 23">
<g id="Clip path group">
<mask id="mask0_90_1060" style="mask-type:luminance" maskUnits="userSpaceOnUse" x="0" y="40" width="70" height="122">
<g id="clip-path">
<path id="Clip 22" d="M0 40.5993H69.74V161.068H0V40.5993Z" fill="white"/>
</g>
</mask>
<g mask="url(#mask0_90_1060)">
<g id="Group 23_2">
<path id="Fill 21" d="M32.295 161.068C31.8108 161.067 31.3367 160.93 30.9269 160.672C30.5171 160.414 30.1883 160.045 29.978 159.609L22.409 143.749C22.2644 143.446 22.1811 143.117 22.1638 142.781C22.1465 142.446 22.1955 142.11 22.3081 141.793C22.4206 141.477 22.5946 141.185 22.8198 140.936C23.0451 140.687 23.3174 140.484 23.621 140.34L25.109 139.634L25.481 134.671C25.6326 132.733 25.0196 130.812 23.773 129.32L5.70902 107.511C5.66902 107.463 5.63502 107.419 5.60902 107.376C1.88397 102.194 -0.0818669 95.954 1.66558e-05 89.5723C0.0020501 89.4513 0.0127441 89.3307 0.0320167 89.2113L7.41302 42.7573C7.50617 42.1545 7.81257 41.6051 8.27649 41.2091C8.74041 40.8131 9.33105 40.5967 9.94102 40.5993C10.025 40.5993 10.11 40.5993 10.194 40.6113C13.0545 40.8757 15.7126 42.2004 17.6459 44.325C19.5792 46.4497 20.648 49.2207 20.642 52.0933C20.642 52.2603 20.637 52.4313 20.628 52.6373L20.166 71.4873C22.6476 71.736 25.0236 72.6188 27.0654 74.051C29.1072 75.4832 30.7463 77.4166 31.825 79.6653L38.725 94.1263C39.8019 96.3676 41.3668 98.3395 43.305 99.8973L44.741 101.047C48.3369 103.907 51.2034 107.579 53.1051 111.761C55.0068 115.944 55.8896 120.518 55.681 125.107L58.5 123.768C58.8435 123.604 59.2193 123.519 59.6 123.519C60.084 123.52 60.558 123.658 60.9676 123.915C61.3772 124.173 61.7058 124.541 61.916 124.977L69.489 140.834C69.6339 141.138 69.7174 141.467 69.7349 141.802C69.7524 142.138 69.7034 142.474 69.5908 142.791C69.4782 143.108 69.3042 143.399 69.0788 143.649C68.8533 143.898 68.5809 144.1 68.277 144.244L33.4 160.818C33.0551 160.984 32.6774 161.069 32.295 161.068ZM58.395 129.488L53.811 131.666L28.141 143.859L33.505 155.099L63.757 140.724L58.395 129.488ZM12.035 46.3883L5.13502 89.8313C5.09411 95.0264 6.70107 100.101 9.72502 104.325L27.732 126.065C29.8256 128.574 30.8549 131.801 30.6 135.058L30.441 137.099L50.269 127.679C50.9566 123.47 50.5098 119.153 48.9747 115.173C47.4396 111.193 44.8716 107.695 41.535 105.037L40.1 103.889C37.5599 101.848 35.5097 99.264 34.1 96.3263L27.2 81.8653C26.4301 80.2716 25.2276 78.9265 23.7297 77.9837C22.2318 77.0408 20.4989 76.5382 18.729 76.5333C18.421 76.5333 18.109 76.5483 17.802 76.5793C17.596 76.5993 17.385 76.6273 17.177 76.6623L27.265 97.8073C27.4553 98.1978 27.5431 98.6304 27.52 99.0643C27.4969 99.4981 27.3638 99.919 27.1331 100.287C26.9024 100.655 26.5817 100.959 26.2014 101.169C25.821 101.379 25.3935 101.488 24.959 101.487C24.89 101.487 24.819 101.487 24.75 101.479C24.2991 101.442 23.8661 101.286 23.4948 101.027C23.1234 100.769 22.8269 100.417 22.635 100.007L11.287 76.2343C11.1423 75.9308 11.0589 75.6018 11.0416 75.266C11.0243 74.9303 11.0733 74.5944 11.186 74.2776C11.2987 73.9609 11.4728 73.6694 11.6982 73.4201C11.9237 73.1707 12.1962 72.9682 12.5 72.8243C13.3127 72.4395 14.1589 72.1299 15.028 71.8993L15.5 52.4893V52.4433V52.3943C15.5 52.2943 15.508 52.1943 15.508 52.0943C15.5157 50.9134 15.1945 49.7538 14.5804 48.7451C13.9663 47.7365 13.0836 46.9187 12.031 46.3833L12.035 46.3883Z" fill="#083863"/>
</g>
</g>
</g>
</g>
</g>
</g>
</svg>
