<svg width="65" height="65" viewBox="0 0 65 65" fill="none" xmlns="http://www.w3.org/2000/svg">
<circle cx="32.5" cy="32.5" r="32.5" transform="matrix(-1 0 0 1 65 0)" fill="url(#paint0_linear_23_947)"/>
<path fill-rule="evenodd" clip-rule="evenodd" d="M31.0563 18.9171L28.0707 23.7433H30.0338L31.997 20.3759L34.1647 23.7433H36.1688L33.115 18.9989L36.1006 14.2H34.1374L32.1743 17.5265L30.0338 14.2H28.0298L31.0563 18.9171ZM48.5312 29.969C49.4503 31.6738 49.4187 33.4833 49.3874 35.2758C49.3784 35.7939 49.3694 36.3106 49.3834 36.8229C49.3875 37.0434 49.3941 37.2648 49.4007 37.4867C49.4274 38.3814 49.4543 39.2845 49.321 40.1737C49.0093 42.3713 47.8037 43.7856 45.7669 44.3948C45.4759 44.4818 45.3927 44.5906 45.3927 44.8953C45.4066 45.5464 45.402 46.1976 45.3974 46.8551C45.3951 47.1863 45.3927 47.5191 45.3927 47.8544C45.3927 49.0729 44.6445 49.8562 43.4806 49.8562H41.7347C40.6123 49.8562 39.864 49.0729 39.864 47.8761C39.864 47.5506 39.8617 47.225 39.8594 46.8986V46.8984C39.8548 46.2433 39.8502 45.585 39.864 44.917C39.864 44.6341 39.7809 44.5471 39.5107 44.5471H23.8599C23.5897 44.5471 23.5066 44.6341 23.5066 44.917C23.5204 45.5682 23.5159 46.2193 23.5112 46.8769C23.5089 47.2081 23.5066 47.5409 23.5066 47.8761C23.5066 49.0729 22.7584 49.8562 21.636 49.8562H19.8277C18.7261 49.8562 17.9779 49.0729 17.9779 47.8979C17.9779 47.5562 17.9756 47.2145 17.9733 46.8736V46.8736C17.9687 46.1943 17.9641 45.5182 17.9779 44.8517C17.9779 44.5906 17.8948 44.5036 17.6453 44.4166C15.3383 43.7421 13.9873 41.8708 13.9873 39.3686V33.6679C13.9873 32.493 14.1743 31.3833 14.6732 30.3171C14.7979 30.0343 14.7979 29.9472 14.4653 29.882C13.7171 29.7732 13.1351 29.1204 13.052 28.3589C12.9896 27.7714 12.9688 27.1622 13.0727 26.5747C13.3014 25.1169 14.4237 24.1595 15.8787 24.116C16.6269 24.0942 17.3752 24.0942 18.1234 24.116C18.4352 24.116 18.5599 24.0072 18.6846 23.7243C20.0979 20.5694 22.5089 18.981 25.8553 18.9157C26.1878 18.9157 26.2709 19.0245 26.2502 19.3509C26.243 19.4712 26.2557 19.6045 26.2685 19.7392V19.7392V19.7392V19.7392C26.2927 19.9941 26.3174 20.2537 26.2086 20.4388C26.0797 20.6338 25.8125 20.6013 25.55 20.5695C25.4317 20.5551 25.3143 20.5409 25.2109 20.5476C22.0517 20.8522 19.5783 23.6156 19.5367 26.8793C19.5367 27.2057 19.6199 27.358 19.9109 27.445C20.5552 27.6626 21.1995 27.7714 21.8646 27.7714H41.506C42.2127 27.7714 42.8778 27.6409 43.5637 27.4233C43.7923 27.358 43.8547 27.2274 43.8547 26.9881C43.8131 23.485 41.0488 20.5694 37.6817 20.5476C37.266 20.5476 37.1205 20.4606 37.1205 19.9819L37.1229 19.9148C37.1617 18.8271 37.1631 18.7882 38.2428 18.9375C41.2358 19.3074 43.439 20.874 44.7068 23.7679C44.8316 24.0507 44.9563 24.1378 45.2472 24.1378C45.9747 24.116 46.7022 24.116 47.4296 24.1378C49.1755 24.1595 50.3395 25.3997 50.3395 27.2274V27.8802C50.3603 29.0987 49.7783 29.7949 48.5312 29.969ZM31.6957 39.8038H36.3515C37.0477 39.8038 37.744 39.8051 38.4403 39.8065C40.5291 39.8106 42.618 39.8147 44.7068 39.782C46.3073 39.7603 47.5751 38.52 47.7622 36.8664C47.864 35.9429 47.8411 35.0193 47.818 34.0839V34.0837V34.0835V34.0834C47.8128 33.873 47.8076 33.662 47.8037 33.4503C47.783 31.5356 47.0347 29.9908 45.5798 28.794C45.3304 28.5765 45.1018 28.5329 44.79 28.6635C43.5845 29.1639 42.3582 29.4033 41.0488 29.4033C35.1252 29.3815 29.1808 29.3815 23.2572 29.4033C21.5944 29.4033 19.9524 29.338 18.4144 28.62C18.2065 28.5329 18.061 28.5765 17.8948 28.707C16.7932 29.5556 16.0242 30.6653 15.7124 32.0796C15.4809 33.178 15.513 34.2884 15.5448 35.3931C15.5559 35.7763 15.5669 36.1589 15.5669 36.54C15.5669 36.8229 15.6085 37.1275 15.6916 37.3886C16.1073 38.8682 17.292 39.7603 18.8716 39.7603C23.174 39.8038 27.4349 39.8038 31.6957 39.8038ZM47.7414 40.1954C46.5775 41.2616 45.268 41.4574 43.8755 41.4574C35.624 41.4357 27.3933 41.4357 19.1418 41.4574C18.5599 41.4574 17.9779 41.4139 17.4167 41.2398C16.8096 41.0492 16.2813 40.6935 15.7168 40.3134L15.6708 40.2825C16.0242 41.8926 17.2297 42.9588 18.7261 42.9588H44.6861C46.1618 42.937 47.3881 41.8491 47.7414 40.1954ZM21.9685 46.3531V44.8735C21.9685 44.6559 21.9478 44.5254 21.6983 44.5471C21.0748 44.5689 20.4305 44.5689 19.8069 44.5471C19.5783 44.5471 19.5367 44.6341 19.5367 44.8517V47.8544C19.5367 48.1372 19.6407 48.246 19.9109 48.246C20.4513 48.2243 21.0124 48.2243 21.5528 48.246C21.8854 48.2678 21.9685 48.1155 21.9685 47.7891C21.9547 47.47 21.9593 47.1509 21.9639 46.8317C21.9662 46.6722 21.9685 46.5126 21.9685 46.3531ZM41.4021 46.2443C41.4021 46.4571 41.4046 46.654 41.4071 46.8414V46.8415C41.4116 47.1907 41.4156 47.507 41.4021 47.8326C41.3813 48.1372 41.506 48.246 41.797 48.246C42.3374 48.2243 42.857 48.2243 43.3974 48.246C43.7508 48.2678 43.8339 48.0937 43.8339 47.7674C43.82 47.2298 43.8247 46.6826 43.8293 46.1387C43.8316 45.8679 43.8339 45.598 43.8339 45.3304C43.8339 44.9474 43.8339 44.757 43.7387 44.6624C43.6446 44.5689 43.4576 44.5689 43.0857 44.5689C42.93 44.5689 42.7571 44.5526 42.5828 44.5362C42.1521 44.4958 41.7132 44.4545 41.506 44.6559C41.2926 44.8654 41.336 45.2631 41.378 45.6477C41.4014 45.8623 41.4244 46.0728 41.4021 46.2443ZM46.5775 25.7479C46.4658 25.7479 46.3565 25.7503 46.248 25.7528C46.0333 25.7576 45.8215 25.7623 45.6006 25.7479C45.372 25.7479 45.2888 25.7914 45.3096 26.0525C45.3512 26.4006 45.4135 26.6835 45.7253 26.9011C46.2449 27.2709 46.7229 27.7061 47.201 28.1413L47.201 28.1413C47.3257 28.2501 47.4296 28.3154 47.5959 28.3154C47.8187 28.3121 48.0015 28.3147 48.1512 28.3168C48.5058 28.3217 48.6751 28.3241 48.7531 28.2408C48.8244 28.1648 48.8193 28.0171 48.8097 27.7346V27.7345V27.7344V27.7344C48.8044 27.58 48.7978 27.3855 48.8014 27.1404C48.8222 26.3136 48.3441 25.8132 47.5543 25.7696C47.3881 25.7588 47.2218 25.7588 47.0581 25.7588H47.0581C46.8944 25.7588 46.7333 25.7588 46.5775 25.7479ZM14.5692 27.4885C14.6091 27.5636 14.5909 27.6771 14.572 27.7946C14.5417 27.9836 14.5097 28.183 14.7147 28.2501C15.1304 28.4024 15.6916 28.4894 16.0242 28.2283C16.6685 27.7496 17.292 27.2274 17.8948 26.6835C18.1234 26.4877 18.0818 26.1395 18.0403 25.8784C18.0091 25.6991 17.8379 25.7274 17.6841 25.7529L17.684 25.7529C17.6326 25.7614 17.5831 25.7696 17.5414 25.7696C17.2235 25.7552 16.9148 25.7599 16.6031 25.7648H16.603H16.603H16.603L16.6029 25.7648C16.4459 25.7672 16.2882 25.7696 16.1281 25.7696C14.9849 25.7696 14.5692 26.2048 14.5692 27.4885ZM31.6958 31.9708H36.4139C37.2452 31.9708 37.5362 32.3843 37.3492 33.2328L37.2055 33.8462L37.2055 33.8464L37.2055 33.8465L37.2054 33.8466C36.9619 34.8878 36.7159 35.9391 36.4554 36.9753C36.3099 37.6063 36.1021 37.7586 35.4993 37.7586H27.8714C27.2479 37.7586 27.0608 37.6063 26.8945 36.9318C26.7387 36.3009 26.588 35.6701 26.4374 35.0393L26.4374 35.0391L26.4373 35.0389L26.4373 35.0388C26.2866 34.4078 26.1359 33.7768 25.98 33.1458C25.8137 32.406 26.1255 31.9708 26.8737 31.9491C28.4949 31.9708 30.0954 31.9708 31.6958 31.9708ZM31.7166 33.6027H28.0793C27.7883 33.6027 27.7259 33.6898 27.8091 33.9726C27.9753 34.5818 28.1208 35.2128 28.2455 35.8438C28.2871 36.0832 28.391 36.1702 28.6404 36.1702H34.7719C35.0005 36.1702 35.1044 36.1049 35.1668 35.8438C35.2469 35.4386 35.3441 35.0423 35.442 34.6434L35.442 34.6434C35.4965 34.4212 35.5512 34.1983 35.6033 33.9726C35.6864 33.6898 35.624 33.6027 35.3331 33.6027H31.7166ZM17.9782 34.8429C17.9574 36.4313 19.2044 37.7586 20.7425 37.7586C22.2598 37.7803 23.5069 36.4966 23.5276 34.9082C23.5276 33.3199 22.2806 31.9708 20.7633 31.9708C19.2668 31.9708 17.9989 33.2763 17.9782 34.8429ZM20.7425 33.581C21.4076 33.581 21.948 34.1467 21.9688 34.8429C21.9688 35.561 21.4492 36.1267 20.7841 36.1267C20.0774 36.1484 19.537 35.5827 19.537 34.8647C19.537 34.1684 20.0774 33.581 20.7425 33.581ZM42.6287 37.7586C41.1114 37.7586 39.8643 36.4966 39.8436 34.9082C39.8228 33.2981 41.0698 31.9709 42.5871 31.9709C44.1044 31.9491 45.3722 33.2981 45.3722 34.8865C45.393 36.4748 44.146 37.7586 42.6287 37.7586ZM42.6079 36.1485C43.273 36.1485 43.8134 35.6045 43.8342 34.9082C43.855 34.1902 43.2938 33.6027 42.6079 33.6027C41.9428 33.6027 41.4024 34.1902 41.4024 34.8865C41.4024 35.5827 41.9428 36.1267 42.6079 36.1485Z" fill="#DA001A"/>
<path d="M28.0707 23.7433L27.8155 23.5855L27.5323 24.0433H28.0707V23.7433ZM31.0563 18.9171L31.3115 19.0749L31.4109 18.9142L31.3088 18.7551L31.0563 18.9171ZM30.0338 23.7433V24.0433H30.2062L30.293 23.8944L30.0338 23.7433ZM31.997 20.3759L32.2493 20.2135L31.9844 19.8019L31.7379 20.2248L31.997 20.3759ZM34.1647 23.7433L33.9125 23.9057L34.0011 24.0433H34.1647V23.7433ZM36.1688 23.7433V24.0433H36.7187L36.4211 23.5809L36.1688 23.7433ZM33.115 18.9989L32.8602 18.8404L32.7599 19.0016L32.8627 19.1613L33.115 18.9989ZM36.1006 14.2L36.3554 14.3585L36.6406 13.9H36.1006V14.2ZM34.1374 14.2V13.9H33.9662L33.8791 14.0475L34.1374 14.2ZM32.1743 17.5265L31.922 17.6889L32.1853 18.0981L32.4326 17.679L32.1743 17.5265ZM30.0338 14.2L30.2861 14.0377L30.1975 13.9H30.0338V14.2ZM28.0298 14.2V13.9H27.4808L27.7773 14.362L28.0298 14.2ZM49.3874 35.2758L49.6874 35.281L49.3874 35.2758ZM48.5312 29.969L48.4897 29.6719L48.0624 29.7315L48.2671 30.1114L48.5312 29.969ZM49.3834 36.8229L49.6833 36.8173L49.6833 36.8147L49.3834 36.8229ZM49.4007 37.4867L49.7006 37.4778V37.4778L49.4007 37.4867ZM49.321 40.1737L49.0243 40.1292L49.024 40.1315L49.321 40.1737ZM45.7669 44.3948L45.6809 44.1074L45.7669 44.3948ZM45.3927 44.8953H45.0927L45.0928 44.9016L45.3927 44.8953ZM45.3974 46.8551L45.6974 46.8572V46.8572L45.3974 46.8551ZM39.8594 46.8986H39.5594L39.5595 46.9007L39.8594 46.8986ZM39.8594 46.8984H40.1595L40.1594 46.8963L39.8594 46.8984ZM39.864 44.917L40.164 44.9232V44.917H39.864ZM23.5066 44.917H23.2065L23.2067 44.9234L23.5066 44.917ZM23.5112 46.8769L23.2113 46.8748L23.5112 46.8769ZM17.9733 46.8736H17.6733L17.6733 46.8757L17.9733 46.8736ZM17.9733 46.8736H18.2733L18.2733 46.8716L17.9733 46.8736ZM17.9779 44.8517L18.2779 44.858V44.8517H17.9779ZM17.6453 44.4166L17.7442 44.1333L17.7369 44.1308L17.7295 44.1286L17.6453 44.4166ZM14.6732 30.3171L14.945 30.4443L14.9477 30.4382L14.6732 30.3171ZM14.4653 29.882L14.5231 29.5876L14.5158 29.5862L14.5085 29.5851L14.4653 29.882ZM13.052 28.3589L12.7536 28.3905L12.7537 28.3914L13.052 28.3589ZM13.0727 26.5747L13.3682 26.627L13.3691 26.6212L13.0727 26.5747ZM15.8787 24.116L15.8699 23.8161L15.8697 23.8161L15.8787 24.116ZM18.1234 24.116L18.1147 24.416H18.1234V24.116ZM18.6846 23.7243L18.4108 23.6017L18.4101 23.6033L18.6846 23.7243ZM25.8553 18.9157V18.6157L25.8494 18.6158L25.8553 18.9157ZM26.2502 19.3509L25.9508 19.3318L25.9507 19.333L26.2502 19.3509ZM26.2685 19.7392H26.5685V19.7249L26.5671 19.7108L26.2685 19.7392ZM26.2685 19.7392H25.9685V19.7534L25.9698 19.7676L26.2685 19.7392ZM26.2086 20.4388L26.4588 20.6043L26.4632 20.5977L26.4672 20.5909L26.2086 20.4388ZM25.55 20.5695L25.5139 20.8673H25.5139L25.55 20.5695ZM25.2109 20.5476L25.1913 20.2481L25.1821 20.249L25.2109 20.5476ZM19.5367 26.8793L19.2367 26.8755V26.8793H19.5367ZM19.9109 27.445L20.0069 27.1606L19.9968 27.1576L19.9109 27.445ZM43.5637 27.4233L43.4813 27.1347L43.473 27.1373L43.5637 27.4233ZM43.8547 26.9881H44.1547L44.1547 26.9845L43.8547 26.9881ZM37.6817 20.5476L37.6836 20.2476H37.6817V20.5476ZM37.1205 19.9819L36.8205 19.9712V19.9819H37.1205ZM37.1229 19.9148L37.4227 19.9255L37.4227 19.9255L37.1229 19.9148ZM38.2428 18.9375L38.2018 19.2347L38.2061 19.2352L38.2428 18.9375ZM44.7068 23.7679L44.4321 23.8883L44.4323 23.8889L44.7068 23.7679ZM45.2472 24.1378V24.4379L45.2562 24.4376L45.2472 24.1378ZM47.4296 24.1378L47.4207 24.4377L47.4259 24.4377L47.4296 24.1378ZM50.3395 27.8802H50.0394L50.0395 27.8853L50.3395 27.8802ZM38.4403 39.8065L38.4397 40.1065L38.4403 39.8065ZM44.7068 39.782L44.7028 39.4821L44.7022 39.4821L44.7068 39.782ZM47.7622 36.8664L48.0603 36.9001L48.0604 36.8993L47.7622 36.8664ZM47.818 34.0839H47.5179L47.5181 34.0913L47.818 34.0839ZM47.818 34.0834H48.1181L48.1179 34.0759L47.818 34.0834ZM47.8037 33.4503L47.5038 33.4536L47.5038 33.4558L47.8037 33.4503ZM45.5798 28.794L45.3825 29.0202L45.3892 29.0257L45.5798 28.794ZM44.79 28.6635L44.905 28.9406L44.9059 28.9402L44.79 28.6635ZM41.0488 29.4033L41.0477 29.7033H41.0488V29.4033ZM23.2572 29.4033V29.7033L23.2583 29.7033L23.2572 29.4033ZM18.4144 28.62L18.5414 28.3479L18.5303 28.3433L18.4144 28.62ZM17.8948 28.707L18.0778 28.9447L18.08 28.943L17.8948 28.707ZM15.7124 32.0796L15.4194 32.015L15.4188 32.0177L15.7124 32.0796ZM15.5448 35.3931L15.8447 35.3844L15.5448 35.3931ZM15.6916 37.3886L15.9806 37.3074L15.9775 37.2976L15.6916 37.3886ZM18.8716 39.7603L18.8747 39.4603H18.8716V39.7603ZM43.8755 41.4574L43.8747 41.7574H43.8755V41.4574ZM47.7414 40.1954L48.0348 40.2581L48.2309 39.3402L47.5388 39.9742L47.7414 40.1954ZM19.1418 41.4574V41.7574L19.1426 41.7574L19.1418 41.4574ZM17.4167 41.2398L17.3268 41.5261L17.3278 41.5264L17.4167 41.2398ZM15.7168 40.3134L15.8843 40.0645L15.8843 40.0645L15.7168 40.3134ZM15.6708 40.2825L15.8383 40.0336L15.2173 39.6155L15.3778 40.3468L15.6708 40.2825ZM44.6861 42.9588V43.2588L44.6905 43.2587L44.6861 42.9588ZM21.6983 44.5471L21.7088 44.8469L21.7166 44.8467L21.7244 44.846L21.6983 44.5471ZM19.8069 44.5471L19.8174 44.2471H19.8069V44.5471ZM19.9109 48.246V48.5463L19.9229 48.5458L19.9109 48.246ZM21.5528 48.246L21.5724 47.9466L21.5649 47.9463L21.5528 48.246ZM21.9685 47.7891H22.2688L22.2683 47.7761L21.9685 47.7891ZM21.9639 46.8317L21.664 46.8274L21.9639 46.8317ZM41.4071 46.8414H41.7071L41.707 46.8375L41.4071 46.8414ZM41.4021 46.2443L41.1046 46.2055L41.1021 46.2248V46.2443H41.4021ZM41.4071 46.8415H41.107L41.1071 46.8454L41.4071 46.8415ZM41.4021 47.8326L41.7015 47.8531L41.7018 47.8451L41.4021 47.8326ZM41.797 48.246V48.5463L41.8091 48.5458L41.797 48.246ZM43.3974 48.246L43.4159 47.9465L43.4095 47.9463L43.3974 48.246ZM43.8339 47.7674H44.134L44.1338 47.7596L43.8339 47.7674ZM43.8293 46.1387L44.1293 46.1412V46.1412L43.8293 46.1387ZM43.7387 44.6624L43.5272 44.8752H43.5272L43.7387 44.6624ZM42.5828 44.5362L42.6109 44.2376L42.5828 44.5362ZM41.506 44.6559L41.2969 44.4408L41.2959 44.4418L41.506 44.6559ZM41.378 45.6477L41.0798 45.6803L41.378 45.6477ZM46.248 25.7528L46.2547 26.0527L46.248 25.7528ZM46.5775 25.7479L46.5983 25.4486L46.5879 25.4479H46.5775V25.7479ZM45.6006 25.7479L45.6202 25.4485L45.6104 25.4479H45.6006V25.7479ZM45.3096 26.0525L45.0103 26.0763L45.0117 26.0881L45.3096 26.0525ZM45.7253 26.9011L45.8993 26.6567L45.897 26.6551L45.7253 26.9011ZM47.201 28.1413L47.4062 27.9224L47.4029 27.9194L47.201 28.1413ZM47.201 28.1413L46.9957 28.3603L47.0038 28.3674L47.201 28.1413ZM47.5959 28.3154V28.6154L47.6003 28.6153L47.5959 28.3154ZM48.1512 28.3168L48.1554 28.0168L48.1512 28.3168ZM48.7531 28.2408L48.972 28.446L48.972 28.446L48.7531 28.2408ZM48.8097 27.7346H48.5095L48.5098 27.7448L48.8097 27.7346ZM48.8097 27.7344H49.1098L49.1095 27.7241L48.8097 27.7344ZM48.8014 27.1404L48.5015 27.1329L48.5014 27.1359L48.8014 27.1404ZM47.5543 25.7696L47.5347 26.069L47.5378 26.0692L47.5543 25.7696ZM47.0581 25.7588V25.4588V25.7588ZM14.572 27.7946L14.8682 27.8421L14.572 27.7946ZM14.5692 27.4885H14.2692V27.5632L14.3042 27.6292L14.5692 27.4885ZM14.7147 28.2501L14.818 27.9682L14.808 27.965L14.7147 28.2501ZM16.0242 28.2283L15.8452 27.9874L15.8389 27.9924L16.0242 28.2283ZM17.8948 26.6835L17.6995 26.4556L17.6938 26.4608L17.8948 26.6835ZM18.0403 25.8784L18.3366 25.8313L18.3358 25.8271L18.0403 25.8784ZM17.6841 25.7529L17.635 25.4569L17.6231 25.4589L17.6113 25.4619L17.6841 25.7529ZM17.684 25.7529L17.7331 26.0489L17.745 26.0469L17.7568 26.044L17.684 25.7529ZM17.5414 25.7696L17.5278 26.0696H17.5414V25.7696ZM16.6031 25.7648V26.0648L16.6077 26.0647L16.6031 25.7648ZM16.603 25.7648V25.4646L16.5939 25.4649L16.603 25.7648ZM16.6029 25.7648L16.6076 26.0648L16.6121 26.0646L16.6029 25.7648ZM37.3492 33.2328L37.6413 33.3012L37.6421 33.2974L37.3492 33.2328ZM37.2055 33.8462L36.9134 33.7778L36.9132 33.7787L37.2055 33.8462ZM37.2054 33.8466L37.4975 33.915L37.4977 33.9141L37.2054 33.8466ZM36.4554 36.9753L36.1644 36.9021L36.1631 36.9079L36.4554 36.9753ZM26.8945 36.9318L27.1858 36.8599L27.1858 36.8598L26.8945 36.9318ZM26.4374 35.0393L26.7292 34.9696L26.729 34.9689L26.4374 35.0393ZM26.4373 35.0388L26.1455 35.1085L26.1456 35.1092L26.4373 35.0388ZM25.98 33.1458L25.6872 33.2116L25.6888 33.2177L25.98 33.1458ZM26.8737 31.9491L26.8778 31.6488L26.865 31.6492L26.8737 31.9491ZM27.8091 33.9726L28.0985 33.8936L28.0969 33.888L27.8091 33.9726ZM28.2455 35.8438L28.5412 35.7925L28.5398 35.7857L28.2455 35.8438ZM35.1668 35.8438L35.4588 35.9136L35.4611 35.902L35.1668 35.8438ZM35.442 34.6434L35.1509 34.5707L35.1506 34.5719L35.442 34.6434ZM35.442 34.6434L35.7331 34.7161L35.7334 34.7149L35.442 34.6434ZM35.6033 33.9726L35.3154 33.888L35.3129 33.8965L35.3109 33.9052L35.6033 33.9726ZM20.7425 37.7586L20.7468 37.4586H20.7425V37.7586ZM17.9782 34.8429L17.6782 34.839L17.6782 34.839L17.9782 34.8429ZM23.5276 34.9082L23.8276 34.9121V34.9082H23.5276ZM21.9688 34.8429H22.2689L22.2687 34.834L21.9688 34.8429ZM20.7841 36.1267V35.8265L20.7748 35.8268L20.7841 36.1267ZM39.8436 34.9082L39.5436 34.9121V34.9122L39.8436 34.9082ZM42.5871 31.9709V32.2709L42.5914 32.2708L42.5871 31.9709ZM45.3722 34.8865H45.0722L45.0723 34.8904L45.3722 34.8865ZM43.8342 34.9082L44.1341 34.9172L44.1341 34.9169L43.8342 34.9082ZM42.6079 36.1485L42.5981 36.4485H42.6079V36.1485ZM28.3258 23.9011L31.3115 19.0749L30.8012 18.7593L27.8155 23.5855L28.3258 23.9011ZM30.0338 23.4433H28.0707V24.0433H30.0338V23.4433ZM31.7379 20.2248L29.7747 23.5922L30.293 23.8944L32.2562 20.527L31.7379 20.2248ZM34.417 23.5809L32.2493 20.2135L31.7448 20.5383L33.9125 23.9057L34.417 23.5809ZM36.1688 23.4433H34.1647V24.0433H36.1688V23.4433ZM32.8627 19.1613L35.9165 23.9057L36.4211 23.5809L33.3672 18.8365L32.8627 19.1613ZM35.8459 14.0415L32.8602 18.8404L33.3697 19.1574L36.3554 14.3585L35.8459 14.0415ZM34.1374 14.5H36.1006V13.9H34.1374V14.5ZM32.4326 17.679L34.3958 14.3525L33.8791 14.0475L31.9159 17.374L32.4326 17.679ZM29.7816 14.3623L31.922 17.6889L32.4265 17.3642L30.2861 14.0377L29.7816 14.3623ZM28.0298 14.5H30.0338V13.9H28.0298V14.5ZM31.3088 18.7551L28.2823 14.038L27.7773 14.362L30.8038 19.0791L31.3088 18.7551ZM49.6874 35.281C49.7185 33.4999 49.7572 31.6109 48.7953 29.8266L48.2671 30.1114C49.1433 31.7367 49.1189 33.4668 49.0875 35.2705L49.6874 35.281ZM49.6833 36.8147C49.6695 36.3102 49.6783 35.8003 49.6874 35.281L49.0875 35.2705C49.0785 35.7875 49.0693 36.3109 49.0835 36.8311L49.6833 36.8147ZM49.7006 37.4778C49.694 37.2556 49.6874 37.0359 49.6833 36.8173L49.0834 36.8285C49.0876 37.051 49.0942 37.274 49.1008 37.4957L49.7006 37.4778ZM49.6177 40.2181C49.7556 39.298 49.7271 38.3679 49.7006 37.4778L49.1008 37.4957C49.1276 38.395 49.1529 39.2711 49.0243 40.1292L49.6177 40.2181ZM45.8528 44.6822C46.9182 44.3636 47.7819 43.8291 48.4201 43.0735C49.0578 42.3183 49.4558 41.3597 49.618 40.2158L49.024 40.1315C48.8745 41.1852 48.5138 42.0326 47.9617 42.6863C47.4099 43.3396 46.6525 43.8168 45.6809 44.1074L45.8528 44.6822ZM45.6927 44.8953C45.6927 44.7601 45.7137 44.7394 45.7106 44.7435C45.7079 44.7471 45.7226 44.7212 45.8528 44.6822L45.6809 44.1074C45.5201 44.1555 45.3478 44.2275 45.2307 44.3833C45.1133 44.5398 45.0927 44.7258 45.0927 44.8953H45.6927ZM45.6974 46.8572C45.702 46.2004 45.7066 45.545 45.6927 44.8889L45.0928 44.9016C45.1065 45.5478 45.102 46.1948 45.0974 46.853L45.6974 46.8572ZM45.6927 47.8544C45.6927 47.5204 45.6951 47.1886 45.6974 46.8572L45.0974 46.853C45.0951 47.184 45.0927 47.5179 45.0927 47.8544H45.6927ZM43.4806 50.1562C44.1321 50.1562 44.6929 49.9352 45.0901 49.5194C45.4859 49.1051 45.6927 48.5251 45.6927 47.8544H45.0927C45.0927 48.4021 44.9255 48.8231 44.6562 49.105C44.3883 49.3855 43.9929 49.5562 43.4806 49.5562V50.1562ZM41.7347 50.1562H43.4806V49.5562H41.7347V50.1562ZM39.564 47.8761C39.564 48.5373 39.7716 49.1107 40.1607 49.5213C40.5512 49.9333 41.101 50.1562 41.7347 50.1562V49.5562C41.246 49.5562 40.8605 49.3874 40.5962 49.1086C40.3306 48.8283 40.164 48.4117 40.164 47.8761H39.564ZM39.5595 46.9007C39.5618 47.2273 39.564 47.5518 39.564 47.8761H40.164C40.164 47.5493 40.1617 47.2227 40.1594 46.8965L39.5595 46.9007ZM39.5594 46.8984V46.8986H40.1594V46.8984H39.5594ZM39.5641 44.9108C39.5501 45.5836 39.5548 46.2461 39.5595 46.9005L40.1594 46.8963C40.1548 46.2406 40.1502 45.5864 40.164 44.9232L39.5641 44.9108ZM39.5107 44.8471C39.565 44.8471 39.591 44.8518 39.6004 44.8544C39.6063 44.856 39.5901 44.8524 39.5718 44.8332C39.5542 44.8148 39.5529 44.801 39.5558 44.8128C39.5594 44.8272 39.564 44.8583 39.564 44.917H40.164C40.164 44.7665 40.1469 44.5667 40.0056 44.4188C39.8602 44.2665 39.6594 44.2471 39.5107 44.2471V44.8471ZM23.8599 44.8471H39.5107V44.2471H23.8599V44.8471ZM23.8066 44.917C23.8066 44.8583 23.8112 44.8272 23.8148 44.8128C23.8178 44.801 23.8164 44.8148 23.7989 44.8332C23.7806 44.8524 23.7644 44.856 23.7702 44.8544C23.7797 44.8518 23.8057 44.8471 23.8599 44.8471V44.2471C23.7113 44.2471 23.5104 44.2665 23.365 44.4188C23.2237 44.5667 23.2066 44.7665 23.2066 44.917H23.8066ZM23.8112 46.879C23.8158 46.2221 23.8205 45.5667 23.8065 44.9106L23.2067 44.9234C23.2204 45.5696 23.2159 46.2165 23.2113 46.8748L23.8112 46.879ZM23.8066 47.8761C23.8066 47.5421 23.8089 47.2103 23.8112 46.879L23.2113 46.8748C23.2089 47.2058 23.2066 47.5397 23.2066 47.8761H23.8066ZM21.636 50.1562C22.2697 50.1562 22.8195 49.9333 23.2099 49.5213C23.599 49.1107 23.8066 48.5373 23.8066 47.8761H23.2066C23.2066 48.4117 23.0401 48.8283 22.7744 49.1086C22.5102 49.3874 22.1247 49.5562 21.636 49.5562V50.1562ZM19.8277 50.1562H21.636V49.5562H19.8277V50.1562ZM17.6779 47.8979C17.6779 48.5495 17.8863 49.117 18.272 49.524C18.6589 49.9323 19.203 50.1562 19.8277 50.1562V49.5562C19.3509 49.5562 18.9701 49.3884 18.7075 49.1113C18.4436 48.8329 18.2779 48.4213 18.2779 47.8979H17.6779ZM17.6733 46.8757C17.6756 47.2167 17.6779 47.5574 17.6779 47.8979H18.2779C18.2779 47.555 18.2756 47.2123 18.2733 46.8716L17.6733 46.8757ZM17.6733 46.8736V46.8736H18.2733V46.8736H17.6733ZM17.678 44.8455C17.664 45.5168 17.6687 46.1971 17.6733 46.8756L18.2733 46.8716C18.2686 46.1915 18.2641 45.5196 18.2778 44.858L17.678 44.8455ZM17.5465 44.6998C17.6009 44.7188 17.6335 44.7335 17.6538 44.7451C17.6723 44.7557 17.6737 44.7598 17.6704 44.7557C17.6598 44.7423 17.6779 44.7469 17.6779 44.8517H18.2779C18.2779 44.6955 18.2545 44.526 18.1399 44.382C18.0315 44.2459 17.8772 44.1797 17.7442 44.1333L17.5465 44.6998ZM13.6873 39.3686C13.6873 41.9957 15.1183 43.9903 17.5612 44.7045L17.7295 44.1286C15.5582 43.4938 14.2873 41.7459 14.2873 39.3686H13.6873ZM13.6873 33.6679V39.3686H14.2873V33.6679H13.6873ZM14.4014 30.19C13.8798 31.3049 13.6873 32.4601 13.6873 33.6679H14.2873C14.2873 32.5258 14.4689 31.4617 14.9449 30.4443L14.4014 30.19ZM14.4075 30.1763C14.4434 30.1834 14.4706 30.1899 14.4911 30.1959C14.5012 30.1988 14.5089 30.2014 14.5146 30.2035C14.5204 30.2056 14.5235 30.2071 14.5246 30.2076C14.5273 30.2089 14.5178 30.2048 14.5042 30.1919C14.4971 30.1852 14.4892 30.1764 14.4815 30.1654C14.4738 30.1542 14.4671 30.1419 14.462 30.1289C14.4514 30.1023 14.4498 30.0803 14.4499 30.0687C14.45 30.0632 14.4504 30.06 14.4505 30.0598C14.4505 30.0595 14.4502 30.0613 14.4492 30.0657C14.4468 30.0749 14.4422 30.0899 14.4334 30.113C14.4247 30.1358 14.4133 30.1629 14.3987 30.1961L14.9477 30.4382C14.9792 30.3667 15.0119 30.288 15.031 30.2123C15.0497 30.1378 15.0664 30.0251 15.0194 29.907C14.9693 29.781 14.8715 29.709 14.7866 29.6678C14.7063 29.6288 14.6133 29.6053 14.5231 29.5876L14.4075 30.1763ZM12.7537 28.3914C12.8503 29.2759 13.5261 30.0486 14.4221 30.1788L14.5085 29.5851C13.9081 29.4978 13.4199 28.9649 13.3502 28.3263L12.7537 28.3914ZM12.7773 26.5224C12.6664 27.1497 12.69 27.7907 12.7536 28.3905L13.3503 28.3272C13.2892 27.7521 13.2713 27.1746 13.3682 26.627L12.7773 26.5224ZM15.8697 23.8161C14.274 23.8639 13.0279 24.9243 12.7764 26.5282L13.3691 26.6212C13.5748 25.3094 14.5735 24.4552 15.8876 24.4159L15.8697 23.8161ZM18.1321 23.8161C17.3781 23.7942 16.624 23.7942 15.8699 23.8161L15.8874 24.4159C16.6298 24.3943 17.3722 24.3943 18.1147 24.4159L18.1321 23.8161ZM18.4101 23.6033C18.3539 23.7308 18.3178 23.7689 18.2973 23.7839C18.2831 23.7943 18.2463 23.816 18.1234 23.816V24.416C18.3122 24.416 18.4937 24.3833 18.651 24.2686C18.8019 24.1585 18.8906 24.0008 18.9591 23.8454L18.4101 23.6033ZM25.8494 18.6158C24.129 18.6494 22.6316 19.0753 21.3785 19.9119C20.1256 20.7483 19.1362 21.9825 18.4108 23.6017L18.9584 23.847C19.6463 22.3113 20.5691 21.1737 21.7116 20.4109C22.854 19.6483 24.2352 19.2474 25.8611 19.2157L25.8494 18.6158ZM26.5496 19.37C26.5601 19.2044 26.5579 18.9806 26.4106 18.8129C26.2577 18.639 26.0313 18.6157 25.8553 18.6157V19.2157C25.9252 19.2157 25.9619 19.2218 25.9787 19.2266C25.9916 19.2302 25.977 19.2285 25.9599 19.209C25.9437 19.1906 25.9452 19.1789 25.9487 19.1982C25.9527 19.2202 25.9553 19.2609 25.9508 19.3318L26.5496 19.37ZM26.5671 19.7108C26.5538 19.5704 26.5441 19.4615 26.5496 19.3688L25.9507 19.333C25.9419 19.481 25.9576 19.6387 25.9698 19.7676L26.5671 19.7108ZM26.5685 19.7392V19.7392H25.9685V19.7392H26.5685ZM26.5685 19.7392V19.7392H25.9685V19.7392H26.5685ZM26.5685 19.7392V19.7392H25.9685V19.7392H26.5685ZM26.4672 20.5909C26.5572 20.4377 26.5829 20.2701 26.5882 20.1262C26.5935 19.9829 26.5788 19.8339 26.5671 19.7108L25.9698 19.7676C25.9823 19.8994 25.9922 20.0077 25.9886 20.1042C25.9851 20.2001 25.9687 20.2549 25.95 20.2868L26.4672 20.5909ZM25.5139 20.8673C25.6359 20.8821 25.8047 20.9041 25.9611 20.8875C26.1285 20.8698 26.3275 20.803 26.4588 20.6043L25.9584 20.2733C25.9563 20.2764 25.956 20.2767 25.953 20.2782C25.9472 20.2811 25.9312 20.2873 25.8977 20.2909C25.8227 20.2989 25.7266 20.2887 25.5862 20.2717L25.5139 20.8673ZM25.2305 20.847C25.3004 20.8424 25.388 20.852 25.5139 20.8673L25.5862 20.2717C25.4754 20.2582 25.3282 20.2393 25.1913 20.2483L25.2305 20.847ZM19.8367 26.8831C19.8764 23.7653 22.2398 21.1355 25.2397 20.8462L25.1821 20.249C21.8635 20.569 19.2802 23.4658 19.2368 26.8755L19.8367 26.8831ZM19.9968 27.1576C19.8884 27.1252 19.8714 27.0965 19.8677 27.0908C19.8576 27.0748 19.8367 27.0263 19.8367 26.8793H19.2367C19.2367 27.0587 19.2575 27.2495 19.3616 27.4131C19.4723 27.5869 19.6424 27.6779 19.8249 27.7324L19.9968 27.1576ZM21.8646 27.4714C21.2334 27.4714 20.6215 27.3683 20.0068 27.1608L19.8149 27.7293C20.4889 27.9569 21.1656 28.0714 21.8646 28.0714V27.4714ZM41.506 27.4714H21.8646V28.0714H41.506V27.4714ZM43.473 27.1373C42.808 27.3483 42.1742 27.4714 41.506 27.4714V28.0714C42.2512 28.0714 42.9476 27.9335 43.6544 27.7092L43.473 27.1373ZM43.5547 26.9881C43.5547 27.09 43.5396 27.1135 43.5405 27.112C43.5424 27.109 43.5442 27.1085 43.54 27.1113C43.534 27.1152 43.5174 27.1245 43.4813 27.1348L43.6461 27.7117C43.8049 27.6664 43.9532 27.5838 44.0494 27.4299C44.1386 27.287 44.1547 27.1255 44.1547 26.9881H43.5547ZM37.6797 20.8476C40.8691 20.8682 43.5149 23.6376 43.5547 26.9917L44.1547 26.9845C44.1113 23.3324 41.2284 20.2705 37.6836 20.2476L37.6797 20.8476ZM36.8205 19.9819C36.8205 20.2274 36.8517 20.4892 37.0416 20.6646C37.2252 20.8342 37.4804 20.8476 37.6817 20.8476V20.2476C37.5847 20.2476 37.5229 20.2422 37.4822 20.2334C37.4445 20.2252 37.442 20.2177 37.4487 20.2239C37.4565 20.231 37.4491 20.2306 37.4396 20.1949C37.429 20.1554 37.4205 20.0896 37.4205 19.9819H36.8205ZM36.8231 19.9041L36.8207 19.9712L37.4203 19.9926L37.4227 19.9255L36.8231 19.9041ZM38.2839 18.6403C38.0193 18.6037 37.7953 18.5747 37.6185 18.5743C37.4445 18.5739 37.2462 18.5994 37.091 18.74C36.9397 18.8771 36.8901 19.0698 36.8655 19.239C36.8401 19.4134 36.8325 19.6393 36.8231 19.9041L37.4227 19.9255C37.4326 19.6464 37.4397 19.4596 37.4593 19.3254C37.4796 19.186 37.5051 19.1744 37.4939 19.1846C37.4789 19.1982 37.4859 19.174 37.6171 19.1743C37.7454 19.1746 37.9265 19.1966 38.2018 19.2347L38.2839 18.6403ZM44.9816 23.6475C43.6704 20.6547 41.3756 19.0224 38.2796 18.6398L38.2061 19.2352C41.0961 19.5924 43.2075 21.0933 44.4321 23.8883L44.9816 23.6475ZM45.2472 23.8378C45.1276 23.8378 45.0951 23.8189 45.0846 23.8116C45.0705 23.8019 45.0362 23.7711 44.9814 23.6468L44.4323 23.8889C44.5023 24.0475 44.5927 24.2016 44.7448 24.3062C44.9005 24.4131 45.076 24.4378 45.2472 24.4378V23.8378ZM47.4386 23.8379C46.7052 23.816 45.9717 23.816 45.2383 23.8379L45.2562 24.4376C45.9777 24.416 46.6992 24.416 47.4207 24.4376L47.4386 23.8379ZM50.6395 27.2274C50.6395 26.2494 50.3271 25.405 49.7578 24.7998C49.1872 24.1933 48.3793 23.8496 47.4334 23.8378L47.4259 24.4377C48.2259 24.4477 48.8729 24.7349 49.3208 25.2109C49.7698 25.6882 50.0395 26.3778 50.0395 27.2274H50.6395ZM50.6395 27.8802V27.2274H50.0395V27.8802H50.6395ZM48.5727 30.2661C49.2424 30.1726 49.7772 29.9325 50.1384 29.5116C50.4998 29.0906 50.6506 28.5314 50.6394 27.8751L50.0395 27.8853C50.0491 28.4474 49.9193 28.8456 49.6831 29.1209C49.4468 29.3963 49.0671 29.5913 48.4897 29.6719L48.5727 30.2661ZM36.3515 39.5038H31.6957V40.1038H36.3515V39.5038ZM38.4408 39.5065C37.7446 39.5051 37.0481 39.5038 36.3515 39.5038V40.1038C37.0474 40.1038 37.7434 40.1051 38.4397 40.1065L38.4408 39.5065ZM44.7022 39.4821C42.6164 39.5147 40.5301 39.5106 38.4408 39.5065L38.4397 40.1065C40.5281 40.1106 42.6196 40.1147 44.7115 40.082L44.7022 39.4821ZM47.4641 36.8327C47.2922 38.3522 46.1365 39.4626 44.7028 39.4821L44.7109 40.082C46.478 40.058 47.8581 38.6878 48.0603 36.9001L47.4641 36.8327ZM47.5181 34.0913C47.5413 35.0301 47.5632 35.9334 47.464 36.8335L48.0604 36.8993C48.1648 35.9523 48.141 35.0085 48.1179 34.0765L47.5181 34.0913ZM47.518 34.0837V34.0839H48.118V34.0837H47.518ZM47.518 34.0835V34.0837H48.118V34.0835H47.518ZM47.518 34.0834V34.0835H48.118V34.0834H47.518ZM47.5038 33.4558C47.5076 33.6686 47.5129 33.8806 47.5181 34.0908L48.1179 34.0759C48.1127 33.8654 48.1075 33.6554 48.1037 33.4449L47.5038 33.4558ZM45.3892 29.0257C46.7758 30.1663 47.4839 31.6276 47.5038 33.4536L48.1037 33.4471C48.082 31.4437 47.2936 29.8152 45.7704 28.5624L45.3892 29.0257ZM44.9059 28.9402C45.0267 28.8896 45.1027 28.8845 45.1577 28.8939C45.2136 28.9035 45.2841 28.9342 45.3826 29.0201L45.777 28.568C45.6261 28.4363 45.4576 28.3365 45.2588 28.3025C45.0592 28.2684 44.8651 28.3068 44.6741 28.3868L44.9059 28.9402ZM41.0488 29.7033C42.3968 29.7033 43.6622 29.4565 44.905 28.9406L44.675 28.3864C43.5067 28.8714 42.3196 29.1033 41.0488 29.1033V29.7033ZM23.2583 29.7033C29.1811 29.6815 35.1248 29.6815 41.0477 29.7033L41.0499 29.1033C35.1255 29.0815 29.1804 29.0815 23.2561 29.1033L23.2583 29.7033ZM18.2875 28.8918C19.8915 29.6406 21.5939 29.7033 23.2572 29.7033V29.1033C21.595 29.1033 20.0134 29.0354 18.5413 28.3481L18.2875 28.8918ZM18.08 28.943C18.1447 28.8922 18.179 28.8798 18.1968 28.8763C18.209 28.8739 18.2363 28.8706 18.2985 28.8967L18.5303 28.3433C18.3846 28.2823 18.2353 28.2573 18.0812 28.2875C17.9327 28.3167 17.8111 28.3913 17.7095 28.4711L18.08 28.943ZM16.0054 32.1441C16.3005 30.8054 17.0263 29.7547 18.0778 28.9447L17.7117 28.4694C16.56 29.3565 15.7478 30.5251 15.4194 32.015L16.0054 32.1441ZM15.8447 35.3844C15.8127 34.274 15.783 33.1993 16.0059 32.1414L15.4188 32.0177C15.1788 33.1567 15.2132 34.3029 15.2449 35.4017L15.8447 35.3844ZM15.8669 36.54C15.8669 36.1539 15.8557 35.767 15.8447 35.3844L15.2449 35.4017C15.256 35.7857 15.2669 36.164 15.2669 36.54H15.8669ZM15.9775 37.2976C15.905 37.07 15.8669 36.7966 15.8669 36.54H15.2669C15.2669 36.8492 15.3119 37.185 15.4057 37.4796L15.9775 37.2976ZM18.8716 39.4603C17.4232 39.4603 16.3589 38.6545 15.9804 37.3075L15.4028 37.4698C15.8557 39.0818 17.1608 40.0603 18.8716 40.0603V39.4603ZM31.6957 39.5038C27.4346 39.5038 23.1753 39.5038 18.8747 39.4603L18.8686 40.0603C23.1728 40.1038 27.4351 40.1038 31.6957 40.1038V39.5038ZM43.8755 41.7574C45.2967 41.7574 46.6981 41.5579 47.944 40.4167L47.5388 39.9742C46.4568 40.9653 45.2393 41.1574 43.8755 41.1574V41.7574ZM19.1426 41.7574C27.3936 41.7357 35.6237 41.7357 43.8747 41.7574L43.8763 41.1574C35.6243 41.1357 27.393 41.1357 19.141 41.1574L19.1426 41.7574ZM17.3278 41.5264C17.9306 41.7133 18.5469 41.7574 19.1418 41.7574V41.1574C18.5729 41.1574 18.0252 41.1145 17.5056 40.9533L17.3278 41.5264ZM15.5492 40.5623C16.1068 40.9376 16.671 41.3201 17.3268 41.5261L17.5066 40.9536C16.9482 40.7783 16.4559 40.4494 15.8843 40.0645L15.5492 40.5623ZM15.5033 40.5313L15.5492 40.5623L15.8843 40.0645L15.8383 40.0336L15.5033 40.5313ZM18.7261 42.6588C17.3922 42.6588 16.2919 41.713 15.9638 40.2182L15.3778 40.3468C15.7564 42.0722 17.0671 43.2588 18.7261 43.2588V42.6588ZM44.6861 42.6588H18.7261V43.2588H44.6861V42.6588ZM47.448 40.1328C47.119 41.6727 45.9951 42.6394 44.6816 42.6588L44.6905 43.2587C46.3284 43.2346 47.6572 42.0254 48.0348 40.2581L47.448 40.1328ZM21.6685 44.8735V46.3531H22.2685V44.8735H21.6685ZM21.7244 44.846C21.7429 44.8444 21.7536 44.8447 21.7582 44.8451C21.7627 44.8454 21.7587 44.8456 21.7493 44.8424C21.7392 44.839 21.7247 44.8323 21.7093 44.8203C21.6938 44.8083 21.6821 44.7945 21.6739 44.7817C21.6662 44.7696 21.6632 44.7607 21.6625 44.7585C21.6619 44.7566 21.6629 44.7592 21.6642 44.7685C21.6655 44.7778 21.6666 44.7908 21.6674 44.8091C21.6682 44.8273 21.6685 44.8483 21.6685 44.8735H22.2685C22.2685 44.8173 22.2674 44.7509 22.2586 44.6868C22.2499 44.6233 22.2309 44.5393 22.18 44.4594C22.0543 44.262 21.841 44.2335 21.6723 44.2483L21.7244 44.846ZM19.7965 44.8469C20.427 44.8689 21.0783 44.8689 21.7088 44.8469L21.6879 44.2473C21.0713 44.2688 20.434 44.2688 19.8174 44.2473L19.7965 44.8469ZM19.8367 44.8517C19.8367 44.829 19.8373 44.811 19.8383 44.7966C19.8393 44.7821 19.8405 44.7735 19.8414 44.7691C19.8432 44.7596 19.8413 44.7789 19.8208 44.8047C19.8105 44.8177 19.7982 44.8286 19.7856 44.8369C19.7734 44.8449 19.7638 44.8485 19.7599 44.8498C19.7563 44.8509 19.7576 44.8501 19.766 44.8491C19.7743 44.8481 19.7875 44.8471 19.8069 44.8471V44.2471C19.6716 44.2471 19.4801 44.2694 19.3514 44.431C19.2398 44.5711 19.2367 44.7495 19.2367 44.8517H19.8367ZM19.8367 47.8544V44.8517H19.2367V47.8544H19.8367ZM19.9109 47.946C19.8615 47.946 19.8363 47.9408 19.8263 47.9378C19.8191 47.9356 19.8281 47.9372 19.8394 47.9491C19.8502 47.9604 19.8497 47.967 19.8461 47.9542C19.8419 47.9392 19.8367 47.9086 19.8367 47.8544H19.2367C19.2367 48.0199 19.2645 48.2159 19.4056 48.3635C19.55 48.5147 19.7461 48.546 19.9109 48.546V47.946ZM21.5649 47.9463C21.0165 47.9242 20.4472 47.9242 19.8988 47.9463L19.9229 48.5458C20.4553 48.5244 21.0084 48.5244 21.5408 48.5458L21.5649 47.9463ZM21.6685 47.7891C21.6685 47.8602 21.6638 47.9072 21.6572 47.9376C21.6508 47.9672 21.6454 47.9676 21.6533 47.9581C21.664 47.945 21.6757 47.9412 21.6721 47.9423C21.6635 47.9449 21.6346 47.9507 21.5724 47.9467L21.5333 48.5454C21.7367 48.5587 21.9639 48.5258 22.1175 48.3382C22.2522 48.1737 22.2685 47.9569 22.2685 47.7891H21.6685ZM21.664 46.8274C21.6594 47.1451 21.6545 47.4729 21.6688 47.8021L22.2683 47.7761C22.2548 47.4671 22.2592 47.1567 22.2639 46.8361L21.664 46.8274ZM21.6685 46.3531C21.6685 46.5101 21.6663 46.6675 21.664 46.8274L22.2639 46.8361C22.2662 46.6769 22.2685 46.5152 22.2685 46.3531H21.6685ZM41.707 46.8375C41.7046 46.6499 41.7021 46.4549 41.7021 46.2443H41.1021C41.1021 46.4593 41.1047 46.658 41.1071 46.8453L41.707 46.8375ZM41.7071 46.8415V46.8414H41.1071V46.8415H41.7071ZM41.7018 47.8451C41.7158 47.51 41.7115 47.1854 41.707 46.8377L41.1071 46.8454C41.1116 47.1959 41.1155 47.5041 41.1024 47.8202L41.7018 47.8451ZM41.797 47.946C41.741 47.946 41.7086 47.9406 41.6921 47.9359C41.6778 47.9318 41.6842 47.9308 41.6953 47.942C41.707 47.9538 41.7075 47.9624 41.7051 47.9527C41.7019 47.9399 41.6975 47.9097 41.7014 47.8531L41.1028 47.8122C41.0903 47.996 41.1139 48.2083 41.27 48.3652C41.4215 48.5174 41.6284 48.546 41.797 48.546V47.946ZM43.4095 47.9463C42.861 47.9242 42.3334 47.9242 41.7849 47.9463L41.8091 48.5458C42.3414 48.5244 42.853 48.5244 43.3854 48.5458L43.4095 47.9463ZM43.5339 47.7674C43.5339 47.8383 43.5292 47.8869 43.5221 47.9198C43.5152 47.9519 43.5087 47.9564 43.5134 47.9504C43.521 47.9409 43.5292 47.9387 43.5234 47.9405C43.5128 47.9439 43.4813 47.9506 43.4159 47.9466L43.379 48.5455C43.5991 48.559 43.8295 48.5167 43.9829 48.3241C44.117 48.1556 44.1339 47.9366 44.1339 47.7674H43.5339ZM43.5293 46.1361C43.5247 46.6792 43.52 47.2316 43.534 47.7751L44.1338 47.7596C44.1201 47.2281 44.1247 46.6861 44.1293 46.1412L43.5293 46.1361ZM43.5339 45.3304C43.5339 45.5965 43.5316 45.8652 43.5293 46.1361L44.1293 46.1412C44.1316 45.8707 44.1339 45.5995 44.1339 45.3304H43.5339ZM43.5272 44.8752C43.4998 44.8479 43.5139 44.8321 43.5238 44.9213C43.5335 45.0081 43.5339 45.1316 43.5339 45.3304H44.1339C44.1339 45.1463 44.1343 44.983 44.1202 44.8552C44.1063 44.7298 44.0729 44.5716 43.9502 44.4496L43.5272 44.8752ZM43.0857 44.8689C43.2789 44.8689 43.3987 44.8693 43.4832 44.8787C43.5697 44.8884 43.5543 44.902 43.5272 44.8752L43.9502 44.4496C43.8291 44.3292 43.6731 44.2962 43.5496 44.2824C43.424 44.2684 43.2643 44.2689 43.0857 44.2689V44.8689ZM42.5547 44.8349C42.7255 44.851 42.9132 44.8689 43.0857 44.8689V44.2689C42.9468 44.2689 42.7887 44.2543 42.6109 44.2376L42.5547 44.8349ZM41.7151 44.871C41.7375 44.8493 41.8047 44.8138 41.9761 44.805C42.1394 44.7965 42.3335 44.8141 42.5547 44.8349L42.6109 44.2376C42.4014 44.2179 42.1607 44.1946 41.9451 44.2058C41.7375 44.2165 41.4817 44.2612 41.2969 44.4408L41.7151 44.871ZM41.6762 45.6152C41.6545 45.4164 41.6369 45.2477 41.6457 45.1044C41.6545 44.9601 41.6874 44.8982 41.7162 44.87L41.2959 44.4418C41.1112 44.6231 41.0591 44.8648 41.0468 45.0679C41.0344 45.272 41.0595 45.4945 41.0798 45.6803L41.6762 45.6152ZM41.6996 46.283C41.7275 46.0684 41.6984 45.8181 41.6762 45.6152L41.0798 45.6803C41.1045 45.9065 41.1213 46.0773 41.1046 46.2055L41.6996 46.283ZM46.2547 26.0527C46.3638 26.0502 46.4697 26.0479 46.5775 26.0479V25.4479C46.4619 25.4479 46.3493 25.4504 46.2413 25.4528L46.2547 26.0527ZM45.581 26.0472C45.8171 26.0627 46.0418 26.0575 46.2547 26.0527L46.2413 25.4528C46.0247 25.4577 45.8259 25.462 45.6202 25.4485L45.581 26.0472ZM45.6087 26.0287C45.6067 26.0039 45.6063 25.9857 45.6066 25.9728C45.607 25.9598 45.6081 25.9548 45.6079 25.9555C45.6077 25.9566 45.6058 25.9655 45.599 25.9787C45.5956 25.9853 45.5911 25.9927 45.5854 26.0003C45.5797 26.0079 45.5731 26.0152 45.5659 26.0219C45.5512 26.0356 45.5369 26.0439 45.527 26.0484C45.5177 26.0526 45.513 26.0533 45.5163 26.0526C45.5196 26.0519 45.5277 26.0506 45.5427 26.0495C45.5575 26.0485 45.5764 26.0479 45.6006 26.0479V25.4479C45.5375 25.4479 45.4652 25.4505 45.3952 25.4649C45.3233 25.4797 45.2343 25.5109 45.1572 25.5827C44.9987 25.7302 44.9998 25.9407 45.0105 26.0763L45.6087 26.0287ZM45.897 26.6551C45.6978 26.516 45.6473 26.3506 45.6075 26.0169L45.0117 26.0881C45.055 26.4507 45.1293 26.851 45.5536 27.1471L45.897 26.6551ZM47.4029 27.9194C46.9272 27.4864 46.436 27.0388 45.8993 26.6567L45.5513 27.1455C46.0538 27.5031 46.5186 27.9258 46.999 28.3631L47.4029 27.9194ZM47.4062 27.9224L47.4061 27.9224L46.9958 28.3601L46.9958 28.3602L47.4062 27.9224ZM47.5959 28.0154C47.5355 28.0154 47.5002 28.0042 47.3982 27.9152L47.0038 28.3674C47.1512 28.496 47.3238 28.6154 47.5959 28.6154V28.0154ZM48.1554 28.0168C48.0055 28.0147 47.819 28.0121 47.5915 28.0154L47.6003 28.6153C47.8185 28.6122 47.9975 28.6146 48.147 28.6167L48.1554 28.0168ZM48.5342 28.0357C48.5742 27.993 48.6089 28.0055 48.5274 28.0132C48.4513 28.0205 48.3402 28.0194 48.1554 28.0168L48.147 28.6167C48.3168 28.6191 48.4676 28.6216 48.5843 28.6105C48.6956 28.5999 48.854 28.5719 48.972 28.446L48.5342 28.0357ZM48.5098 27.7448C48.5149 27.8934 48.5175 27.9808 48.5127 28.0416C48.5077 28.1046 48.4981 28.0742 48.5342 28.0357L48.972 28.446C49.0793 28.3314 49.1029 28.1891 49.1108 28.0887C49.1189 27.986 49.1141 27.8583 49.1095 27.7243L48.5098 27.7448ZM48.5097 27.7345V27.7346H49.1097V27.7345H48.5097ZM48.5097 27.7344V27.7345H49.1097V27.7344H48.5097ZM48.5097 27.7344V27.7344H49.1097V27.7344H48.5097ZM48.5014 27.1359C48.4977 27.3889 48.5046 27.5898 48.5098 27.7446L49.1095 27.7241C49.1042 27.5703 49.0978 27.3821 49.1014 27.1449L48.5014 27.1359ZM47.5378 26.0692C47.8726 26.0876 48.1095 26.2001 48.2613 26.3646C48.4129 26.5291 48.5104 26.7792 48.5015 27.1329L49.1013 27.148C49.1132 26.6748 48.9821 26.2613 48.7024 25.9579C48.4229 25.6547 48.0258 25.4952 47.5708 25.4701L47.5378 26.0692ZM47.0581 26.0588C47.2234 26.0588 47.3799 26.0589 47.5347 26.069L47.5739 25.4703C47.3963 25.4587 47.2202 25.4588 47.0581 25.4588V26.0588ZM47.0581 26.0588H47.0581V25.4588H47.0581V26.0588ZM46.5566 26.0471C46.7247 26.0589 46.8965 26.0588 47.0581 26.0588V25.4588C46.8924 25.4588 46.742 25.4586 46.5983 25.4486L46.5566 26.0471ZM14.8682 27.8421C14.8769 27.788 14.8897 27.7111 14.8924 27.6367C14.8951 27.5645 14.8908 27.4544 14.8342 27.3479L14.3042 27.6292C14.2951 27.612 14.293 27.5996 14.2927 27.5979C14.2925 27.5964 14.2933 27.6011 14.2928 27.6146C14.2924 27.6279 14.2908 27.6453 14.2877 27.6686C14.2846 27.692 14.2806 27.7169 14.2758 27.7471L14.8682 27.8421ZM14.808 27.965C14.8025 27.9632 14.8177 27.9675 14.8341 27.9875C14.8494 28.0063 14.8515 28.0215 14.8509 28.0181C14.85 28.0124 14.8486 27.996 14.8515 27.9623C14.8545 27.9286 14.8603 27.8915 14.8682 27.8421L14.2758 27.7471C14.263 27.8271 14.2355 27.9775 14.2593 28.1181C14.2726 28.1965 14.3032 28.2859 14.3692 28.3668C14.4363 28.4491 14.5244 28.5035 14.6214 28.5352L14.808 27.965ZM15.8389 27.9924C15.7503 28.062 15.6083 28.1013 15.4111 28.0944C15.2175 28.0877 15.0053 28.0371 14.8179 27.9684L14.6115 28.5318C14.8398 28.6154 15.1161 28.6845 15.3902 28.6941C15.6606 28.7035 15.9655 28.6558 16.2094 28.4643L15.8389 27.9924ZM17.6938 26.4608C17.0964 26.9999 16.4803 27.5157 15.8452 27.9875L16.2031 28.4691C16.8567 27.9836 17.4877 27.455 18.0958 26.9062L17.6938 26.4608ZM17.744 25.9256C17.7648 26.0561 17.7793 26.1753 17.77 26.2785C17.7611 26.3776 17.7334 26.4267 17.6996 26.4556L18.0899 26.9113C18.2847 26.7445 18.3506 26.5215 18.3676 26.3324C18.3843 26.1472 18.3573 25.9619 18.3365 25.8313L17.744 25.9256ZM17.7331 26.0489C17.7737 26.0422 17.802 26.0376 17.8272 26.0353C17.8528 26.033 17.859 26.0349 17.8538 26.0339C17.846 26.0325 17.815 26.0248 17.7841 25.9948C17.7522 25.9638 17.7453 25.9331 17.7447 25.9298L18.3358 25.8271C18.3197 25.734 18.2797 25.6397 18.202 25.5643C18.1255 25.49 18.0362 25.4574 17.9625 25.4438C17.8342 25.4202 17.6955 25.4469 17.635 25.4569L17.7331 26.0489ZM17.7568 26.044L17.7568 26.044L17.6113 25.4619L17.6113 25.4619L17.7568 26.044ZM17.5414 26.0696C17.613 26.0696 17.6893 26.0561 17.7331 26.0489L17.635 25.4569C17.5759 25.4667 17.5532 25.4696 17.5414 25.4696V26.0696ZM16.6077 26.0647C16.9208 26.0599 17.2205 26.0553 17.5278 26.0693L17.5551 25.4699C17.2266 25.455 16.9088 25.46 16.5984 25.4648L16.6077 26.0647ZM16.603 26.0648H16.6031V25.4648H16.603V26.0648ZM16.603 26.0648H16.603V25.4648H16.603V26.0648ZM16.603 26.0648H16.603V25.4648H16.603V26.0648ZM16.6121 26.0646L16.6122 26.0646L16.5939 25.4649L16.5938 25.4649L16.6121 26.0646ZM16.1281 26.0696C16.2909 26.0696 16.4509 26.0672 16.6076 26.0647L16.5983 25.4648C16.4409 25.4672 16.2855 25.4696 16.1281 25.4696V26.0696ZM14.8692 27.4885C14.8692 26.8626 14.9743 26.5324 15.1411 26.3504C15.3009 26.1761 15.5819 26.0696 16.1281 26.0696V25.4696C15.5311 25.4696 15.0327 25.5807 14.6988 25.945C14.372 26.3015 14.2692 26.8307 14.2692 27.4885H14.8692ZM36.4139 31.6708H31.6958V32.2708H36.4139V31.6708ZM37.6421 33.2974C37.7415 32.8467 37.7365 32.422 37.5055 32.1064C37.2684 31.7825 36.867 31.6708 36.4139 31.6708V32.2708C36.7921 32.2708 36.9519 32.3659 37.0213 32.4608C37.097 32.5641 37.1439 32.7703 37.0562 33.1682L37.6421 33.2974ZM37.4976 33.9146L37.6413 33.3012L37.0571 33.1644L36.9134 33.7778L37.4976 33.9146ZM37.4978 33.9138L37.4978 33.9137L36.9132 33.7787L36.9132 33.7789L37.4978 33.9138ZM37.4978 33.914L37.4978 33.9138L36.9132 33.7789L36.9131 33.779L37.4978 33.914ZM37.4977 33.9141L37.4978 33.914L36.9131 33.779L36.9131 33.7792L37.4977 33.9141ZM36.7464 37.0484C37.0075 36.0095 37.2541 34.9557 37.4975 33.915L36.9133 33.7783C36.6696 34.8199 36.4242 35.8688 36.1645 36.9021L36.7464 37.0484ZM35.4993 38.0586C35.8121 38.0586 36.1062 38.0228 36.3368 37.8374C36.566 37.6532 36.6724 37.3695 36.7478 37.0427L36.1631 36.9079C36.093 37.212 36.0227 37.32 35.9609 37.3697C35.9006 37.4182 35.7894 37.4586 35.4993 37.4586V38.0586ZM27.8714 38.0586H35.4993V37.4586H27.8714V38.0586ZM26.6033 37.0036C26.687 37.3435 26.7925 37.6376 27.0184 37.8277C27.2513 38.0236 27.5503 38.0586 27.8714 38.0586V37.4586C27.569 37.4586 27.4627 37.4174 27.4046 37.3685C27.3395 37.3138 27.2683 37.1945 27.1858 36.8599L26.6033 37.0036ZM26.1456 35.109C26.2962 35.7396 26.4471 36.3716 26.6033 37.0037L27.1858 36.8598C27.0303 36.2303 26.8799 35.6006 26.7292 34.9696L26.1456 35.109ZM26.1457 35.1095L26.1458 35.1097L26.729 34.9689L26.729 34.9687L26.1457 35.1095ZM26.1457 35.1093L26.1457 35.1095L26.729 34.9687L26.7289 34.9685L26.1457 35.1093ZM26.1456 35.1092L26.1457 35.1093L26.7289 34.9685L26.7289 34.9684L26.1456 35.1092ZM25.6888 33.2177C25.8443 33.8474 25.9947 34.4773 26.1455 35.1085L26.7291 34.9691C26.5784 34.3383 26.4275 33.7062 26.2713 33.0738L25.6888 33.2177ZM26.865 31.6492C26.4393 31.6616 26.0683 31.7944 25.8426 32.0999C25.6196 32.4019 25.5943 32.7978 25.6873 33.2116L26.2727 33.08C26.1994 32.754 26.2469 32.5625 26.3252 32.4564C26.4009 32.354 26.5599 32.2583 26.8825 32.249L26.865 31.6492ZM31.6958 31.6708C30.095 31.6708 28.4966 31.6708 26.8778 31.6491L26.8697 32.2491C28.4933 32.2708 30.0957 32.2708 31.6958 32.2708V31.6708ZM28.0793 33.9027H31.7166V33.3027H28.0793V33.9027ZM28.0969 33.888C28.0884 33.8591 28.0828 33.8364 28.0794 33.8187C28.076 33.8007 28.0753 33.7909 28.0752 33.7874C28.0751 33.7838 28.0757 33.7905 28.0724 33.8038C28.0707 33.8106 28.068 33.8191 28.0636 33.8287C28.0592 33.8384 28.0535 33.8483 28.0464 33.8581C28.0393 33.8679 28.0314 33.8766 28.0233 33.8839C28.0152 33.8913 28.0075 33.8968 28.001 33.9008C27.9882 33.9086 27.9804 33.9105 27.9826 33.9099C27.9848 33.9093 27.9932 33.9072 28.0105 33.9055C28.0275 33.9038 28.05 33.9027 28.0793 33.9027V33.3027C27.9957 33.3027 27.9061 33.3085 27.8226 33.3316C27.736 33.3556 27.6346 33.4043 27.5613 33.5051C27.4886 33.605 27.473 33.7155 27.4754 33.8036C27.4777 33.8894 27.4975 33.9766 27.5212 34.0572L28.0969 33.888ZM28.5398 35.7857C28.4139 35.1486 28.2669 34.5106 28.0985 33.8936L27.5196 34.0516C27.6838 34.6531 27.8277 35.2771 27.9512 35.902L28.5398 35.7857ZM28.6404 35.8702C28.5426 35.8702 28.5392 35.8515 28.5565 35.8658C28.5748 35.881 28.557 35.8838 28.5411 35.7925L27.95 35.8952C27.9757 36.0432 28.0305 36.2092 28.1736 36.3278C28.3155 36.4454 28.4888 36.4702 28.6404 36.4702V35.8702ZM34.7719 35.8702H28.6404V36.4702H34.7719V35.8702ZM34.875 35.7742C34.8491 35.8826 34.8285 35.883 34.8464 35.869C34.8652 35.8543 34.867 35.8702 34.7719 35.8702V36.4702C34.9054 36.4702 35.0735 36.4535 35.2169 36.3409C35.3596 36.2289 35.4221 36.0661 35.4586 35.9135L34.875 35.7742ZM35.1506 34.5719C35.053 34.9697 34.9541 35.3726 34.8725 35.7857L35.4611 35.902C35.5396 35.5045 35.6352 35.1148 35.7334 34.7149L35.1506 34.5719ZM35.151 34.5706L35.151 34.5707L35.733 34.7162L35.7331 34.7161L35.151 34.5706ZM35.3109 33.9052C35.2594 34.1285 35.2052 34.3494 35.1507 34.5719L35.7334 34.7149C35.7878 34.4931 35.843 34.2681 35.8956 34.04L35.3109 33.9052ZM35.3331 33.9027C35.3624 33.9027 35.3848 33.9038 35.4018 33.9055C35.4191 33.9072 35.4275 33.9093 35.4297 33.9099C35.4319 33.9105 35.4241 33.9086 35.4114 33.9008C35.4048 33.8968 35.3971 33.8913 35.389 33.8839C35.3809 33.8766 35.373 33.8679 35.3659 33.8581C35.3588 33.8483 35.3531 33.8384 35.3487 33.8287C35.3444 33.8191 35.3416 33.8106 35.3399 33.8038C35.3366 33.7905 35.3372 33.7838 35.3371 33.7874C35.3371 33.7909 35.3364 33.8007 35.3329 33.8187C35.3295 33.8364 35.3239 33.8591 35.3154 33.888L35.8911 34.0572C35.9148 33.9766 35.9346 33.8894 35.9369 33.8036C35.9393 33.7155 35.9237 33.605 35.851 33.5051C35.7777 33.4043 35.6763 33.3556 35.5897 33.3316C35.5062 33.3085 35.4166 33.3027 35.3331 33.3027V33.9027ZM31.7166 33.9027H35.3331V33.3027H31.7166V33.9027ZM20.7425 37.4586C19.3838 37.4586 18.2594 36.2804 18.2781 34.8469L17.6782 34.839C17.6554 36.5822 19.0251 38.0586 20.7425 38.0586V37.4586ZM23.2277 34.9043C23.2089 36.3419 22.0836 37.4778 20.7468 37.4586L20.7382 38.0585C22.4359 38.0829 23.8049 36.6513 23.8276 34.9121L23.2277 34.9043ZM20.7633 32.2708C22.0965 32.2708 23.2276 33.4665 23.2276 34.9082H23.8276C23.8276 33.1732 22.4647 31.6708 20.7633 31.6708V32.2708ZM18.2781 34.8469C18.2969 33.4321 19.443 32.2708 20.7633 32.2708V31.6708C19.0906 31.6708 17.701 33.1206 17.6782 34.839L18.2781 34.8469ZM22.2687 34.834C22.2436 33.9937 21.5873 33.281 20.7425 33.281V33.881C21.2279 33.881 21.6524 34.2997 21.6689 34.8519L22.2687 34.834ZM20.7841 36.4267C21.6375 36.4267 22.2688 35.7031 22.2688 34.8429H21.6688C21.6688 35.4188 21.2609 35.8267 20.7841 35.8267V36.4267ZM19.237 34.8647C19.237 35.7366 19.9024 36.454 20.7933 36.4265L20.7748 35.8268C20.2524 35.8429 19.837 35.4289 19.837 34.8647H19.237ZM20.7425 33.281C19.8925 33.281 19.237 34.0227 19.237 34.8647H19.837C19.837 34.3142 20.2623 33.881 20.7425 33.881V33.281ZM39.5436 34.9122C39.5664 36.6554 40.9381 38.0586 42.6287 38.0586V37.4586C41.2847 37.4586 40.1623 36.3378 40.1435 34.9043L39.5436 34.9122ZM42.5871 31.6709C40.8876 31.6709 39.5208 33.1502 39.5436 34.9121L40.1435 34.9044C40.1247 33.446 41.2521 32.2709 42.5871 32.2709V31.6709ZM45.6722 34.8865C45.6722 33.1496 44.2857 31.6465 42.5828 31.6709L42.5914 32.2708C43.9231 32.2517 45.0723 33.4466 45.0723 34.8865H45.6722ZM42.6287 38.0586C44.3209 38.0586 45.6951 36.6302 45.6722 34.8826L45.0723 34.8904C45.091 36.3194 43.971 37.4586 42.6287 37.4586V38.0586ZM43.5343 34.8993C43.518 35.4446 43.0999 35.8485 42.6079 35.8485V36.4485C43.4462 36.4485 44.1088 35.7644 44.1341 34.9172L43.5343 34.8993ZM42.6079 33.9027C43.1166 33.9027 43.5504 34.3424 43.5343 34.8996L44.1341 34.9169C44.1595 34.0381 43.471 33.3027 42.6079 33.3027V33.9027ZM41.7024 34.8865C41.7024 34.336 42.1277 33.9027 42.6079 33.9027V33.3027C41.7579 33.3027 41.1024 34.0445 41.1024 34.8865H41.7024ZM42.6177 35.8486C42.1147 35.8322 41.7024 35.4212 41.7024 34.8865H41.1024C41.1024 35.7443 41.7709 36.4212 42.5981 36.4483L42.6177 35.8486Z" fill="#DA001A"/>
<defs>
<linearGradient id="paint0_linear_23_947" x1="57.6875" y1="1.65747e-06" x2="32.5" y2="65" gradientUnits="userSpaceOnUse">
<stop stop-color="#FCDAD7"/>
<stop offset="1" stop-color="#FCE9E7"/>
</linearGradient>
</defs>
</svg>
