<svg width="24" height="24" viewBox="0 0 24 24" fill="none" xmlns="http://www.w3.org/2000/svg">
<path d="M4.5 5.5H19.5V7H4.5V5.5Z" fill="#424242"/>
<path d="M2 12.5H22V9C22 7.9 21.1 7 20 7H4C2.9 7 2 7.9 2 9V12.5Z" fill="#616161"/>
<path d="M4 18H20C21.1 18 22 17.1 22 16V12H2V16C2 17.1 2.9 18 4 18Z" fill="#424242"/>
<path d="M20 9.5C20.2761 9.5 20.5 9.27614 20.5 9C20.5 8.72386 20.2761 8.5 20 8.5C19.7239 8.5 19.5 8.72386 19.5 9C19.5 9.27614 19.7239 9.5 20 9.5Z" fill="#00E676"/>
<path d="M5.5 2H18.5V7H5.5V2Z" fill="#0053AF"/>
<path d="M18.75 15.5H5.25C4.85 15.5 4.5 15.15 4.5 14.75C4.5 14.35 4.85 14 5.25 14H18.75C19.15 14 19.5 14.35 19.5 14.75C19.5 15.15 19.15 15.5 18.75 15.5Z" fill="#242424"/>
<path d="M5.5 15.5H18.5V21H5.5V15.5Z" fill="#0053AF"/>
<path d="M5.5 14.5H18.5V15.5H5.5V14.5Z" fill="#42A5F5"/>
<path d="M8 16.5H16.5V17.5H8V16.5ZM8 18.5H14.5V19.5H8V18.5Z" fill="#630040"/>
</svg>
