<svg width="20" height="20" viewBox="0 0 20 20" fill="none" xmlns="http://www.w3.org/2000/svg">
<path d="M9.25766 20.0003C9.03891 19.9133 8.80401 19.9274 8.57693 19.8961C6.95086 19.6575 5.40867 19.0217 4.08682 18.0451L3.94516 17.9409C3.94099 17.9409 3.93318 17.9409 3.90557 17.9435C3.92328 18.1394 3.93318 18.3367 3.96234 18.531C3.97849 18.6399 3.94151 18.6654 3.84307 18.6732C3.47849 18.7024 3.11651 18.7305 2.75557 18.7774C2.62745 18.794 2.59932 18.7524 2.58839 18.6414C2.5363 18.0685 2.47745 17.5019 2.42172 16.9321C2.40297 16.7383 2.38734 16.5435 2.36599 16.3498C2.31859 15.9237 2.60297 15.5685 3.03213 15.5612C3.81963 15.5482 4.60714 15.5581 5.39464 15.5545C5.48891 15.5545 5.51807 15.5821 5.51703 15.6758C5.51252 16.0529 5.51252 16.4303 5.51703 16.8081C5.51703 16.906 5.4837 16.9279 5.39411 16.9253C5.19464 16.9196 4.99463 16.9253 4.74568 16.9253C5.12201 17.2198 5.52537 17.4781 5.95036 17.6966C7.34984 18.4352 8.84464 18.8076 10.4212 18.6966C13.854 18.456 16.3827 16.7805 17.8774 13.6862C19.0415 11.2769 18.9978 8.80133 17.9071 6.35342C17.8551 6.23362 17.8728 6.19144 17.9853 6.1404C18.2863 6.00394 18.5837 5.85862 18.8785 5.70914C18.9733 5.66123 19.0165 5.66852 19.0639 5.77164C19.5076 6.72739 19.7989 7.74666 19.9274 8.79248C19.9446 8.93467 19.9202 9.08675 20.0004 9.21904V10.7815C19.9399 10.8039 19.966 10.8581 19.9603 10.8987C19.929 11.1305 19.9082 11.3638 19.8691 11.594C19.5333 13.6275 18.572 15.5057 17.1191 16.9675C15.5566 18.5597 13.6733 19.5456 11.4613 19.892C11.2087 19.931 10.9504 19.9237 10.7035 20.0003H9.25766Z" fill="#013E6B"/>
<path d="M10.7032 0.000130653C10.9287 0.0829432 11.1719 0.0688807 11.4021 0.104297C13.0618 0.342615 14.6342 0.996546 15.9735 2.00534C16.0037 2.02773 16.0355 2.04805 16.0969 2.09023C16.0766 1.86523 16.0667 1.66836 16.0381 1.47461C16.0224 1.36732 16.0558 1.33919 16.1558 1.33086C16.525 1.29961 16.8943 1.26784 17.262 1.22201C17.3886 1.20638 17.4016 1.26576 17.4104 1.35898C17.4625 1.92826 17.5219 2.49805 17.5776 3.06732C17.5969 3.26159 17.612 3.45638 17.6334 3.65013C17.6813 4.08555 17.3927 4.43919 16.9526 4.44544C16.1714 4.45638 15.3901 4.44544 14.6089 4.45117C14.5131 4.45117 14.4886 4.42096 14.4896 4.3293C14.4938 3.95169 14.4948 3.57461 14.4896 3.19701C14.4896 3.09857 14.5224 3.07774 14.6125 3.08034C14.8073 3.08659 15.0026 3.08034 15.199 3.08034C15.224 3.01263 15.1604 3.00378 15.1308 2.98242C13.3943 1.7293 11.4563 1.11836 9.32087 1.32721C5.72712 1.67826 3.21566 3.5694 1.87034 6.90638C0.968261 9.14596 1.09326 11.4074 2.07868 13.6132C2.14847 13.7694 2.11774 13.8142 1.97816 13.8736C1.6818 14.0043 1.3917 14.1501 1.10316 14.297C1.01878 14.3402 0.983887 14.3277 0.944304 14.2449C0.501168 13.2965 0.208258 12.2849 0.0760759 11.2465C0.0583675 11.1038 0.0807617 10.9517 -0.000488281 10.8199V9.17982C0.0515951 9.16523 0.0359721 9.11888 0.0406596 9.08398C0.0703471 8.85846 0.0927404 8.63138 0.129199 8.4069C0.483886 6.35117 1.38753 4.56888 2.83753 3.07409C4.40732 1.45951 6.3042 0.457422 8.53805 0.105338C8.75107 0.0720051 8.97295 0.0876302 9.1766 -0.00195312H10.1532C10.2964 0.0470052 10.4396 0.0766927 10.5828 -0.00195312L10.7032 0.000130653Z" fill="#013E6B"/>
<path d="M10.5859 0C10.4427 0.0786458 10.2995 0.0489583 10.1562 0H10.5859Z" fill="#013E6B"/>
<path d="M15.0943 8.64235V8.7986C15.0943 10.6538 15.0943 12.509 15.0943 14.3642C15.0943 14.4621 15.0989 14.5397 14.9797 14.5965C13.2356 15.4298 11.493 16.2658 9.75207 17.1043C9.7302 17.1147 9.70624 17.12 9.67135 17.1319C9.67135 17.0689 9.66457 17.0189 9.66457 16.9684C9.66457 15.2302 9.66457 13.4923 9.66457 11.7548C9.65894 11.7051 9.6694 11.6548 9.69443 11.6114C9.71945 11.568 9.75773 11.5338 9.80364 11.5137C11.5127 10.5804 13.2198 9.64443 14.925 8.70589C14.9729 8.6762 15.0182 8.63558 15.0943 8.64235Z" fill="#013E6B"/>
<path d="M3.60205 7.29121C3.93695 7.12819 4.2557 6.97194 4.57549 6.81777C5.94841 6.15597 7.32115 5.49416 8.69372 4.83236C8.79788 4.78288 8.8807 4.75944 8.99893 4.81673C10.6632 5.62159 12.3298 6.42229 13.9989 7.21881C14.038 7.23756 14.089 7.24433 14.1151 7.30631L12.2979 8.30215C11.1996 8.90458 10.1017 9.5077 9.00414 10.1115C8.91143 10.1636 8.84111 10.1797 8.73903 10.1235C7.03486 9.18079 5.32965 8.24277 3.60205 7.29121Z" fill="#013E6B"/>
</svg>
