<svg width="65" height="65" viewBox="0 0 65 65" fill="none" xmlns="http://www.w3.org/2000/svg">
<circle cx="32.5" cy="32.5" r="32.5" transform="matrix(-1 0 0 1 65 0)" fill="#FFF8E5"/>
<path d="M31.7998 22.8451C28.5841 22.8777 25.8308 24.037 23.5481 26.3197C21.2678 28.6001 20.1085 31.35 20.0736 34.5615H17.0257C17.0445 32.5726 17.4382 30.6969 18.206 28.9329C18.9944 27.1217 20.0647 25.5406 21.4168 24.1884C22.7701 22.8352 24.3517 21.7649 26.1629 20.9777C27.9712 20.1916 29.8964 19.7977 31.9399 19.7966C33.6531 19.7966 35.2962 20.0729 36.87 20.6251C38.4448 21.1777 39.9235 21.9791 41.3065 23.0301L41.4107 23.1093L41.5033 23.0167L43.7406 20.7794L45.8719 22.9107L43.6346 25.148L43.542 25.2406L43.6212 25.3448C44.6722 26.7278 45.4736 28.2065 46.0262 29.7814C46.5623 31.3092 46.8383 32.9023 46.854 34.5615H43.8061C43.7712 31.35 42.6119 28.6001 40.3316 26.3197C38.0543 24.0425 35.3088 22.8833 32.1029 22.8453C32.0487 22.8447 31.9943 22.8444 31.9398 22.8444C31.8931 22.8444 31.8464 22.8446 31.7998 22.8451ZM20.3727 34.7115C20.3727 34.191 20.4027 33.683 20.4625 33.1876H25.2444C25.5249 33.1876 25.793 33.2577 26.0507 33.3999C26.2998 33.5375 26.4875 33.7423 26.6144 34.0205L26.6143 34.0205L26.6167 34.0253L28.4579 37.7078L28.5921 37.9762L28.7263 37.7078L33.9153 27.3298L33.9153 27.3298L33.9164 27.3275C34.0602 27.0269 34.2454 26.8099 34.4686 26.6673C34.6917 26.5247 34.9625 26.4503 35.2876 26.4503C35.6127 26.4503 35.8834 26.5247 36.1065 26.6673C36.3298 26.8099 36.515 27.0269 36.6588 27.3275L36.6587 27.3275L36.6599 27.3298L39.5473 33.1047L39.5888 33.1876H39.6815H43.4172C43.477 33.683 43.507 34.191 43.507 34.7115C43.507 35.2319 43.477 35.7399 43.4172 36.2353H38.6353C38.3546 36.2353 38.0864 36.1657 37.8286 36.0245C37.58 35.8882 37.3925 35.6832 37.2655 35.4028L37.2656 35.4028L37.263 35.3976L35.4218 31.7151L35.2876 31.4468L35.1534 31.7151L29.9644 42.0931L29.9644 42.0931L29.9633 42.0955C29.8195 42.396 29.6343 42.613 29.4111 42.7556C29.188 42.8982 28.9172 42.9727 28.5921 42.9727C28.267 42.9727 27.9963 42.8982 27.7732 42.7556C27.5499 42.613 27.3647 42.396 27.2209 42.0955L27.221 42.0955L27.2198 42.0931L24.3324 36.3183L24.2909 36.2353H24.1982H20.4625C20.4027 35.7399 20.3727 35.2319 20.3727 34.7115ZM31.9398 46.5786C32.01 46.5786 32.0799 46.578 32.1497 46.577C35.3355 46.5284 38.0654 45.3694 40.3316 43.1032C42.6119 40.8229 43.7712 38.0729 43.8061 34.8615H46.854C46.8352 36.8503 46.4421 38.7261 45.6753 40.4901C44.8881 42.3013 43.8173 43.8823 42.463 45.2344L42.4629 45.2345C41.1096 46.5878 39.528 47.6586 37.7168 48.447C35.9085 49.2341 33.9834 49.6274 31.9399 49.6263H31.9398C29.8952 49.6263 27.9701 49.233 26.1629 48.447C24.3529 47.6597 22.7712 46.5889 21.4168 45.2345C20.0636 43.8812 18.9933 42.2996 18.206 40.4885C17.4393 38.7244 17.0457 36.8492 17.0258 34.8615H20.0736C20.1085 38.0729 21.2678 40.8229 23.5481 43.1032C25.8102 45.3652 28.5343 46.5241 31.7126 46.5767C31.7881 46.5779 31.8639 46.5786 31.9398 46.5786ZM31.9398 49.7763C29.8754 49.7763 27.9298 49.379 26.1031 48.5845C24.2763 47.79 22.6789 46.7087 21.3108 45.3406C19.9438 43.9736 18.863 42.3761 18.0685 40.5483C17.2932 38.7647 16.8957 36.8691 16.8758 34.8615L31.9398 49.7763ZM27.0682 17.8227V14.775H36.8115V17.8227H27.0682Z" fill="#FFC709" stroke="#FFF8E5" stroke-width="0.3"/>
</svg>
