<svg width="65" height="65" viewBox="0 0 65 65" fill="none" xmlns="http://www.w3.org/2000/svg">
<circle cx="32.5" cy="32.5" r="32.5" transform="matrix(-1 0 0 1 65 0)" fill="#DEDEFA"/>
<path d="M27.7401 31.305C27.5901 31.29 27.4101 31.29 27.2451 31.305C23.6751 31.185 20.8401 28.26 20.8401 24.66C20.8401 20.985 23.8101 18 27.5001 18C31.1751 18 34.1601 20.985 34.1601 24.66C34.1451 28.26 31.3101 31.185 27.7401 31.305Z" stroke="#5C59E8" stroke-width="2.5" stroke-linecap="round" stroke-linejoin="round"/>
<path d="M38.6149 21C41.5249 21 43.8649 23.355 43.8649 26.25C43.8649 29.085 41.6149 31.395 38.8099 31.5C38.6899 31.485 38.5549 31.485 38.4199 31.5" stroke="#5C59E8" stroke-width="2.5" stroke-linecap="round" stroke-linejoin="round"/>
<path d="M20.2401 36.84C16.6101 39.27 16.6101 43.23 20.2401 45.645C24.3651 48.405 31.1301 48.405 35.2551 45.645C38.8851 43.215 38.8851 39.255 35.2551 36.84C31.1451 34.095 24.3801 34.095 20.2401 36.84Z" stroke="#5C59E8" stroke-width="2.5" stroke-linecap="round" stroke-linejoin="round"/>
<path d="M41.51 45C42.59 44.775 43.61 44.34 44.45 43.695C46.79 41.94 46.79 39.045 44.45 37.29C43.625 36.66 42.62 36.24 41.555 36" stroke="#5C59E8" stroke-width="2.5" stroke-linecap="round" stroke-linejoin="round"/>
</svg>
