<svg width="177" height="52" viewBox="0 0 177 52" fill="none" xmlns="http://www.w3.org/2000/svg">
<path d="M132.47 24.1233L128.148 26.0387C126.924 23.6983 126.274 21.1536 126.241 18.5733H131.064C131.097 20.4896 131.575 22.3792 132.47 24.1233Z" fill="#013e6b"/>
<path d="M167.501 18.5733C167.467 21.1831 166.802 23.7559 165.551 26.1172L161.238 24.1966C162.154 22.4318 162.646 20.5165 162.681 18.5733H167.501Z" fill="#C90606"/>
<path d="M132.876 11.7856C131.9 13.4227 131.305 15.2177 131.126 17.0635H126.283C126.493 14.3215 127.399 11.6573 128.934 9.27097L132.876 11.7856Z" fill="#013e6b"/>
<path d="M145.471 31.0523L145.656 35.3359C142.752 35.3623 139.874 34.8415 137.213 33.8077L139.199 29.9036C141.178 30.6664 143.313 31.0575 145.471 31.0523Z" fill="#013e6b"/>
<path d="M132.976 25.6463C134.254 27.1128 135.852 28.3348 137.675 29.239L135.684 33.164C132.954 31.8707 130.591 30.0436 128.772 27.8207L132.976 25.6463Z" fill="#013e6b"/>
<path d="M138.686 6.30624C136.719 7.36884 135.035 8.79714 133.748 10.493L129.833 7.99663C131.474 5.86496 133.601 4.06326 136.076 2.70828L138.686 6.30624Z" fill="#013e6b"/>
<path d="M160.753 11.7856C161.73 13.4222 162.326 15.2174 162.503 17.0635H167.34C167.132 14.3212 166.225 11.6568 164.689 9.27097L160.753 11.7856Z" fill="#C90606"/>
<path d="M154.94 6.30624C156.907 7.36804 158.592 8.7965 159.877 10.493L163.793 7.99663C162.152 5.86496 160.025 4.06326 157.55 2.70828L154.94 6.30624Z" fill="#C90606"/>
<path d="M145.862 4.31228C143.898 4.41712 141.974 4.85036 140.191 5.58923L137.563 1.96249C140.107 0.816712 142.893 0.157081 145.741 0.026123L145.862 4.31228Z" fill="#013e6b"/>
<path d="M156.288 2.007L153.66 5.63375C151.751 4.82834 149.679 4.37185 147.568 4.29138L147.438 0C150.52 0.074105 153.544 0.759864 156.288 2.007Z" fill="#C90606"/>
<path d="M172.651 31.4056L172.793 30.8666C172.793 30.8666 175.15 30.4244 175.503 29.0637C175.857 27.703 172.722 27.1666 172.722 27.1666C172.722 27.1666 170.071 26.4653 169.832 28.8099V29.239L163.595 24.0213H152.582L152.547 25.7065H162.67L169.296 31.8557H163.109V31.0314H152.547V38.1855H163.383C163.383 38.1855 165.271 38.4079 164.267 39.834L161.447 43.2854H152.547V49.4556H175.609V47.6867L177 45.7844V36.4742L172.651 31.4056ZM172.713 46.7212C172.713 46.7212 172.313 47.0299 170.922 47.0299C169.531 47.0299 165.065 46.8886 165.065 46.8886C165.065 46.8886 166.615 43.4712 171.508 43.7486C176.402 44.026 172.713 46.7212 172.713 46.7212ZM172.849 40.5719H166.803C166.803 40.5719 165.095 40.3573 166.615 38.7899L170.786 36.0607C170.786 36.0607 174.183 34.4227 175.226 37.2016C176.269 39.9805 172.849 40.5719 172.849 40.5719Z" fill="#C90606"/>
<path d="M128.45 40.967H141.354V36.5343H128.45C127.789 36.5343 127.154 36.7678 126.686 37.1835C126.218 37.5991 125.955 38.1628 125.955 38.7507C125.955 39.3385 126.218 39.9022 126.686 40.3178C127.154 40.7335 127.789 40.967 128.45 40.967Z" fill="#013e6b"/>
<path d="M118.97 47.7416H141.496V43.3116H118.97C118.636 43.3014 118.302 43.3511 117.99 43.4578C117.677 43.5645 117.392 43.726 117.151 43.9327C116.91 44.1394 116.718 44.3871 116.588 44.6609C116.457 44.9347 116.389 45.2291 116.389 45.5266C116.389 45.8241 116.457 46.1185 116.588 46.3923C116.718 46.6662 116.91 46.9138 117.151 47.1205C117.392 47.3272 117.677 47.4887 117.99 47.5954C118.302 47.7021 118.636 47.7519 118.97 47.7416Z" fill="#013e6b"/>
<path d="M151.141 11.8432V15.831C150.723 16.4939 150.114 17.0459 149.376 17.4301C148.637 17.8142 147.797 18.0168 146.942 18.0168C146.086 18.0168 145.246 17.8142 144.508 17.4301C143.77 17.0459 143.16 16.4939 142.742 15.831V11.6443C139.926 13.2143 138.467 16.0927 139.054 18.8166C139.769 22.1189 143.14 23.5633 143.493 23.7099V47.5925C143.545 48.3803 143.934 49.1208 144.58 49.6623C145.226 50.2039 146.081 50.5056 146.97 50.5056C147.858 50.5056 148.713 50.2039 149.359 49.6623C150.006 49.1208 150.394 48.3803 150.446 47.5925V23.6654C150.859 23.477 153.858 22.043 154.571 18.9553C155.169 16.3072 153.819 13.4917 151.141 11.8432ZM147.718 47.0063C147.718 47.2395 147.614 47.4632 147.428 47.628C147.242 47.7929 146.991 47.8856 146.728 47.8856C146.466 47.8856 146.214 47.7929 146.028 47.628C145.843 47.4632 145.738 47.2395 145.738 47.0063V24.0213C145.739 23.789 145.843 23.5664 146.028 23.4022C146.213 23.2379 146.464 23.1454 146.725 23.1447C146.99 23.1462 147.243 23.2402 147.429 23.4063C147.522 23.4873 147.596 23.5838 147.647 23.6902C147.697 23.7967 147.723 23.911 147.724 24.0265L147.718 47.0063Z" fill="#013e6b"/>
<path d="M86.4336 10.8802H89.9954C90.2429 10.8802 90.3667 10.7703 90.3667 10.5505V7.71663C90.3667 7.49683 90.2429 7.38693 89.9954 7.38693H86.4336C86.1861 7.38693 86.0624 7.49683 86.0624 7.71663V10.5505C86.0624 10.7703 86.1861 10.8802 86.4336 10.8802Z" fill="#C90606"/>
<path d="M105.843 7.38693H102.278C102.03 7.38693 101.907 7.49683 101.907 7.71663V10.5505C101.907 10.7703 102.03 10.8802 102.278 10.8802H105.84C106.087 10.8802 106.211 10.7703 106.211 10.5505V7.71663C106.214 7.49683 106.09 7.38693 105.843 7.38693Z" fill="#C90606"/>
<path d="M105.768 14.1773H102.316C102.068 14.1773 101.944 14.2872 101.944 14.507V22.8464C101.944 23.5058 101.803 23.9611 101.517 24.2149C101.231 24.4688 100.781 24.5944 100.162 24.5944H98.3442C98.3118 24.5944 98.2794 24.597 98.2499 24.5996C98.2175 24.5996 98.191 24.5944 98.1586 24.5944H92.888C93.8278 24.0239 94.5761 23.2912 95.1329 22.4016C95.6898 21.5119 95.9667 20.528 95.9667 19.4526C95.9667 17.6732 95.2979 16.2497 93.9633 15.1847C92.6288 14.1197 90.6961 13.5859 88.1742 13.5859C85.6523 13.5859 83.7197 14.1197 82.3851 15.1847C81.0505 16.2497 80.3818 17.6732 80.3818 19.4526C80.3818 20.5306 80.6587 21.5119 81.2155 22.4016C81.7723 23.2912 82.5088 24.0213 83.4251 24.5944H77.5623C76.6461 24.5944 75.9243 24.4295 75.391 24.0998C74.8578 23.7701 74.5573 23.3096 74.4807 22.7156C74.4807 22.5847 74.4866 22.4513 74.4984 22.3204C74.5102 22.1896 74.516 22.0457 74.516 21.8913C74.516 20.7714 74.3746 19.7116 74.0889 18.7094C73.8031 17.7098 73.3288 16.8306 72.66 16.0718C71.9912 15.3129 71.1015 14.7085 69.9879 14.2584C68.8742 13.8083 67.4896 13.5833 65.8309 13.5833C64.296 13.5833 62.9967 13.8371 61.9332 14.3421C60.8696 14.8472 59.9534 15.4856 59.1874 16.2549C59.0401 16.3858 59.0637 16.5402 59.2611 16.7155L61.1908 18.4948C61.3646 18.6257 61.5384 18.6152 61.7093 18.4608C62.2278 17.9767 62.8229 17.5921 63.4917 17.3069C64.1605 17.0216 64.9029 16.8777 65.719 16.8777C66.5586 16.8777 67.2598 17.0033 67.8166 17.2571C68.3734 17.511 68.8242 17.8564 69.1718 18.296C69.5165 18.7356 69.7669 19.2511 69.9142 19.8451C70.0615 20.4391 70.1381 21.088 70.1381 21.7893C70.1381 22.3178 70.0998 22.7627 70.0262 23.1238C69.9525 23.4875 69.8023 23.778 69.5813 23.9978C69.3574 24.2176 69.0481 24.3719 68.6533 24.4583C68.2585 24.5473 67.737 24.5891 67.0948 24.5891H56.5919C55.6521 24.5891 54.9097 24.4138 54.3646 24.0606C53.8196 23.7099 53.5368 23.2023 53.5103 22.5455C53.5103 22.4146 53.5162 22.255 53.5279 22.0666C53.5397 21.8809 53.5456 21.6767 53.5456 21.4569C53.5456 20.2716 53.3777 19.1883 53.0448 18.2096C52.7119 17.231 52.1786 16.4015 51.448 15.7211C50.7173 15.0408 49.7775 14.5122 48.6285 14.138C47.4796 13.7639 46.0978 13.5781 44.4893 13.5781C42.9809 13.5781 41.5196 13.7586 40.1113 14.1223C38.7001 14.4861 37.4156 14.9178 36.2519 15.4255V14.3709C36.2519 14.1511 36.1282 14.0412 35.8807 14.0412H32.4279C32.1804 14.0412 32.0567 14.1511 32.0567 14.3709V21.1613C32.0567 21.6218 32.0449 22.0614 32.0184 22.4801C31.9948 22.8987 31.927 23.2651 31.8151 23.5843C31.7031 23.9036 31.5234 24.1495 31.2759 24.3249C31.0285 24.5002 30.669 24.5891 30.2006 24.5891H24.7444C25.0655 24.1495 25.3631 23.5241 25.6341 22.7103C25.9052 21.8965 26.0436 21.0723 26.0436 20.2376C26.0436 19.0522 25.8521 18.0343 25.4692 17.1891C25.0862 16.3439 24.5529 15.6557 23.8724 15.1298C23.1918 14.6012 22.3816 14.2113 21.4418 13.9601C20.502 13.7089 19.4738 13.5807 18.3602 13.5807C17.3939 13.5807 16.4599 13.7063 15.5584 13.9601C14.654 14.2139 13.8644 14.6247 13.1839 15.1952C12.5033 15.7656 11.9524 16.514 11.5311 17.4377C11.1098 18.3614 10.9006 19.4918 10.9006 20.8315V24.5891H5.96588C5.3472 24.5891 4.89644 24.4635 4.61067 24.2097C4.32489 23.9585 4.18348 23.5006 4.18348 22.8412V5.76722C4.18348 5.54742 4.05974 5.43752 3.81227 5.43752H0.371209C0.123735 5.43752 0 5.54742 0 5.76722V23.6995C0 25.1282 0.332909 26.1775 1.00168 26.8473C1.67044 27.5172 2.78407 27.8522 4.34257 27.8522H10.9095V29.765C10.9095 30.6887 11.0892 31.4737 11.4486 32.1226C11.808 32.7715 12.3206 33.2975 12.9894 33.7057C13.6582 34.1113 14.4566 34.4096 15.3817 34.5954C16.3097 34.7812 17.3408 34.8754 18.481 34.8754C20.7082 34.8754 22.47 34.4698 23.7692 33.656C25.0685 32.8422 25.7166 31.6778 25.7166 30.1627C25.7166 29.2626 25.4574 28.4932 24.9359 27.8548H31.5794C32.2216 27.8548 32.7843 27.8208 33.2675 27.7553C33.7507 27.6899 34.1896 27.5355 34.5844 27.2948C34.8319 27.4256 35.1353 27.5251 35.4948 27.5905C35.8542 27.6559 36.2313 27.7109 36.6261 27.7553C37.0209 27.7998 37.4304 27.826 37.8517 27.8365C38.273 27.8469 38.6795 27.8522 39.0772 27.8522H46.3895C48.0216 27.8522 49.3386 27.7265 50.3432 27.4727C51.3449 27.2215 52.105 26.6537 52.6264 25.7745C53.0212 26.6092 53.6222 27.164 54.4265 27.4387C55.2308 27.7135 56.1647 27.8495 57.2283 27.8495H68.6945C69.8818 27.8495 70.8894 27.7135 71.7202 27.4387C72.548 27.164 73.1991 26.6537 73.6676 25.9053C74.0889 26.7191 74.6869 27.2451 75.4676 27.4884C76.2484 27.7318 77.1558 27.8522 78.1957 27.8522H83.1305C83.8464 27.8522 84.6713 27.8181 85.5993 27.7527C86.5273 27.6873 87.3994 27.457 88.2155 27.0593C88.9314 27.4544 89.6885 27.6847 90.4781 27.7527C91.2706 27.8181 92.1102 27.8522 93.0029 27.8522H98.1616C98.1881 27.8522 98.2087 27.8469 98.2323 27.8469C98.2706 27.8469 98.3059 27.8522 98.3442 27.8522H101.797C103.356 27.8522 104.469 27.5172 105.138 26.8473C105.807 26.1775 106.14 25.1282 106.14 23.6995V14.5018C106.14 14.2872 106.013 14.1773 105.768 14.1773ZM20.8732 31.1858C20.3901 31.5155 19.5681 31.6804 18.4044 31.6804C16.1535 31.6804 15.0281 30.9451 15.0281 29.4719V27.7239H18.1098C18.8257 27.7239 19.4149 27.7684 19.8715 27.8548C20.3282 27.9411 20.6876 28.0746 20.9469 28.2499C21.2061 28.4252 21.3799 28.6398 21.4654 28.8936C21.5508 29.1448 21.595 29.4379 21.595 29.7676C21.598 30.3825 21.3564 30.8561 20.8732 31.1858ZM21.7453 22.1373C21.6215 22.6109 21.43 23.027 21.1708 23.3907C20.9115 23.7544 20.5757 24.0501 20.1691 24.2804C19.7596 24.5106 19.2735 24.6258 18.7019 24.6258H15.0281V20.5045C15.0281 19.3191 15.3316 18.4163 15.9385 17.8014C16.5454 17.1865 17.3673 16.8777 18.4073 16.8777C19.5445 16.8777 20.4166 17.197 21.0235 17.8328C21.6304 18.4713 21.9338 19.4159 21.9338 20.6667C21.9309 21.177 21.869 21.6637 21.7453 22.1373ZM48.985 23.1918C48.8613 23.6419 48.6197 23.9716 48.2603 24.1809C47.9009 24.3903 47.3941 24.5106 46.7401 24.5446C46.0831 24.5787 45.2228 24.5944 44.1622 24.5944H36.1076C36.1576 24.3746 36.193 24.1443 36.2195 23.9009C36.2431 23.6602 36.2578 23.4064 36.2578 23.1421V18.6597C37.2978 18.2201 38.4851 17.8145 39.8197 17.4403C41.1543 17.0661 42.5154 16.8803 43.903 16.8803C44.943 16.8803 45.7944 16.9798 46.4632 17.176C47.1319 17.3749 47.6681 17.6601 48.0776 18.0343C48.4871 18.4085 48.77 18.869 48.932 19.4185C49.094 19.968 49.1736 20.5934 49.1736 21.2973C49.1706 22.1085 49.1088 22.7417 48.985 23.1918ZM90.6637 22.433C89.9714 23.1264 89.1435 23.6576 88.1772 24.0318C87.1873 23.6576 86.3447 23.1264 85.6524 22.433C84.96 21.7395 84.6124 20.8342 84.6124 19.7142C84.6124 18.6597 84.9659 17.8642 85.67 17.3252C86.3741 16.7861 87.2108 16.5166 88.1742 16.5166C89.1376 16.5166 89.9684 16.7861 90.6607 17.3252C91.3531 17.8642 91.7007 18.6597 91.7007 19.7142C91.7007 20.8342 91.356 21.7422 90.6637 22.433Z" fill="#C90606"/>
<path d="M17.4374 36.4532H16.2325C16.1058 36.4532 16.0439 36.5082 16.0439 36.6207V47.6475C16.0439 47.76 16.1058 47.8149 16.2325 47.8149H17.4374C17.5612 47.8149 17.626 47.76 17.626 47.6475V36.6207C17.626 36.5082 17.5641 36.4532 17.4374 36.4532Z" fill="#013e6b"/>
<path d="M30.8898 49.3692H29.6112C29.4845 49.3692 29.4227 49.4242 29.4227 49.5367V50.7561C29.4227 50.8686 29.4845 50.9235 29.6112 50.9235H30.8898C31.0136 50.9235 31.0784 50.8686 31.0784 50.7561V49.5367C31.0784 49.4242 31.0136 49.3692 30.8898 49.3692Z" fill="#013e6b"/>
<path d="M22.4816 40.9801H21.2766C21.15 40.9801 21.0881 41.035 21.0881 41.1476V48.4168C21.0881 49.364 20.5814 49.8376 19.565 49.8376H19.1319C19.0052 49.8376 18.9433 49.8926 18.9433 50.0051V50.9733C18.9433 51.0858 19.0052 51.1407 19.1319 51.1407H19.6386C20.6285 51.1407 21.3827 50.9078 21.8953 50.4395C22.408 49.9711 22.6672 49.2855 22.6672 48.3853V41.1502C22.6672 41.0377 22.6053 40.9801 22.4816 40.9801Z" fill="#013e6b"/>
<path d="M13.4692 40.9801H12.2642C12.1375 40.9801 12.0757 41.035 12.0757 41.1476V45.6247C12.0757 45.9597 12.002 46.1899 11.8606 46.3182C11.7162 46.4464 11.4805 46.5092 11.1565 46.5092H2.65399C2.34171 46.5092 2.11191 46.4464 1.96755 46.3182C1.82319 46.1899 1.75248 45.9597 1.75248 45.6247V42.2152C1.75248 42.1027 1.69062 42.0477 1.56393 42.0477H0.358974C0.232291 42.0477 0.170423 42.1027 0.170423 42.2152V45.7085C0.170423 46.4333 0.338352 46.9645 0.677155 47.3047C1.01596 47.6448 1.57867 47.8149 2.37117 47.8149H11.4187C12.2348 47.8149 12.8122 47.6448 13.1481 47.3047C13.4869 46.9645 13.6548 46.4333 13.6548 45.7085V41.1476C13.6577 41.0377 13.5959 40.9801 13.4692 40.9801Z" fill="#013e6b"/>
<path d="M5.1561 40.3129H6.43472C6.5614 40.3129 6.62327 40.2579 6.62327 40.1454V38.926C6.62327 38.8135 6.5614 38.7585 6.43472 38.7585H5.1561C5.02942 38.7585 4.96755 38.8135 4.96755 38.926V40.1454C4.96755 40.2579 5.02942 40.3129 5.1561 40.3129Z" fill="#013e6b"/>
<path d="M68.2109 38.6591H69.4895C69.6162 38.6591 69.678 38.6042 69.678 38.4916V37.2723C69.678 37.1624 69.6162 37.1048 69.4895 37.1048H68.2109C68.0842 37.1048 68.0223 37.1598 68.0223 37.2723V38.4916C68.0223 38.6015 68.0842 38.6591 68.2109 38.6591Z" fill="#013e6b"/>
<path d="M105.893 36.4532H104.688C104.561 36.4532 104.499 36.5082 104.499 36.6207V45.6274C104.499 45.9623 104.425 46.1926 104.284 46.3208C104.14 46.449 103.91 46.5118 103.598 46.5118H102.207C101.691 46.5118 101.282 46.4176 100.976 46.2266C100.669 46.0382 100.516 45.753 100.516 45.3736C100.516 45.2846 100.519 45.1747 100.525 45.0465C100.531 44.9183 100.534 44.7822 100.534 44.6383C100.534 44.1045 100.466 43.5968 100.327 43.118C100.189 42.6391 99.9474 42.2178 99.6027 41.8567C99.258 41.4956 98.7954 41.2078 98.2209 40.9958C97.6435 40.7839 96.9158 40.6792 96.0379 40.6792C95.2483 40.6792 94.4764 40.7786 93.7252 40.9801C92.9739 41.1816 92.2904 41.425 91.6747 41.7154V41.1476C91.6747 41.0377 91.6128 40.9801 91.4861 40.9801H90.2812C90.1545 40.9801 90.0926 41.0351 90.0926 41.1476V45.6248C90.0926 45.9597 90.019 46.19 89.8775 46.3182C89.7332 46.4464 89.5034 46.5092 89.1911 46.5092H87.7799C87.2643 46.5092 86.8548 46.415 86.5484 46.224C86.2421 46.0356 86.0889 45.7504 86.0889 45.3709V41.145C86.0889 41.0351 86.027 40.9775 85.9003 40.9775H84.6953C84.5686 40.9775 84.5068 41.0325 84.5068 41.145V45.6221C84.5068 45.9571 84.4331 46.1874 84.2917 46.3156C84.1474 46.4438 83.9175 46.5066 83.6053 46.5066H82.3267C82.3001 46.5066 82.2795 46.5092 82.256 46.5092C82.2353 46.5092 82.2177 46.5066 82.1941 46.5066H81.3662C81.0539 46.5066 80.8241 46.4438 80.6798 46.3156C80.5354 46.1874 80.4647 45.9571 80.4647 45.6221V36.6155C80.4647 36.5056 80.4028 36.448 80.2762 36.448H79.0712C78.9445 36.448 78.8827 36.503 78.8827 36.6155V45.7059C78.8827 46.4307 79.0506 46.9619 79.3894 47.3021C79.7282 47.6422 80.2909 47.8123 81.0834 47.8123H82.1941C82.2177 47.8123 82.2412 47.8097 82.2648 47.8097C82.2854 47.8097 82.306 47.8123 82.3267 47.8123H83.8881C84.878 47.8123 85.532 47.5219 85.8443 46.9436C86.0064 47.234 86.2391 47.4512 86.5396 47.5951C86.8401 47.7391 87.1907 47.8123 87.5943 47.8123H89.4739C90.0013 47.8123 90.4196 47.7391 90.7349 47.5951C90.8615 47.7391 91.0737 47.8123 91.3742 47.8123H97.6936C98.3093 47.8123 98.8131 47.7338 99.2079 47.5794C99.6027 47.4224 99.9061 47.1555 100.121 46.7787C100.26 47.1137 100.501 47.3701 100.846 47.548C101.191 47.726 101.582 47.8149 102.021 47.8149H103.883C104.673 47.8149 105.239 47.6449 105.577 47.3047C105.916 46.9645 106.084 46.4333 106.084 45.7085V36.6181C106.078 36.5082 106.016 36.4532 105.893 36.4532ZM98.7895 45.5515C98.7453 45.8027 98.6599 45.9963 98.5362 46.135C98.4095 46.2737 98.2357 46.3705 98.0088 46.4281C97.782 46.483 97.4932 46.5118 97.1427 46.5118H91.5745C91.6364 46.2554 91.6688 45.9885 91.6688 45.7111V43.0185C91.9457 42.8956 92.2492 42.7726 92.5821 42.6522C92.915 42.5292 93.2656 42.4193 93.6368 42.3172C94.008 42.2178 94.3851 42.1367 94.774 42.0739C95.1629 42.0137 95.5459 41.9823 95.92 41.9823C96.4857 41.9823 96.9541 42.0399 97.3312 42.1576C97.7083 42.2754 98.0088 42.4455 98.2327 42.6679C98.4596 42.8903 98.6187 43.1625 98.7129 43.4869C98.8072 43.8114 98.8543 44.1777 98.8543 44.5886C98.8573 44.9784 98.8337 45.3003 98.7895 45.5515Z" fill="#013e6b"/>
<path d="M7.45076 40.3129H8.72938C8.85606 40.3129 8.91792 40.2579 8.91792 40.1454V38.926C8.91792 38.8135 8.85606 38.7585 8.72938 38.7585H7.45076C7.32408 38.7585 7.26221 38.8135 7.26221 38.926V40.1454C7.26221 40.2579 7.32408 40.3129 7.45076 40.3129Z" fill="#013e6b"/>
<path d="M65.9168 38.6591H67.1954C67.3221 38.6591 67.3839 38.6042 67.3839 38.4916V37.2723C67.3839 37.1624 67.3221 37.1048 67.1954 37.1048H65.9168C65.7901 37.1048 65.7282 37.1598 65.7282 37.2723V38.4916C65.7282 38.6015 65.7901 38.6591 65.9168 38.6591Z" fill="#013e6b"/>
<path d="M84.5593 49.3692H83.2806C83.154 49.3692 83.0921 49.4242 83.0921 49.5367V50.7561C83.0921 50.8686 83.154 50.9235 83.2806 50.9235H84.5593C84.683 50.9235 84.7478 50.8686 84.7478 50.7561V49.5367C84.7478 49.4242 84.683 49.3692 84.5593 49.3692Z" fill="#013e6b"/>
<path d="M86.8545 49.3692H85.5758C85.4492 49.3692 85.3873 49.4242 85.3873 49.5367V50.7561C85.3873 50.8686 85.4492 50.9235 85.5758 50.9235H86.8545C86.9782 50.9235 87.043 50.8686 87.043 50.7561V49.5367C87.043 49.4242 86.9782 49.3692 86.8545 49.3692Z" fill="#013e6b"/>
<path d="M76.4697 37.772H75.1911C75.0644 37.772 75.0025 37.827 75.0025 37.9395V39.1589C75.0025 39.2714 75.0644 39.3263 75.1911 39.3263H76.4697C76.5964 39.3263 76.6582 39.2714 76.6582 39.1589V37.9395C76.6582 37.8296 76.5964 37.772 76.4697 37.772Z" fill="#013e6b"/>
<path d="M53.1629 36.4532H51.9579C51.8312 36.4532 51.7693 36.5082 51.7693 36.6207V45.6274C51.7693 45.9623 51.6957 46.1926 51.5543 46.3208C51.4099 46.449 51.1801 46.5118 50.8678 46.5118H49.4773C48.9617 46.5118 48.5522 46.4176 48.2458 46.2266C47.9394 46.0382 47.7862 45.753 47.7862 45.3736V41.1476C47.7862 41.0377 47.7243 40.9801 47.5976 40.9801H46.3927C46.266 40.9801 46.2041 41.0351 46.2041 41.1476V45.6248C46.2041 45.9597 46.1305 46.19 45.9891 46.3182C45.8447 46.4464 45.6149 46.5092 45.3026 46.5092H44.8695C44.3687 46.5092 43.9592 46.4202 43.6469 46.2423C43.3346 46.0644 43.1755 45.7975 43.1755 45.4416V42.5842C43.1755 42.4743 43.1137 42.4167 42.987 42.4167H41.782C41.6553 42.4167 41.5935 42.4716 41.5935 42.5842V45.6248C41.5935 45.9597 41.5198 46.19 41.3784 46.3182C41.234 46.4464 41.0042 46.5092 40.6919 46.5092H40.2206C39.7197 46.5092 39.3191 46.415 39.0156 46.224C38.7151 46.0356 38.5649 45.7504 38.5649 45.371V42.5815C38.5649 42.4716 38.503 42.4141 38.3763 42.4141H37.1713C37.0447 42.4141 36.9828 42.469 36.9828 42.5815V45.6222C36.9828 45.9571 36.9091 46.1874 36.7677 46.3156C36.6234 46.4438 36.3936 46.5066 36.0813 46.5066H34.1044C33.5889 46.5066 33.1794 46.4124 32.873 46.2214C32.5666 46.033 32.4134 45.7478 32.4134 45.3683V41.1424C32.4134 41.0325 32.3515 40.9749 32.2248 40.9749H31.0199C30.8932 40.9749 30.8313 41.0298 30.8313 41.1424V45.6195C30.8313 45.9545 30.7577 46.1847 30.6162 46.313C30.4719 46.4412 30.2421 46.504 29.9298 46.504H28.6512C28.6247 46.504 28.604 46.5066 28.5805 46.5066C28.5599 46.5066 28.5422 46.504 28.5186 46.504H27.6907C27.3785 46.504 27.1487 46.4412 27.0043 46.313C26.8599 46.1847 26.7892 45.9545 26.7892 45.6195V36.6129C26.7892 36.503 26.7274 36.4454 26.6007 36.4454H25.3957C25.269 36.4454 25.2072 36.5003 25.2072 36.6129V45.7033C25.2072 46.4281 25.3751 46.9593 25.7139 47.2995C26.0527 47.6396 26.6154 47.8097 27.4079 47.8097H28.5186C28.5422 47.8097 28.5657 47.8071 28.5893 47.8071C28.6099 47.8071 28.6306 47.8097 28.6512 47.8097H30.2126C31.2025 47.8097 31.8566 47.5193 32.1688 46.941C32.3309 47.2314 32.5636 47.4486 32.8641 47.5925C33.1646 47.7365 33.5152 47.8097 33.9188 47.8097H36.3641C37.354 47.8097 38.008 47.5193 38.3203 46.941C38.4824 47.2314 38.7151 47.4486 39.0156 47.5925C39.3161 47.7365 39.6667 47.8097 40.0703 47.8097H40.9718C41.9617 47.8097 42.6158 47.5193 42.928 46.941C43.0901 47.2314 43.3228 47.4486 43.6233 47.5925C43.9238 47.7365 44.2744 47.8097 44.678 47.8097H45.5796C46.5694 47.8097 47.2235 47.5193 47.5358 46.941C47.6978 47.2314 47.9305 47.4486 48.2311 47.5925C48.5316 47.7365 48.8821 47.8097 49.2858 47.8097H51.1477C51.9373 47.8097 52.5029 47.6396 52.8417 47.2995C53.1805 46.9593 53.3484 46.4281 53.3484 45.7033V36.6129C53.3514 36.5082 53.2866 36.4532 53.1629 36.4532Z" fill="#013e6b"/>
<path d="M76.4307 40.9801H75.2257C75.099 40.9801 75.0372 41.0351 75.0372 41.1476V45.6248C75.0372 45.9597 74.9635 46.19 74.8221 46.3182C74.6777 46.4464 74.4479 46.5092 74.1356 46.5092H72.9513C72.9248 46.5092 72.9042 46.5118 72.8806 46.5118C72.86 46.5118 72.8423 46.5092 72.8187 46.5092H71.9909C71.6786 46.5092 71.4488 46.4464 71.3044 46.3182C71.1601 46.19 71.0894 45.9597 71.0894 45.6248V39.9596C71.0894 39.8471 71.0275 39.7921 70.9008 39.7921H69.6959C69.5692 39.7921 69.5073 39.8471 69.5073 39.9596V40.6792H67.663C67.1975 40.6792 66.7497 40.7368 66.3167 40.8545C65.8836 40.9723 65.5035 41.1607 65.1795 41.4223C64.8524 41.684 64.5902 42.0268 64.3899 42.4507C64.1896 42.8746 64.0894 43.3979 64.0894 44.0207C64.0894 44.5441 64.1778 44.9994 64.3516 45.3814C64.5284 45.7661 64.767 46.0827 65.0763 46.3339C65.3827 46.5851 65.7481 46.7709 66.1664 46.8939C66.5877 47.0169 67.0414 47.077 67.5305 47.077C67.9429 47.077 68.3259 47.0273 68.6765 46.9279C69.0271 46.8285 69.3276 46.6767 69.578 46.4778C69.69 46.9567 69.9198 47.2994 70.2645 47.5062C70.6091 47.7129 71.0894 47.8149 71.7022 47.8149H72.8128C72.8364 47.8149 72.86 47.8123 72.8835 47.8123C72.9042 47.8123 72.9248 47.8149 72.9454 47.8149H74.4126C75.2021 47.8149 75.7678 47.6449 76.1066 47.3047C76.4454 46.9645 76.6133 46.4333 76.6133 45.7085V41.1476C76.6192 41.0377 76.5573 40.9801 76.4307 40.9801ZM69.5102 43.6544C69.5102 44.3217 69.3629 44.8424 69.0683 45.2166C68.7737 45.5907 68.2699 45.7765 67.554 45.7765C66.953 45.7765 66.4875 45.63 66.1605 45.3343C65.8335 45.0386 65.6715 44.6016 65.6715 44.0233C65.6715 43.254 65.8571 42.7228 66.2253 42.4272C66.5965 42.1315 67.0738 41.9849 67.663 41.9849H69.5073V43.6544H69.5102Z" fill="#013e6b"/>
<path d="M33.185 49.3692H31.9064C31.7797 49.3692 31.7179 49.4242 31.7179 49.5367V50.7561C31.7179 50.8686 31.7797 50.9235 31.9064 50.9235H33.185C33.3088 50.9235 33.3736 50.8686 33.3736 50.7561V49.5367C33.3736 49.4242 33.3088 49.3692 33.185 49.3692Z" fill="#013e6b"/>
<path d="M57.3752 36.4532H56.1702C56.0436 36.4532 55.9817 36.5082 55.9817 36.6207V47.6475C55.9817 47.76 56.0436 47.8149 56.1702 47.8149H57.3752C57.4989 47.8149 57.5637 47.76 57.5637 47.6475V36.6207C57.5637 36.5082 57.5019 36.4532 57.3752 36.4532Z" fill="#013e6b"/>
<path d="M150.97 12.6962V16.684C150.119 18.0238 148.525 18.8611 146.799 18.8664C145.052 18.8742 143.431 18.0369 142.574 16.684V12.5026C139.755 14.083 138.299 16.9509 138.885 19.6749C139.601 22.9772 142.975 24.4216 143.325 24.5655V48.4507C143.476 50.0286 144.901 51.2585 146.587 51.3474C148.422 51.4443 150.101 50.1725 150.275 48.4507V24.5184C150.691 24.33 153.69 22.8961 154.391 19.8162C154.998 17.1603 153.648 14.3447 150.97 12.6962ZM147.547 47.8594C147.547 48.3435 147.102 48.736 146.554 48.736C146.009 48.736 145.564 48.3409 145.564 47.8594V24.8743C145.564 24.3902 146.009 23.9977 146.554 23.9977C146.825 23.9977 147.079 24.0971 147.258 24.2541C147.438 24.4138 147.547 24.6336 147.547 24.8743V47.8594Z" fill="#013e6b"/>
</svg>
