<svg width="107" height="104" viewBox="0 0 107 104" fill="none" xmlns="http://www.w3.org/2000/svg">
<path d="M57.2435 63.4077C54.5155 68.2977 51.4973 67.4416 48.0147 67.4416C46.1283 67.4416 43.2117 67.4416 42.7183 65.1489C42.5732 64.525 42.5732 63.5673 42.7183 62.8563C42.9505 61.7535 43.1972 61.9131 44.3725 61.9131C46.1864 61.9131 47.9276 62.0727 49.7415 62.3919C52.1067 62.7837 54.8782 62.6966 57.2435 63.4077Z" fill="white"/>
<path d="M58.0134 75.6113C57.491 77.4106 57.0267 79.8919 55.1258 80.5304C53.9649 80.9512 51.3095 80.8641 50.0326 80.8641C47.9285 80.8641 45.9115 80.7771 43.8075 80.7771C41.9211 80.7771 41.6019 80.1531 42.0227 78.2522C42.4435 76.8882 42.1823 75.5823 43.5898 75.0599C44.9248 74.5665 54.2842 74.7987 58.0134 75.6113Z" fill="#C90606"/>
<path d="M46.6362 53.8888C46.3895 54.3241 46.2299 54.6723 46.1574 54.8465C45.9832 55.3688 45.9107 55.63 45.8671 55.7751C45.5624 55.7026 45.2287 55.572 44.953 55.6591C44.6918 55.7606 44.6337 56.0218 44.329 56.1089C43.9517 56.1814 43.4003 55.9783 43.0376 55.9203C42.254 55.7897 41.4269 55.6881 40.6433 55.4994C39.3809 55.2092 38.9311 54.0339 39.0181 52.844C39.1052 51.7412 40.2225 51.3784 41.1222 51.2478C42.0073 51.0882 43.2262 50.6964 44.0678 51.1898C45.2722 51.9443 44.7934 54.2225 46.6362 53.8888Z" fill="#C90606"/>
<path d="M106.332 62.6807C106.274 61.5779 103.691 59.1982 102.951 58.4726C102.457 57.9938 100.745 56.5282 100.179 56.1654C99.8309 55.9478 99.7729 55.9478 99.6858 55.7446C99.6278 55.5995 99.5552 55.3383 99.3811 54.8014C99.323 54.6273 99.1634 54.2936 98.9022 53.8437C97.4221 51.1593 93.098 44.4844 92.7352 44.1216C92.3144 43.7008 91.3567 42.8592 90.0217 42.6125C88.6868 42.3803 75.2789 41.6838 72.7396 41.6838C70.2147 41.6838 56.8069 42.4094 55.4719 42.656C54.1225 42.8882 53.1793 43.7298 52.7585 44.1652C52.3957 44.5279 48.086 51.2173 46.6205 53.9018C46.3738 54.3371 46.2142 54.6854 46.1416 54.8595C45.9675 55.3819 45.8949 55.6431 45.8514 55.7882C45.7934 55.9333 45.4596 56.1654 45.3145 56.238C45.2855 56.267 45.271 56.267 45.271 56.267C44.8937 56.5137 43.3991 57.5439 42.5865 58.4001C41.3676 59.6915 39.2636 61.6504 39.2055 62.7533C39.162 63.8561 38.6832 64.6542 38.7847 66.8598C38.8428 67.9335 39.133 71.1839 39.4232 74.2892C39.7279 77.5396 40.0326 80.6158 40.0617 80.848C40.1197 81.3269 39.9601 81.8492 40.1632 82.27C40.3809 82.6908 40.9033 82.8069 41.7449 82.8069C42.0061 82.8069 44.8066 82.836 48.6374 82.894C57.7936 82.9956 72.7831 83.1987 72.7831 83.1987C72.7831 83.1987 88.2659 82.923 97.3641 82.8069C100.977 82.7489 103.589 82.7199 103.836 82.7199C104.677 82.7199 105.2 82.6183 105.417 82.1975C105.621 81.7767 105.461 81.2543 105.519 80.7754C105.563 80.4417 106.099 74.8986 106.448 70.7921C106.607 68.9928 106.738 67.4692 106.767 66.7872C106.869 64.5671 106.39 63.769 106.332 62.6807ZM101.18 61.8536C102.37 61.8536 102.602 61.694 102.835 62.7968C102.994 63.5078 102.98 64.451 102.835 65.0895C102.356 67.3821 99.4391 67.3821 97.5527 67.3821C94.0847 67.3821 91.0665 68.2528 88.324 63.3627C90.6747 62.6517 93.4462 62.7242 95.8115 62.3324C97.6253 62.0277 99.3666 61.8536 101.18 61.8536ZM53.455 44.4699L72.7541 43.5992L92.0532 44.4409C92.0532 44.4409 99.0038 55.2803 98.4814 55.2803C97.9881 55.2803 80.5753 54.3081 72.7541 54.4822C64.9474 54.3081 47.5491 55.3093 47.0558 55.3238C46.5334 55.3093 53.455 44.4699 53.455 44.4699ZM42.7171 62.8548C42.9493 61.752 43.196 61.9116 44.3713 61.9116C46.1852 61.9116 47.9264 62.0713 49.7403 62.3905C52.1055 62.7823 54.877 62.6952 57.2422 63.4062C54.5142 68.2963 51.496 67.4402 48.0135 67.4402C46.1271 67.4402 43.2105 67.4402 42.7171 65.1475C42.572 64.5236 42.572 63.5804 42.7171 62.8548ZM55.1237 80.5288C53.9628 80.9496 51.3074 80.8625 50.0305 80.8625C49.5661 80.8625 49.1018 80.8625 48.652 80.848C47.5346 80.8335 46.4318 80.8045 45.3145 80.79C44.8212 80.79 44.3133 80.7754 43.8054 80.7754C41.919 80.7754 41.5998 80.1515 42.0206 78.2506C42.4414 76.8866 42.1802 75.5806 43.5877 75.0583C44.0956 74.8696 45.8224 74.7826 47.9554 74.8116C48.1731 74.8116 48.4053 74.8116 48.6374 74.8116C49.3485 74.8261 50.0885 74.8406 50.8431 74.8696C51.2929 74.8841 51.7427 74.9132 52.1925 74.9422C52.3522 74.9422 52.5263 74.9567 52.6714 74.9712C52.9181 74.9857 53.1502 75.0002 53.3969 75.0147C53.6436 75.0438 53.8758 75.0583 54.1079 75.0728C54.3546 75.0873 54.5868 75.1163 54.8045 75.1308C55.1382 75.1598 55.4719 75.2034 55.7912 75.2324C56.0088 75.2614 56.212 75.2759 56.4151 75.3195C56.5748 75.334 56.7489 75.363 56.894 75.392C56.9665 75.4065 57.0536 75.421 57.1262 75.4355C57.2277 75.4501 57.3148 75.4646 57.4164 75.4936C57.4599 75.4936 57.4889 75.5081 57.5325 75.5081C57.5905 75.5226 57.6631 75.5371 57.7211 75.5371C57.8227 75.5661 57.9097 75.5806 58.0113 75.5951C57.4889 77.3945 57.0101 79.8903 55.1237 80.5288ZM81.8958 79.7452L63.685 79.7597C63.4238 79.7597 60.7973 80.0209 60.1153 78.1345C59.4188 76.2481 58.3741 73.1864 58.0113 71.6628C57.6195 70.0521 56.3281 67.3096 64.0622 67.4837C68.0527 67.5708 70.9403 67.5708 72.7831 67.5418C74.6405 67.5708 77.5281 67.5708 81.5185 67.4692C89.2527 67.2806 87.9612 70.0376 87.5839 71.6338C87.2067 73.1429 86.1619 76.2046 85.4799 78.1055C84.7834 79.9919 82.157 79.7452 81.8958 79.7452ZM101.775 80.7174C100.281 80.7174 98.8297 80.7609 97.3641 80.79C96.7692 80.8045 96.1597 80.819 95.5503 80.819C94.2879 80.819 91.6179 80.9206 90.4716 80.4997C88.5852 79.8758 88.1063 77.38 87.5839 75.5806C87.7145 75.5516 87.8596 75.5226 88.0048 75.4936C88.1934 75.45 88.3965 75.421 88.5997 75.3775C88.7448 75.363 88.8899 75.334 89.035 75.3195C89.0785 75.3195 89.1221 75.3049 89.1801 75.3049C89.3688 75.2759 89.5719 75.2469 89.7751 75.2324C89.7896 75.2324 89.8186 75.2179 89.8331 75.2179C90.0362 75.1889 90.2394 75.1743 90.457 75.1453C90.9794 75.0873 91.5163 75.0437 92.0822 75.0002C92.2419 75.0002 92.4015 74.9712 92.5611 74.9712C93.4172 74.8986 94.3169 74.8551 95.173 74.8261C95.4052 74.8116 95.6228 74.7971 95.855 74.7971C96.0146 74.7826 96.1887 74.7826 96.3484 74.7826C96.537 74.7826 96.7402 74.7826 96.9288 74.768C97.0884 74.7535 97.248 74.7535 97.4076 74.768C99.6713 74.739 101.5 74.8116 102.037 75.0147C103.444 75.5371 103.197 76.8431 103.618 78.2071C103.995 80.0789 103.676 80.7174 101.775 80.7174Z" fill="#C90606"/>
<path d="M98.4828 55.2678C98.2941 55.2678 95.7257 55.1226 92.1997 54.9775C90.6615 54.905 88.9638 54.8324 87.179 54.7744C82.0712 54.5712 76.3831 54.3971 72.7554 54.4842C68.1265 54.3971 60.1167 54.7163 54.2689 54.9921C50.8589 55.1517 48.1744 55.2823 47.3183 55.3258C47.1587 55.3403 47.0716 55.3403 47.0426 55.3403C46.5202 55.3403 53.4563 44.4864 53.4563 44.4864L58.3899 44.2687L65.326 43.9495L72.7554 43.6157L92.0691 44.4573C92.0691 44.4573 93.0123 45.9229 94.1731 47.7803C94.8261 48.8105 95.5371 49.9424 96.1756 51.0161C97.5686 53.2798 98.7149 55.2678 98.4828 55.2678Z" fill="#78DCF0"/>
<path d="M102.85 65.0913C102.371 67.384 99.4549 67.384 97.5685 67.384C94.1004 67.384 91.0822 68.2546 88.3397 63.3646C90.6904 62.6535 93.462 62.7261 95.8272 62.3343C97.641 62.0151 99.3823 61.8555 101.182 61.8555C102.371 61.8555 102.604 61.6958 102.836 62.7986C102.995 63.5242 102.995 64.4674 102.85 65.0913Z" fill="white"/>
<path d="M101.775 80.7189C99.6568 80.7189 97.6544 80.806 95.5503 80.806C94.2879 80.806 91.6179 80.9076 90.4716 80.4868C88.5852 79.8628 88.1064 77.367 87.584 75.5677C91.3132 74.7551 100.658 74.5084 101.993 74.9872C103.401 75.5096 103.154 76.8156 103.575 78.1796C103.995 80.0805 103.676 80.7189 101.775 80.7189Z" fill="#C90606"/>
<path d="M87.5701 71.635C87.1929 73.1441 86.1481 76.2058 85.4661 78.1067C84.7841 79.9931 82.1577 79.7464 81.8965 79.7464L63.6857 79.7609C63.4245 79.7609 60.7981 80.0221 60.1161 78.1357C59.4195 76.2494 58.3748 73.1876 58.012 71.664C57.6202 70.0533 56.3288 67.3108 64.0629 67.4849C68.0534 67.572 70.941 67.572 72.7838 67.543C74.6412 67.572 77.5288 67.572 81.5192 67.4704C89.2389 67.2818 87.9619 70.0243 87.5701 71.635Z" fill="#C81E00"/>
<path opacity="0.2" d="M102.953 58.4597C102.46 57.9808 100.747 56.5153 100.182 56.1525C99.8333 55.9348 99.7752 55.9348 99.6882 55.7317C99.6301 55.5866 99.5576 55.3254 99.3835 54.7885C99.3254 54.6144 99.1658 54.2806 98.9046 53.8308C97.4245 51.1463 93.1004 44.4714 92.7376 44.1087C92.3168 43.6879 91.3591 42.8463 90.0241 42.5996C88.6891 42.3674 75.3539 41.6709 72.771 41.6709V43.5718L92.0411 44.4134C92.0411 44.4134 98.9917 55.2528 98.4693 55.2528C97.9759 55.2528 80.5922 54.2806 72.7565 54.4547V83.1567H72.771C72.771 83.1567 88.2393 82.9246 97.3375 82.794C100.951 82.7359 103.563 82.7069 103.809 82.7069C104.651 82.7069 105.173 82.6053 105.391 82.1845C105.594 81.7637 105.434 81.2413 105.492 80.7625C105.536 80.4288 106.073 74.8857 106.421 70.7792C106.581 68.9799 106.711 67.4563 106.74 66.7743C106.842 64.5686 106.363 63.7706 106.32 62.6678C106.276 61.5649 103.693 59.1997 102.953 58.4597ZM95.8138 62.3485C97.6277 62.0293 99.3689 61.8697 101.168 61.8697C102.358 61.8697 102.59 61.7101 102.822 62.8129C102.982 63.5239 102.968 64.4671 102.822 65.1055C102.344 67.3982 99.427 67.3982 97.5406 67.3982C94.0726 67.3982 91.0544 68.2689 88.3118 63.3788C90.6916 62.6678 93.4486 62.7403 95.8138 62.3485ZM101.778 80.719C100.283 80.719 98.8321 80.7625 97.3665 80.7915C96.7715 80.806 96.1621 80.8205 95.5527 80.8205C94.2902 80.8205 91.6203 80.9221 90.4739 80.5013C88.5876 79.8773 88.1087 77.3815 87.5863 75.5822C87.7169 75.5532 87.862 75.5242 88.0071 75.4951C88.1958 75.4516 88.3989 75.4226 88.6021 75.3791C88.7472 75.3645 88.8923 75.3355 89.0374 75.321C89.0809 75.321 89.1244 75.3065 89.1825 75.3065C89.3711 75.2775 89.5743 75.2485 89.7774 75.2339C89.7919 75.2339 89.821 75.2194 89.8355 75.2194C90.0386 75.1904 90.2418 75.1759 90.4594 75.1469C90.9818 75.0888 91.5187 75.0453 92.0846 75.0018C92.2442 75.0018 92.4038 74.9728 92.5635 74.9728C93.4196 74.9002 94.3192 74.8567 95.1754 74.8277C95.4075 74.8131 95.6252 74.7986 95.8574 74.7986C96.017 74.7841 96.1911 74.7841 96.3507 74.7841C96.5394 74.7841 96.7425 74.7841 96.9312 74.7696C97.0908 74.7551 97.2504 74.7551 97.41 74.7696C99.6737 74.7406 101.502 74.8131 102.039 75.0163C103.446 75.5387 103.2 76.8446 103.621 78.2086C103.998 80.0805 103.679 80.719 101.778 80.719Z" fill="#C90606"/>
<path d="M48.6533 82.8668V87.8294C48.6533 88.1776 48.3631 88.4533 48.0294 88.4679H40.0921C39.7438 88.4679 39.4681 88.1776 39.4536 87.8294L39.4391 74.262C39.7438 77.5123 40.0485 80.5886 40.0776 80.8208C40.1356 81.2996 39.976 81.822 40.1791 82.2428C40.3968 82.6636 40.9192 82.7797 41.7608 82.7797C42.022 82.7797 44.8225 82.8087 48.6533 82.8668Z" fill="#323232"/>
<path d="M106.565 71.1415L106.58 87.7706C106.58 88.1189 106.304 88.4091 105.956 88.3946L98.0186 88.4091C97.6704 88.4091 97.3947 88.1189 97.3947 87.7706V82.808C101.008 82.75 103.62 82.7209 103.866 82.7209C104.708 82.7209 105.23 82.6194 105.448 82.1986C105.651 81.7778 105.492 81.2554 105.55 80.7765C105.593 80.4428 106.13 74.8997 106.478 70.7932C106.522 70.8803 106.565 71.0109 106.565 71.1415Z" fill="#323232"/>
<path d="M47.9421 77.8314C47.9421 79.1663 46.8683 80.2401 45.5478 80.2401C44.2128 80.2401 43.139 79.1663 43.139 77.8314C43.139 76.4964 44.2128 75.4226 45.5478 75.4226C46.8683 75.4226 47.9421 76.5109 47.9421 77.8314Z" fill="#FFDC00"/>
<path d="M104.91 55.4417C104.127 55.6303 103.3 55.7319 102.516 55.8625C102.153 55.906 101.602 56.1237 101.239 56.0512C100.92 55.9641 100.877 55.7174 100.601 55.6013C100.325 55.5143 99.9914 55.6449 99.6866 55.7174C99.6286 55.5723 99.5561 55.3111 99.3819 54.7742C99.3239 54.6001 99.1643 54.2663 98.9031 53.8165C100.746 54.1503 100.253 51.8721 101.471 51.1175C102.313 50.6097 103.517 51.016 104.417 51.1611C105.302 51.2917 106.434 51.6544 106.521 52.7572C106.608 53.9761 106.173 55.1515 104.91 55.4417Z" fill="#C90606"/>
<path d="M52.0772 77.8316C52.0772 78.7748 51.3082 79.5439 50.365 79.5439C49.4218 79.5439 48.6527 78.7748 48.6527 77.8316C48.6527 76.8884 49.4218 76.1194 50.365 76.1194C51.3227 76.1194 52.0772 76.8739 52.0772 77.8316Z" fill="#FFDC00"/>
<path d="M102.298 77.7738C102.298 79.0942 101.225 80.1825 99.8897 80.1825C98.5693 80.1825 97.481 79.1087 97.481 77.7738C97.481 76.4533 98.5547 75.365 99.8897 75.365C101.225 75.3795 102.298 76.4533 102.298 77.7738Z" fill="#FFDC00"/>
<path d="M96.5382 77.7879C96.5382 78.7311 95.7691 79.5002 94.8259 79.5002C93.8827 79.5002 93.1136 78.7311 93.1136 77.7879C93.1136 76.8447 93.8827 76.0757 94.8259 76.0757C95.7691 76.0757 96.5382 76.8302 96.5382 77.7879Z" fill="#FFDC00"/>
<path opacity="0.45" d="M98.2791 55.2528C96.886 55.1947 92.5038 54.9625 87.5702 54.7594C85.3356 54.6723 82.9703 54.5853 80.7212 54.5417C77.8046 54.4692 75.0766 54.4256 73.0016 54.4692C65.1948 54.3096 47.7966 55.3108 47.2887 55.3108C47.2452 55.3108 47.2597 55.2382 47.3178 55.0786C49.9007 52.9456 60.2757 51.3494 72.6823 51.3349C75.6425 51.3349 78.5011 51.4219 81.142 51.5816C81.0259 51.3494 80.9098 51.1172 80.8373 50.856C80.5906 50.827 80.2859 50.4788 80.1408 49.9999C79.9667 49.4485 80.0537 48.9261 80.3149 48.8391C80.4165 48.81 80.5035 48.8391 80.5906 48.8971C80.4165 48.5343 80.3149 47.9974 80.2424 47.5766C80.1698 47.1849 80.1408 46.735 80.1843 46.3142C80.3004 45.7773 80.6051 45.6177 81.0695 45.3855C82.2013 44.8632 83.841 44.1231 85.0744 44.689C85.4952 44.8777 85.5097 45.4581 85.5097 45.8789C85.9015 45.7628 86.3949 45.6322 86.7431 45.8789C86.8157 45.9224 86.8737 45.995 86.9318 46.0675C87.1059 46.2852 87.222 46.5754 87.28 46.8366C87.4251 47.5186 87.2655 48.3022 86.9753 48.9406C87.0623 48.8971 87.1639 48.8245 87.2365 48.8391C87.4977 48.9261 87.5847 49.434 87.4106 49.9999C87.2655 50.4788 86.9753 50.827 86.7286 50.856C86.5835 51.2768 86.3949 51.6686 86.1482 52.0024C92.4458 52.7134 96.9731 53.8742 98.2791 55.2528Z" fill="#32A0B4"/>
<path opacity="0.2" d="M65.3259 43.9187L54.2833 54.9613C50.8734 55.1209 48.1889 55.2515 47.3328 55.295L58.3899 44.2379L65.3259 43.9187Z" fill="white"/>
<path opacity="0.2" d="M96.1751 51.0002L92.1991 54.9761C90.661 54.9035 88.9633 54.831 87.1785 54.7729L94.1581 47.7788C94.8111 48.78 95.5221 49.9119 96.1751 51.0002Z" fill="white"/>
<path d="M63.701 36.8243C63.701 38.6382 63.5994 40.394 63.4108 42.1062C62.0613 53.7147 56.2135 62.363 47.2459 62.363C38.2494 62.363 32.3871 53.6567 31.0666 41.9756C30.878 40.3214 30.7909 38.6091 30.7909 36.8389C30.7909 27.7552 38.1623 20.3838 47.2459 20.3838C56.3441 20.3693 63.701 27.7407 63.701 36.8243Z" fill="#FFDAB9"/>
<path d="M63.4117 42.1056C63.6003 40.4078 63.7019 38.6375 63.7019 36.8237C63.7019 27.74 56.345 20.3687 47.2468 20.3687V62.3479C56.2144 62.3624 62.0622 53.7141 63.4117 42.1056Z" fill="#FFE4C3"/>
<path d="M30.834 38.3053L30.7904 38.0151C28.9331 36.1722 27.4675 38.2327 28.2656 41.0333C29.0782 43.8193 29.2958 44.3417 30.1084 46.8375C30.921 49.3334 32.2125 47.9113 32.2125 47.9113L32.198 47.7517C31.3999 44.8641 30.9355 41.6718 30.834 38.3053Z" fill="#FFDAB9"/>
<path d="M63.6561 38.3053L63.6996 38.0151C65.557 36.1722 67.0371 38.2327 66.2245 41.0333C65.4119 43.8193 65.1942 44.3417 64.3816 46.8375C63.569 49.3334 62.2776 47.9113 62.2776 47.9113L62.2921 47.7517C63.1047 44.8641 63.5545 41.6718 63.6561 38.3053Z" fill="#FFDAB9"/>
<path d="M56.2575 58.7058V79.7462H38.2354V58.7058C40.7022 61.0275 43.7204 62.3625 47.2464 62.3625C50.758 62.3625 53.7907 61.013 56.2575 58.7058Z" fill="#FFDAB9"/>
<path d="M63.9769 24.4902C63.9769 24.4902 61.1618 17.0027 47.2462 17.0027C34.7961 17.0027 33.6642 22.4006 33.6642 22.4006C30.7766 23.0391 28.1212 25.2012 29.4271 37.3321C29.8334 37.3321 30.2978 37.5352 30.7911 38.0286L30.8347 38.3188C30.8782 39.7263 32.2132 43.2379 32.2132 43.2379H33.403C33.403 43.2379 33.403 40.5244 33.403 38.8267C33.403 37.1434 34.5784 34.5605 35.9714 32.5145C37.3644 30.454 38.2351 25.8251 38.2351 25.8251C41.3258 28.9159 54.8352 26.7974 56.6781 27.668C57.7228 28.1614 58.5935 28.8434 59.9865 30.9039C61.3795 32.9644 61.0893 36.0406 61.0893 37.7384C61.0893 39.4216 61.0893 43.2524 61.0893 43.2524H62.2792C62.2792 43.2524 63.5996 39.7263 63.6577 38.3333L63.7012 38.0431C64.1946 37.5497 64.6589 37.3466 65.0652 37.3466C65.8488 30.1058 65.2248 26.4201 63.9769 24.4902Z" fill="#242528"/>
<path d="M58.9697 72.5342H35.535V92.8781H58.9697V72.5342Z" fill="white"/>
<path d="M83.1305 103.399H11.361C11.361 103.399 13.9293 86.2189 15.1047 80.9225C15.9463 77.1207 17.1217 75.0747 18.5727 74.088V74.0735C19.1387 73.6817 19.7481 73.4496 20.3866 73.348C22.6502 72.9707 30.7762 70.9392 30.7762 70.9392L41.4415 75.481L46.6363 90.5285L47.2312 92.2263L47.8116 90.5285L53.0064 75.481L63.6717 70.9392C63.6717 70.9392 71.7977 72.9707 74.0613 73.348C74.6998 73.4496 75.3238 73.6817 75.8752 74.0735V74.088C77.3262 75.0602 78.5016 77.1207 79.3432 80.9225C80.5476 86.2044 83.1305 103.399 83.1305 103.399Z" fill="#0A2A51"/>
<path d="M38.2345 63.9446H37.3493L31.1097 69.2265L28.6429 82.7503L41.4558 75.4805L38.2345 69.5312V63.9446Z" fill="#0A2A51"/>
<path d="M23.042 103.398H11.361C11.361 103.398 13.9293 86.2178 15.1047 80.9214C15.9463 77.1196 17.1217 75.0736 18.5727 74.0869L23.042 103.398Z" fill="#0A2A51"/>
<path d="M41.3254 92.0813H24.0723V93.692H41.3254V92.0813Z" fill="#C8C8C8"/>
<path d="M56.2572 63.9446H57.1424L63.3819 69.2265L65.8487 82.7503L53.0214 75.4805L56.2572 69.5312V63.9446Z" fill="#0A2A51"/>
<path d="M71.4487 103.398H83.1298C83.1298 103.398 80.5614 86.2178 79.386 80.9214C78.5444 77.1196 77.3691 75.0736 75.918 74.0869L71.4487 103.398Z" fill="#0A2A51"/>
<path d="M70.4053 92.0813H53.1522V93.692H70.4053V92.0813Z" fill="#C8C8C8"/>
<path d="M47.8261 90.5278V103.399H46.6508V90.5278L47.2457 92.2256L47.8261 90.5278Z" fill="#C8C8C8"/>
<path opacity="0.3" d="M56.2575 58.7058V61.0275C53.7907 63.3492 50.7435 64.6697 47.2464 64.6697C43.7349 64.6697 40.7167 63.3492 38.2354 61.042V58.7203C40.7022 61.042 43.7204 62.377 47.2464 62.377C50.758 62.3625 53.7907 61.013 56.2575 58.7058Z" fill="#FFDAB9"/>
</svg>
