<svg width="117" height="111" viewBox="0 0 117 111" fill="none" xmlns="http://www.w3.org/2000/svg">
<path d="M32.0709 67.3726C27.3768 75.7577 22.2214 74.2933 16.2635 74.2933C13.0138 74.2933 8.01884 74.2933 7.19638 70.3816C6.9356 69.2984 6.9356 67.6735 7.19638 66.4499C7.59758 64.5642 8.01884 64.825 10.0249 64.825C13.1342 64.825 16.1231 65.1058 19.2124 65.6474C23.2846 66.2894 28.0188 66.169 32.0709 67.3726Z" fill="white"/>
<path d="M33.3943 88.2894C32.4916 91.3586 31.6892 95.6314 28.4395 96.7146C26.4535 97.4368 21.8999 97.2763 19.7334 97.2763C16.1226 97.2763 12.6722 97.1359 9.06143 97.1359C5.8117 97.1359 5.27008 96.0526 5.99224 92.823C6.7144 90.4759 6.27308 88.2493 8.68029 87.3466C10.9671 86.484 26.9952 86.8852 33.3943 88.2894Z" fill="#C90606"/>
<path d="M13.8955 51.0611C13.4742 51.8234 13.1934 52.385 13.0931 52.706C12.7922 53.6087 12.6919 54.05 12.5916 54.3108C12.07 54.1905 11.5083 53.9497 11.0269 54.1102C10.5455 54.2908 10.4853 54.7321 9.94366 54.8725C9.30173 54.9929 8.35891 54.6518 7.73705 54.5515C6.39302 54.3309 4.98881 54.1503 3.62473 53.8294C1.45824 53.3279 0.695954 51.3018 0.836375 49.2757C0.976795 47.3901 2.90256 46.7482 4.44719 46.5275C5.97176 46.2467 8.05801 45.5646 9.50233 46.4272C11.5685 47.7311 10.7461 51.6428 13.8955 51.0611Z" fill="#C90606"/>
<path d="M116.222 66.1267C116.121 64.221 111.688 60.1688 110.424 58.905C109.582 58.0826 106.653 55.5751 105.67 54.9331C105.088 54.5721 104.968 54.5721 104.827 54.1909C104.727 53.9301 104.607 53.4888 104.306 52.5861C104.206 52.2852 103.925 51.7235 103.504 50.9613C100.956 46.3675 93.5537 34.9332 92.9519 34.3114C92.2297 33.5892 90.6049 32.1449 88.298 31.7437C86.0111 31.3425 63.0222 30.1589 58.6893 30.1589C54.3563 30.1589 31.3875 31.4027 29.0806 31.8039C26.7737 32.2251 25.1689 33.6494 24.4467 34.3716C23.8248 35.0135 16.4427 46.4477 13.9151 51.0415C13.4939 51.8038 13.213 52.3655 13.1127 52.6864C12.8118 53.5891 12.7115 54.0304 12.6112 54.2912C12.5109 54.5319 11.9292 54.9532 11.6885 55.0736C11.6484 55.1137 11.6082 55.1337 11.6082 55.1337C10.9663 55.555 8.39862 57.3002 7.01447 58.7847C4.92822 60.9913 1.3174 64.3413 1.2171 66.227C1.13686 68.1126 0.3144 69.4767 0.515001 73.2681C0.595241 75.1136 1.1168 80.6702 1.61831 85.9862C2.11981 91.5428 2.66143 96.8186 2.70155 97.2399C2.78179 98.0423 2.52101 98.965 2.88209 99.6672C3.24317 100.389 4.14588 100.57 5.5902 100.57C6.03153 100.57 10.8259 100.63 17.4056 100.71C33.0926 100.891 58.7896 101.232 58.7896 101.232C58.7896 101.232 85.309 100.831 100.896 100.63C107.094 100.53 111.568 100.47 111.969 100.47C113.413 100.47 114.316 100.289 114.677 99.5669C115.018 98.8447 114.757 97.942 114.837 97.1195C114.898 96.5578 115.82 87.0494 116.442 80.0083C116.723 76.919 116.924 74.3112 116.984 73.1477C117.124 69.3764 116.302 68.0123 116.222 66.1267ZM107.375 64.7225C109.401 64.7225 109.802 64.4617 110.224 66.3473C110.484 67.571 110.484 69.1959 110.224 70.2591C109.401 74.1908 104.406 74.1908 101.156 74.1908C95.2187 74.1908 90.0432 75.6753 85.3491 67.3102C89.3812 66.1066 94.1355 66.227 98.1876 65.5449C101.277 65.0033 104.266 64.7225 107.375 64.7225ZM25.5901 34.9332L58.6692 33.4287L91.7483 34.853C91.7483 34.853 103.664 53.4286 102.761 53.4286C101.899 53.4286 72.0894 51.7637 58.6692 52.0646C45.2691 51.8038 15.4598 53.5089 14.5972 53.5289C13.7145 53.5089 25.5901 34.9332 25.5901 34.9332ZM7.19501 66.4476C7.59621 64.562 8.01747 64.8228 10.0235 64.8228C13.1328 64.8228 16.1218 65.1036 19.211 65.6452C23.2631 66.3072 27.9973 66.1869 32.0495 67.3905C27.3554 75.7756 22.2 74.3112 16.2421 74.3112C12.9924 74.3112 7.99741 74.3112 7.17495 70.3995C6.93423 69.2962 6.93423 67.6713 7.19501 66.4476ZM28.4386 96.7183C26.4527 97.4405 21.8991 97.28 19.7326 97.28C18.9302 97.28 18.1478 97.2599 17.3655 97.2599C15.4598 97.2399 13.5541 97.1797 11.6484 97.1596C10.7858 97.1396 9.94324 97.1396 9.0606 97.1396C5.81086 97.1396 5.26924 96.0563 5.99141 92.8267C6.71357 90.4796 6.27225 88.253 8.67946 87.3503C9.5621 87.0293 12.4909 86.8889 16.1619 86.929C16.543 86.9089 16.9442 86.929 17.3454 86.929C18.549 86.9491 19.8329 86.9892 21.1167 87.0494C21.879 87.0895 22.6613 87.1296 23.4236 87.1697C23.7045 87.1697 23.9853 87.2098 24.2461 87.2299C24.6673 87.25 25.0686 87.2901 25.4898 87.3101C25.9111 87.3503 26.3123 87.3703 26.6934 87.4104C27.1147 87.4506 27.4958 87.4907 27.897 87.5107C28.4788 87.5709 29.0405 87.6311 29.5821 87.6913C29.9632 87.7314 30.3042 87.7715 30.6453 87.8317C30.9261 87.8718 31.2069 87.9119 31.4677 87.9521C31.5881 87.9721 31.7285 87.9922 31.8489 88.0323C32.0294 88.0524 32.1899 88.0724 32.3504 88.1125C32.4105 88.1125 32.4707 88.1326 32.551 88.1326C32.6513 88.1527 32.7716 88.1727 32.8719 88.1928C33.0525 88.2329 33.2129 88.273 33.3734 88.3131C32.4908 91.3623 31.6884 95.6351 28.4386 96.7183ZM74.3361 95.3743L43.1427 95.3944C42.7014 95.3944 38.1879 95.8357 37.0244 92.606C35.8408 89.3563 34.0354 84.1206 33.4136 81.5128C32.7315 78.7645 30.5249 74.0504 43.7846 74.3513C50.6251 74.5118 55.5599 74.4917 58.7494 74.4516C61.939 74.4917 66.8738 74.4917 73.7143 74.3313C86.974 74.0103 84.7674 78.7244 84.0853 81.4726C83.4434 84.0604 81.6581 89.3161 80.4745 92.5659C79.291 95.7956 74.7775 95.3743 74.3361 95.3743ZM108.418 97.0393C105.851 97.0393 103.363 97.1195 100.856 97.1596C99.8325 97.1797 98.8094 97.1998 97.7463 97.1998C95.5798 97.1998 91.0061 97.3803 89.0402 96.6381C85.7905 95.5548 84.968 91.282 84.0853 88.2128C84.306 88.1527 84.5467 88.1125 84.7874 88.0724C85.1084 87.9922 85.4695 87.9521 85.8306 87.8919C86.0713 87.8718 86.312 87.8116 86.5728 87.7916C86.653 87.7715 86.7333 87.7715 86.8135 87.7715C87.1345 87.7314 87.4956 87.6913 87.8366 87.6311C87.8566 87.6311 87.8968 87.611 87.9369 87.611C88.2779 87.5709 88.639 87.5308 89.0001 87.4907C89.8827 87.3904 90.8255 87.3101 91.7884 87.25C92.0492 87.2299 92.33 87.2098 92.5908 87.1898C94.0753 87.0694 95.5998 86.9892 97.0843 86.9491C97.4855 86.929 97.8666 86.9089 98.2478 86.8889C98.5286 86.8688 98.8094 86.8688 99.0903 86.8688C99.4313 86.8488 99.7523 86.8488 100.073 86.8488C100.354 86.8287 100.615 86.8287 100.876 86.8488C104.747 86.7886 107.877 86.929 108.799 87.25C111.227 88.1527 110.785 90.3793 111.507 92.7264C112.19 95.956 111.648 97.0393 108.418 97.0393Z" fill="#C90606"/>
<path d="M102.763 53.4105C102.442 53.4105 98.0486 53.1698 91.9905 52.909C89.3626 52.7886 86.4338 52.6683 83.4047 52.5479C74.6585 52.1868 64.9093 51.8859 58.6907 52.0464C50.7469 51.8859 37.0258 52.4276 26.9958 52.909C21.1382 53.1698 16.5445 53.4105 15.0801 53.4707C14.8193 53.5108 14.6588 53.5108 14.5986 53.5108C13.6959 53.5108 25.5715 34.9151 25.5715 34.9151L34.0168 34.534L45.8924 33.9923L58.6305 33.4307L91.7297 34.8549C91.7297 34.8549 93.3345 37.3624 95.3405 40.552C96.4438 42.3173 97.6675 44.2431 98.7708 46.1086C101.178 50.0204 103.144 53.4105 102.763 53.4105Z" fill="#78DCF0"/>
<path d="M110.224 70.2563C109.401 74.1881 104.406 74.1881 101.156 74.1881C95.2186 74.1881 90.0431 75.6726 85.349 67.3075C89.3811 66.1039 94.1353 66.2243 98.1875 65.5422C101.277 65.0006 104.286 64.7198 107.375 64.7198C109.401 64.7198 109.802 64.459 110.224 66.3446C110.484 67.5683 110.484 69.1932 110.224 70.2563Z" fill="white"/>
<path d="M108.42 97.0388C104.789 97.0388 101.358 97.1993 97.7477 97.1993C95.5812 97.1993 91.0075 97.3798 89.0416 96.6376C85.7918 95.5543 84.9694 91.2815 84.0867 88.2124C90.4658 86.8081 106.494 86.3869 108.781 87.2294C111.208 88.1321 110.767 90.3588 111.489 92.7058C112.191 95.9555 111.649 97.0388 108.42 97.0388Z" fill="#C90606"/>
<path d="M84.0449 81.4731C83.403 84.0609 81.6177 89.3166 80.4341 92.5664C79.2706 95.8161 74.7571 95.3748 74.3158 95.3748L43.1223 95.3948C42.681 95.3948 38.1675 95.8362 37.004 92.6065C35.8205 89.3568 34.0151 84.1211 33.3932 81.5133C32.7112 78.765 30.5045 74.0509 43.7643 74.3518C50.6048 74.5123 55.5395 74.4922 58.7291 74.4521C61.9186 74.4922 66.8534 74.4922 73.6939 74.3317C86.9135 74.0108 84.727 78.7249 84.0449 81.4731Z" fill="#0A2A51"/>
<path opacity="0.2" d="M110.424 58.905C109.582 58.0826 106.653 55.5751 105.67 54.9331C105.088 54.5721 104.968 54.5721 104.827 54.1909C104.727 53.9301 104.607 53.4888 104.306 52.5861C104.205 52.2852 103.925 51.7235 103.503 50.9612C100.956 46.3675 93.5536 34.9332 92.9518 34.3114C92.2296 33.5892 90.6047 32.1449 88.2978 31.7437C85.9909 31.3425 63.1425 30.1589 58.7092 30.1589V33.4287L91.7482 34.853C91.7482 34.853 103.664 53.4286 102.761 53.4286C101.899 53.4286 72.1294 51.7636 58.7092 52.0646V101.252H58.7293C58.7293 101.252 85.2487 100.851 100.835 100.65C107.034 100.55 111.507 100.49 111.909 100.49C113.353 100.49 114.256 100.309 114.617 99.5869C114.958 98.8647 114.697 97.962 114.777 97.1396C114.837 96.5779 115.76 87.0694 116.382 80.0283C116.663 76.9391 116.863 74.3312 116.924 73.1678C117.104 69.3764 116.282 68.0324 116.201 66.1467C116.121 64.221 111.688 60.1688 110.424 58.905ZM98.1875 65.565C101.277 65.0234 104.286 64.7425 107.375 64.7425C109.401 64.7425 109.802 64.4817 110.224 66.3674C110.484 67.5911 110.484 69.2159 110.224 70.2791C109.401 74.2109 104.406 74.2109 101.156 74.2109C95.2186 74.2109 90.0431 75.6953 85.349 67.3303C89.4011 66.1066 94.1353 66.227 98.1875 65.565ZM108.418 97.0393C105.85 97.0393 103.363 97.1195 100.855 97.1596C99.8324 97.1797 98.8093 97.1998 97.7461 97.1998C95.5796 97.1998 91.0059 97.3803 89.0401 96.6381C85.7903 95.5548 84.9679 91.282 84.0852 88.2128C84.3059 88.1527 84.5466 88.1125 84.7873 88.0724C85.1083 87.9922 85.4694 87.9521 85.8304 87.8919C86.0712 87.8718 86.3119 87.8116 86.5727 87.7916C86.6529 87.7715 86.7331 87.7715 86.8134 87.7715C87.1343 87.7314 87.4954 87.6913 87.8365 87.6311C87.8565 87.6311 87.8966 87.611 87.9368 87.611C88.2778 87.5709 88.6389 87.5308 88.9999 87.4907C89.8826 87.3904 90.8254 87.3101 91.7883 87.2499C92.0491 87.2299 92.3299 87.2098 92.5907 87.1898C94.0751 87.0694 95.5997 86.9892 97.0841 86.9491C97.4853 86.929 97.8665 86.9089 98.2476 86.8889C98.5285 86.8688 98.8093 86.8688 99.0902 86.8688C99.4312 86.8487 99.7521 86.8488 100.073 86.8488C100.354 86.8287 100.615 86.8287 100.876 86.8488C104.747 86.7886 107.876 86.929 108.799 87.2499C111.227 88.1526 110.785 90.3793 111.507 92.7264C112.189 95.956 111.648 97.0393 108.418 97.0393Z" fill="#C90606"/>
<path d="M17.3648 100.712L17.3848 109.218C17.3848 109.8 16.9034 110.301 16.3016 110.301L2.68079 110.321C2.07899 110.321 1.59754 109.84 1.59754 109.238L1.57748 85.9883C2.07899 91.5449 2.62061 96.8207 2.66073 97.242C2.74097 98.0444 2.48019 98.9672 2.84127 99.6693C3.20235 100.391 4.10506 100.572 5.54938 100.572C5.9907 100.572 10.7851 100.632 17.3648 100.712Z" fill="#323232"/>
<path d="M116.603 80.6299L116.623 109.135C116.623 109.737 116.162 110.219 115.54 110.219L101.919 110.239C101.337 110.239 100.836 109.757 100.836 109.155L100.816 100.65C107.014 100.55 111.488 100.489 111.889 100.489C113.333 100.489 114.236 100.309 114.597 99.5867C114.938 98.8645 114.677 97.9618 114.757 97.1393C114.818 96.5776 115.74 87.0692 116.362 80.0281C116.543 80.1886 116.603 80.4092 116.603 80.6299Z" fill="#323232"/>
<path d="M16.1422 92.102C16.1422 94.3888 14.2967 96.2344 12.0299 96.2344C9.76308 96.2344 7.89749 94.3888 7.89749 92.122C7.89749 89.8552 9.74302 87.9897 12.0098 87.9897C14.2766 87.9696 16.1422 89.8151 16.1422 92.102Z" fill="#FFDC00"/>
<path d="M113.775 53.7304C112.431 54.0514 111.007 54.2319 109.663 54.4526C109.041 54.5328 108.098 54.8939 107.456 54.7736C106.914 54.6331 106.834 54.1918 106.373 54.0113C105.911 53.8508 105.33 54.0915 104.828 54.2119C104.728 53.9511 104.607 53.5098 104.307 52.6071C104.206 52.3062 103.925 51.7445 103.504 50.9822C106.654 51.5439 105.811 47.6522 107.917 46.3483C109.342 45.4857 111.428 46.1678 112.973 46.4286C114.497 46.6492 116.443 47.2711 116.583 49.1768C116.684 51.2029 115.941 53.2289 113.775 53.7304Z" fill="#C90606"/>
<path d="M23.2251 92.1043C23.2251 93.7292 21.9212 95.0531 20.2963 95.0531C18.6714 95.0531 17.3475 93.7492 17.3475 92.1243C17.3475 90.4995 18.6514 89.1755 20.2762 89.1755C21.9212 89.1555 23.2251 90.4794 23.2251 92.1043Z" fill="#FFDC00"/>
<path d="M109.302 92.0081C109.302 94.2749 107.457 96.1404 105.17 96.1404C102.903 96.1404 101.058 94.2949 101.058 92.0281C101.058 89.7613 102.903 87.9158 105.17 87.8958C107.457 87.8958 109.302 89.7413 109.302 92.0081Z" fill="#FFDC00"/>
<path d="M99.4319 92.0213C99.4319 93.6461 98.128 94.9701 96.5031 94.9701C94.8782 94.9701 93.5543 93.6462 93.5543 92.0413C93.5543 90.4165 94.8582 89.0925 96.483 89.0925C98.1079 89.0725 99.4319 90.3964 99.4319 92.0213Z" fill="#FFDC00"/>
<path opacity="0.45" d="M102.423 53.3905C100.035 53.2902 92.5329 52.889 84.0675 52.548C80.2361 52.4075 76.204 52.2471 72.3525 52.1668C67.3575 52.0264 62.6634 51.9662 59.1329 52.0465C45.7327 51.7857 15.9033 53.5108 15.0408 53.5108C14.9806 53.5108 14.9806 53.3704 15.0809 53.1297C19.5142 49.4788 37.2874 46.7506 58.5511 46.7305C63.6263 46.7305 68.521 46.871 73.0546 47.1518C72.854 46.7506 72.6533 46.3494 72.5129 45.9081C72.0716 45.868 71.5701 45.2662 71.3294 44.4437C71.0485 43.5009 71.189 42.6182 71.6303 42.4577C71.7908 42.4176 71.9513 42.4577 72.1117 42.558C71.8108 41.9161 71.6503 41.0134 71.5099 40.2913C71.3896 39.6092 71.3294 38.8469 71.4297 38.1248C71.6303 37.202 72.1318 36.9412 72.9543 36.52C74.88 35.6173 77.7085 34.3535 79.8349 35.3163C80.537 35.6574 80.5771 36.6203 80.5972 37.3625C81.2792 37.1619 82.1217 36.9412 82.7235 37.3625C82.8439 37.4427 82.9642 37.5631 83.0445 37.6834C83.3454 38.0445 83.5259 38.546 83.6463 39.0074C83.887 40.1709 83.6262 41.5149 83.1247 42.6182C83.2651 42.538 83.4457 42.4176 83.5861 42.4377C84.0274 42.5781 84.1678 43.4607 83.887 44.4236C83.6463 45.2461 83.1448 45.8479 82.7235 45.888C82.4828 46.6102 82.1418 47.2922 81.7205 47.8539C92.4125 49.0575 100.156 51.0435 102.423 53.3905Z" fill="#32A0B4"/>
<path opacity="0.2" d="M45.9126 33.991L26.9959 52.9076C21.1383 53.1684 16.5446 53.4091 15.0802 53.4693L34.037 34.5125L45.9126 33.991Z" fill="white"/>
<path opacity="0.2" d="M98.7886 46.1072L91.9883 52.9076C89.3604 52.7872 86.4316 52.6668 83.4026 52.5465L95.3584 40.5505C96.4617 42.3158 97.6853 44.2617 98.7886 46.1072Z" fill="white"/>
<g filter="url(#filter0_d_1_628)">
<circle cx="59.3216" cy="39.5043" r="24.2275" fill="white"/>
<path fill-rule="evenodd" clip-rule="evenodd" d="M33.8287 20.6955C35.1225 21.9169 34.9732 25.1489 34.59 26.1429C34.0476 27.0745 32.3682 27.4517 30.6191 27.1445C28.9297 26.7673 27.1035 28.3733 26.6308 30.8335C26.0958 33.1438 27.0239 35.3592 28.7033 35.7439C30.532 36.131 31.8333 39.1257 31.9129 40.1273C32.0622 41.1188 30.8455 42.4301 29.1586 42.8847C27.4095 43.5091 26.7104 45.8818 27.4095 48.1822C28.0912 50.4925 30.1464 51.9511 31.8357 51.4166C33.4356 50.8022 35.2817 51.1094 35.737 52.031C36.2694 52.7953 36.874 56.0198 35.6574 57.3985C34.59 58.7073 35.0553 61.08 36.8118 62.696C38.5609 64.312 41.0888 64.6192 42.2333 63.3104C43.3803 62.0092 46.5899 62.3164 47.5851 62.696C48.5032 63.0831 48.966 64.8565 48.6525 66.5349C48.1971 68.3807 49.7994 70.2239 52.2477 70.681C54.5491 71.2155 56.7685 70.2239 57.1467 68.4581C57.6094 66.7722 60.513 65.3135 61.5007 65.2336C62.4984 65.1562 63.8022 66.455 64.3346 68.0809C64.9467 69.7669 67.2382 70.6011 69.5297 69.7668C71.8212 69.0725 73.2717 67.0694 72.6596 65.4609C72.1272 63.6951 74.0405 60.9976 74.8815 60.3907C75.6428 59.7763 77.4093 60.3108 78.7031 61.4622C79.9969 62.691 82.368 62.2339 84.0474 60.3907C85.5875 58.5449 85.8936 56.1647 84.5973 54.9433C83.2861 53.7045 83.5921 50.49 84.0474 49.5584C84.4405 48.6442 86.12 48.1797 87.7994 48.5643C89.6356 48.9514 91.4742 47.263 91.937 44.9527C92.4695 42.4925 91.4742 40.2796 89.7077 39.8925C88.0382 39.5753 86.6549 36.5881 86.4981 35.5865C86.4285 34.505 87.7223 33.3636 89.332 32.7392C91.0886 32.2022 91.8599 29.8919 91.0886 27.599C90.3198 25.2088 88.3418 23.8401 86.7345 24.3746C85.0551 24.8316 82.3008 22.9959 81.6887 22.2141C81.0841 21.3 81.6191 19.6141 82.8357 18.3053C84.0499 17.004 83.5175 14.5363 81.6887 12.9279C79.9222 11.3119 77.4914 11.0122 76.2573 12.3034C75.1104 13.6222 71.8236 13.4723 70.9926 13.0053C70.0646 12.6107 69.5322 10.7724 69.9078 9.07898C70.3706 7.40056 68.6141 5.54731 66.3226 5.01031C63.9614 4.55324 61.7396 5.46738 61.2768 7.24071C60.9708 9.00655 57.9876 10.3952 56.9999 10.4652C55.9947 10.4652 54.778 9.32375 54.166 7.54792C53.6236 5.86201 51.342 5.16766 49.0406 5.86201C46.7416 6.55636 45.2986 8.54199 45.831 10.3178C46.2863 12.0037 44.5372 14.6138 43.6092 15.2282C42.7707 15.8526 41.0913 15.378 39.7875 14.1567C38.4938 13.0053 36.0455 13.5423 34.4432 15.2282C32.8335 17.0864 32.5175 19.6241 33.8287 20.6955ZM53.3151 19.4742C63.4862 16.2397 74.2793 21.847 77.4889 31.905C80.7781 42.1154 75.2671 52.9477 65.096 56.2521C55.0816 59.4765 44.2287 53.9418 41.0191 43.7414C37.7996 33.6833 43.3007 22.6812 53.3151 19.4742Z" fill="#0A2A51"/>
<path fill-rule="evenodd" clip-rule="evenodd" d="M65.0968 39.9291C64.9649 39.7968 64.7982 39.7268 64.6141 39.7268C64.43 39.7268 64.2658 39.7968 64.1339 39.9291L63.5393 40.5186C62.5689 39.5345 61.7379 38.7178 60.9318 37.9085L63.7906 35.0262L64.9898 33.8224C66.6867 34.5092 68.6448 34.1121 69.941 32.8133C71.1129 31.6444 71.5583 29.9235 71.1129 28.3251L70.981 27.868L67.8759 30.995L65.2859 28.395L68.391 25.2679L67.9456 25.1455C66.3533 24.6985 64.639 25.1455 63.4671 26.3144C62.1808 27.6157 61.7877 29.5914 62.4694 31.2873L61.2727 32.4986L58.3965 35.3784C56.9534 33.9473 55.2143 32.2064 52.6242 29.6063C52.6242 29.6063 52.6242 29.5964 52.6143 29.5889L51.3727 27.4534C51.3553 27.4184 51.3279 27.3834 51.2931 27.356L49.1932 25.8973C49.0788 25.8174 48.922 25.8349 48.825 25.9323L47.8895 26.8714C47.785 26.9688 47.775 27.1262 47.8546 27.2411L49.3052 29.3491C49.3325 29.3841 49.3674 29.4115 49.4022 29.4365L51.527 30.6853C51.5369 30.6853 51.5369 30.6853 51.5444 30.6853C54.0449 33.198 55.8214 34.9813 57.3167 36.4674L54.438 39.3497L53.2388 40.5535C51.5519 39.8692 49.5838 40.2638 48.29 41.5626C47.1256 42.7315 46.6803 44.4524 47.1256 46.0534L47.2475 46.5104L50.3601 43.3834L52.9502 45.9834L49.8376 49.1105L50.2929 49.2329C51.8853 49.6799 53.5995 49.2329 54.7615 48.064C56.0552 46.7627 56.4483 44.7871 55.7666 43.0912L56.9659 41.8773L59.842 38.9875C60.6905 39.8317 61.5215 40.6559 62.457 41.605L61.8723 42.1945C61.7404 42.3269 61.6708 42.4942 61.6708 42.679C61.6708 42.8639 61.7404 43.0312 61.8723 43.1611L68.4656 49.7848C68.595 49.9172 68.7642 49.9872 68.9458 49.9872C69.1299 49.9872 69.2941 49.9172 69.426 49.7848L71.6827 47.517C71.812 47.3846 71.8817 47.2173 71.8817 47.0349C71.8817 46.8526 71.812 46.6828 71.6827 46.5529L65.0968 39.9291ZM68.4631 48.3037L63.3552 43.1736L63.8976 42.6366L68.9956 47.7593L68.4631 48.3037ZM69.6698 47.0824L64.5718 41.9597L65.1043 41.4152L70.2122 46.5454L69.6698 47.0824Z" fill="#C90606"/>
</g>
<defs>
<filter id="filter0_d_1_628" x="22.4794" y="0.893555" width="73.6011" height="73.9321" filterUnits="userSpaceOnUse" color-interpolation-filters="sRGB">
<feFlood flood-opacity="0" result="BackgroundImageFix"/>
<feColorMatrix in="SourceAlpha" type="matrix" values="0 0 0 0 0 0 0 0 0 0 0 0 0 0 0 0 0 0 127 0" result="hardAlpha"/>
<feOffset/>
<feGaussianBlur stdDeviation="2"/>
<feComposite in2="hardAlpha" operator="out"/>
<feColorMatrix type="matrix" values="0 0 0 0 0.126749 0 0 0 0 0 0 0 0 0 0 0 0 0 0.22 0"/>
<feBlend mode="normal" in2="BackgroundImageFix" result="effect1_dropShadow_1_628"/>
<feBlend mode="normal" in="SourceGraphic" in2="effect1_dropShadow_1_628" result="shape"/>
</filter>
</defs>
</svg>
